<svg id="Component_23_1" data-name="Component 23 – 1" xmlns="http://www.w3.org/2000/svg" width="137.747" height="79.108" viewBox="0 0 137.747 79.108">
  <path id="Fill_110" data-name="Fill 110" d="M14.7.673,72.768,1.816,82.156,1s21.249-.6,23.283-.92c2.351-.368,3.093.68,3.17,1.558.117,1.367-1.4,2.587-3.4,2.964-.694.131-11.722,1.751-11.722,1.751a26.436,26.436,0,0,1,3.3,1.678c2.314,1.315,4.084,4.967,4.566,8.924s.266,5.108-1.257,5.367a1.964,1.964,0,0,1-1.6-.542A5.626,5.626,0,0,1,97,18.859c-1.29-7.535-4.282-7.044-4.282-7.044l-1.309-.033s3.4,3.55,2.721,6.781a3.743,3.743,0,0,1-.563,1.334,4.983,4.983,0,0,1-6.679,5.414c-.788-.3-1.579-.949-1.54-1.791a2.655,2.655,0,0,1,.5-1.22,4.109,4.109,0,0,0,.329-.627L82.7,21.492s-7.8-.829-11.235-.8L16.909,22.494C9.14,23.311.732,21.672.054,13.869-.683,5.38,6.216.212,14.7.673" transform="translate(29.131 36.099)" fill="#ffbf9d"/>
  <path id="Fill_112" data-name="Fill 112" d="M.013,1.556a2.906,2.906,0,0,0,2.01,2.73c1.117.466,2.361.538,3.51.924C8.967,6.359,11.1,10.1,14.586,11.081c.485.136,1.128.153,1.364-.294.22-.414-.08-.9-.367-1.276Q11.91,4.756,8.238,0" transform="translate(102.925 38.055)" fill="#ffbf9d"/>
  <path id="Fill_114" data-name="Fill 114" d="M8.3,0a4.856,4.856,0,0,1,.9.947c.545.638,1.314,1.573,2.253,2.738L14.725,7.8c.306.391.62.789.938,1.2a2.394,2.394,0,0,1,.75,1.639,1.013,1.013,0,0,1-.784.823,2.079,2.079,0,0,1-.981-.025,7.843,7.843,0,0,1-1.64-.665C10.92,9.619,9.462,7.943,7.891,6.81A9.036,9.036,0,0,0,5.53,5.49c-.795-.281-1.606-.407-2.341-.6A4.221,4.221,0,0,1,.232,2.873,1.518,1.518,0,0,1,.077,1.558,3.546,3.546,0,0,0,.463,2.744,4.09,4.09,0,0,0,3.3,4.413c.716.161,1.536.259,2.411.537A9.33,9.33,0,0,1,8.262,6.3c1.65,1.157,3.132,2.81,5.068,3.866a7.47,7.47,0,0,0,1.48.605c.482.128.936.03.94-.238.052-.292-.285-.73-.6-1.134s-.618-.815-.919-1.21l-3.156-4.2c-.889-1.2-1.6-2.185-2.079-2.871A4.754,4.754,0,0,1,8.3,0" transform="translate(102.86 38.054)" fill="#ff9a6c"/>
  <path id="Fill_116" data-name="Fill 116" d="M0,.182a4.924,4.924,0,0,1,2.233.4,3.837,3.837,0,0,1,1.684,1.7A9.834,9.834,0,0,1,4.807,5.2,15.592,15.592,0,0,0,5.56,8.276a5.038,5.038,0,0,0,1.511,2.14,1.965,1.965,0,0,0,1.726.371,1.2,1.2,0,0,0,.572-.3c-.019-.04-.224.067-.61.134a1.841,1.841,0,0,1-1.495-.448A5,5,0,0,1,5.937,8.127a17.31,17.31,0,0,1-.7-3.008,9.555,9.555,0,0,0-.966-3.035A4.008,4.008,0,0,0,2.361.293,3.566,3.566,0,0,0,.621.016C.205.062-.007.158,0,.182" transform="translate(120.542 47.699)" fill="#ff9a6c"/>
  <path id="Fill_118" data-name="Fill 118" d="M14.915.014A12.457,12.457,0,0,0,12.72.322c-1.5.249-3.287.545-5.262.875l-5.276.8A12.232,12.232,0,0,0,0,2.379,9.891,9.891,0,0,0,2.218,2.3c1.364-.117,3.244-.343,5.308-.67s3.921-.694,5.255-1A9.922,9.922,0,0,0,14.915.014" transform="translate(120.193 40.523)" fill="#ff9a6c"/>
  <path id="Fill_120" data-name="Fill 120" d="M3.891,0c-.027.02.117.228.348.6a2.068,2.068,0,0,1,.342,1.684A1.1,1.1,0,0,1,3.753,3a5.857,5.857,0,0,1-1.438.117,2.479,2.479,0,0,0-1.684.53A2.121,2.121,0,0,0,.019,5.466,2.409,2.409,0,0,0,1.033,7.078a3,3,0,0,0,1.658.579A9.764,9.764,0,0,0,5.5,7.176a5.722,5.722,0,0,0,1.725-.844c.361-.288.485-.522.467-.531-.033-.026-.194.161-.564.39a6.754,6.754,0,0,1-1.718.684,10.32,10.32,0,0,1-2.71.373A2.377,2.377,0,0,1,.458,5.409,1.708,1.708,0,0,1,.925,3.967a2.12,2.12,0,0,1,1.405-.44,5.808,5.808,0,0,0,1.532-.174,1.43,1.43,0,0,0,1.018-.97A2.157,2.157,0,0,0,4.38.507C4.1.15,3.914-.015,3.891,0" transform="translate(114.553 50.757)" fill="#ff9a6c"/>
  <path id="Fill_122" data-name="Fill 122" d="M1.559,1.383c0-.022-.243-.046-.612.158A1.936,1.936,0,0,0,.013,3,2.583,2.583,0,0,0,1.132,5.3a4.194,4.194,0,0,0,3.063.628,5.088,5.088,0,0,0,2.8-1.4A4.882,4.882,0,0,0,8.262,2.316,4.637,4.637,0,0,0,8.4.607C8.347.2,8.266-.005,8.241,0a8.043,8.043,0,0,1-.277,2.227,4.818,4.818,0,0,1-1.256,2.01A4.856,4.856,0,0,1,4.13,5.492a3.9,3.9,0,0,1-2.764-.525A2.292,2.292,0,0,1,.325,3.024a1.833,1.833,0,0,1,.716-1.338c.3-.226.527-.266.518-.3" transform="translate(114.333 56.22)" fill="#ff9a6c"/>
  <path id="Fill_124" data-name="Fill 124" d="M2.564,6.215a1.8,1.8,0,0,0-.177-1.052A4.193,4.193,0,0,0,.646,3.079L.6,3.466a12.131,12.131,0,0,0,1.43-.472A9.527,9.527,0,0,0,6.27,0,24.027,24.027,0,0,1,1.86,2.583c-.473.189-.94.348-1.377.474L0,3.2l.434.247A4.4,4.4,0,0,1,2.144,5.271c.287.57.363.955.42.944" transform="translate(104.792 44.925)" fill="#ff9a6c"/>
  <path id="Fill_126" data-name="Fill 126" d="M1.2.011C1.13-.085.406.463.142,1.5s.09,1.866.2,1.815c.125-.033-.012-.805.231-1.7C.794.708,1.289.1,1.2.011" transform="translate(124.935 48.429)" fill="#ff9a6c"/>
  <path id="Fill_128" data-name="Fill 128" d="M0,0C.9,1.267,40.588,32.775,45.5,34.1s50.271,2,50.271,2,3.547,27.98,2.378,29.879c-4.307,6.987-56.125,25.445-80.846.435L0,2.99" fill="#005635"/>
</svg>
