<svg xmlns="http://www.w3.org/2000/svg" width="108.664" height="97.512" viewBox="0 0 108.664 97.512">
  <g id="Group_21" data-name="Group 21" transform="translate(-199.705 -361)">
    <path id="Fill_164" data-name="Fill 164" d="M18.731,3.452A34.858,34.858,0,0,1,0,0S5.392,9.328,19,6.956Z" transform="translate(259.503 430.549)" fill="#ff9a6c"/>
    <g id="Component_21_1" data-name="Component 21 – 1" transform="translate(199.705 361)">
      <path id="Fill_146" data-name="Fill 146" d="M30.258,9.879a17.5,17.5,0,0,0-7.6-8.445,11.94,11.94,0,0,0-11.1-.124,9.2,9.2,0,0,0-4.591,9.762C1.012,13.96-1.756,22.058,1.182,28A13.04,13.04,0,0,0,18.124,33.64c-3.164,4.187-.463,11.047,4.5,12.738S33.357,45.136,35.83,40.5,37.855,30.07,35.664,25.3" transform="translate(4.256 24.757)" fill="#1a2e35"/>
      <path id="Fill_148" data-name="Fill 148" d="M10.038,3.423A5.54,5.54,0,0,0,5.739.029,4.477,4.477,0,0,0,1.117,2.686,3.794,3.794,0,0,0,3.108,7.457,5.439,5.439,0,0,0,.1,13.327a5.42,5.42,0,0,0,5.068,4.212A5.046,5.046,0,0,0,6.19,23.666a5.011,5.011,0,0,0,6.194.144,6.592,6.592,0,0,0,2.233-4.481,19.635,19.635,0,0,0-.322-5.116q-.585-3.853-1.171-7.708a8.4,8.4,0,0,0-.958-3.257A2.86,2.86,0,0,0,9.311,1.8" transform="translate(26.701 33.889)" fill="#da2c2c"/>
      <path id="Fill_150" data-name="Fill 150" d="M55.1,16.241c1.84-3.3.692-7.73-2.038-10.341S46.379,2.293,42.609,2.4A42.9,42.9,0,0,0,31.565,4.7,12.286,12.286,0,0,0,19.772.2,12.313,12.313,0,0,0,10.45,8.728a7.8,7.8,0,0,0-7.792,1.311A7.85,7.85,0,0,0,.179,17.561l15.979,8.051L30.3,60.207a15.219,15.219,0,0,0,19.33,2.213,15.321,15.321,0,0,0,4.684-18.935,12.658,12.658,0,0,0,2.975-2.854,12.933,12.933,0,0,0,6.933-7.181c2.5-6.882-2.037-15.438-9.124-17.211" transform="translate(43.746)" fill="#1a2e35"/>
      <path id="Fill_152" data-name="Fill 152" d="M34.775,69.24c-.367-5.382-.631-9.069-.625-9.03,0,0,10.361-2.583,11.453-16.491.541-6.916-.684-18.09-1.981-27.2-1.169-8.2-7.41-17.879-15.53-16.36L3.035,8.668C.568,9.13-.133,11.306.114,13.811L0,15,4.3,54.247,5.99,71.757A14.449,14.449,0,0,0,34.775,69.24" transform="translate(44.38 12.791)" fill="#ffbf9d"/>
      <path id="Fill_154" data-name="Fill 154" d="M3.5,1.462A1.768,1.768,0,0,1,1.946,3.374,1.686,1.686,0,0,1,.011,1.93,1.767,1.767,0,0,1,1.561.016,1.689,1.689,0,0,1,3.5,1.462" transform="translate(80.487 39.438)" fill="#1a2e35"/>
      <path id="Fill_156" data-name="Fill 156" d="M6.952,1.6c-.2.247-1.609-.635-3.5-.481-1.89.128-3.2,1.214-3.425,1C-.08,2.018.111,1.586.68,1.1A4.821,4.821,0,0,1,3.4.013,4.629,4.629,0,0,1,6.2.682c.617.4.847.8.747.913" transform="translate(78.756 35.127)" fill="#1a2e35"/>
      <path id="Fill_158" data-name="Fill 158" d="M3.5,1.462A1.767,1.767,0,0,1,1.946,3.374,1.686,1.686,0,0,1,.011,1.93,1.766,1.766,0,0,1,1.562.016,1.687,1.687,0,0,1,3.5,1.462" transform="translate(62.913 40.053)" fill="#1a2e35"/>
      <path id="Fill_160" data-name="Fill 160" d="M6.953,1.6c-.2.247-1.612-.635-3.5-.48-1.89.127-3.2,1.213-3.425,1C-.079,2.018.108,1.586.68,1.1A4.825,4.825,0,0,1,3.4.013,4.638,4.638,0,0,1,6.2.682c.616.4.847.8.749.913" transform="translate(60.675 36.198)" fill="#1a2e35"/>
      <path id="Fill_162" data-name="Fill 162" d="M2.127,15.728a12.523,12.523,0,0,1,3.028-.8c.478-.089.927-.222.983-.559A2.469,2.469,0,0,0,5.7,12.962q-.819-1.7-1.719-3.572C1.587,4.3-.189.1.016,0S2.33,3.956,4.728,9.048c.579,1.257,1.132,2.453,1.661,3.6a2.82,2.82,0,0,1,.4,1.879,1.218,1.218,0,0,1-.738.771,3.276,3.276,0,0,1-.811.179,12.263,12.263,0,0,1-3.112.252" transform="translate(73.327 34.943)" fill="#1a2e35"/>
      <path id="Fill_166" data-name="Fill 166" d="M8.66,1.45c-.192.515-2.082.258-4.309.512-2.23.21-4.029.85-4.322.384-.13-.222.185-.706.913-1.2A7.237,7.237,0,0,1,4.153.041a7.2,7.2,0,0,1,3.365.42C8.333.8,8.742,1.2,8.66,1.45" transform="translate(58.578 31.198)" fill="#1a2e35"/>
      <path id="Fill_168" data-name="Fill 168" d="M7.644,1.676c-.36.462-1.937.138-3.79.263C2,2.01.456,2.5.059,2.078-.117,1.872.1,1.421.75.959A5.985,5.985,0,0,1,3.773.009,5.879,5.879,0,0,1,6.862.635c.689.391.939.818.783,1.041" transform="translate(77.709 31.331)" fill="#1a2e35"/>
      <path id="Fill_170" data-name="Fill 170" d="M.852,4.639a9.566,9.566,0,0,0,3.914,6.984,9.508,9.508,0,0,0,7.856,1.445c2.066-.545,4.278-1.783,6.175-.8,2,1.029,2.3,3.9,4.1,5.244,2.575,1.916,6.265-.352,9.4.323,2.422.522,4.074,2.678,5.793,4.466s4.216,3.421,6.528,2.533a27.967,27.967,0,0,0-1.426-6.262,9.386,9.386,0,0,0-3.982-4.884,34.793,34.793,0,0,1-3.165-1.535c-2.087-1.439-2.755-4.173-4.138-6.3a10.3,10.3,0,0,0-8.226-4.6c-2.715-.07-5.43.957-8.109.495C13.594,1.4,11.8.265,9.8.042,5.918-.393,2.568,2.639,0,5.6" transform="translate(53.501 8.675)" fill="#1a2e35"/>
      <path id="Fill_172" data-name="Fill 172" d="M34.405,7.257c-1.756-.36-5.354-1.2-6.391-2.627C25.765,1.539,22.067-.4,18.478.071A8.7,8.7,0,0,0,11.2,7.541,12.5,12.5,0,0,0,1.027,15.28,14.565,14.565,0,0,0,2.445,28.722,25.891,25.891,0,0,1,4.1,31.932,21.266,21.266,0,0,0,1.468,35c-3.634,5.917,3.739,9.313,3.739,9.313-.52,4.225,3.361,4.706,5.853,5.014,2.4.3,3.017,7.142,4.986,7.134l.667-20.815a2.57,2.57,0,0,0,.887.281c4.682.69,4.6-8.372,3.373-10.871a26.857,26.857,0,0,0,4.245-5.226c1.127-1.982,1.852-7.2,1.4-9.495,1.667-.031,8.555-2.916,7.784-3.074" transform="translate(32.63 10.579)" fill="#1a2e35"/>
      <path id="Fill_174" data-name="Fill 174" d="M8.086,3.609A4.006,4.006,0,0,0,1.978.651c-1.326.912-2.263,2.61-1.9,5.7C1.055,14.6,9.112,11.921,9.1,11.683c-.008-.149-.58-4.664-1.012-8.073" transform="translate(41.818 43.792)" fill="#ffbf9d"/>
      <path id="Fill_176" data-name="Fill 176" d="M4.071,6.352c-.038-.023-.132.117-.36.258a1.445,1.445,0,0,1-1.068.15c-.908-.217-1.8-1.514-2.018-3A4.82,4.82,0,0,1,.782,1.658,1.676,1.676,0,0,1,1.729.426a.738.738,0,0,1,.894.294c.136.217.1.388.149.4.024.018.159-.159.053-.492A.919.919,0,0,0,2.441.147,1.09,1.09,0,0,0,1.624.031,2.031,2.031,0,0,0,.278,1.488,4.913,4.913,0,0,0,.053,3.847C.3,5.5,1.334,6.957,2.565,7.161a1.543,1.543,0,0,0,1.284-.375c.231-.234.251-.424.222-.435" transform="translate(43.964 46.295)" fill="#ff9a6c"/>
      <path id="Fill_178" data-name="Fill 178" d="M35.277,28.449c-.041-.067.792-.465,1.969-1.581a11.841,11.841,0,0,0,3.283-5.889,11.528,11.528,0,0,0,.147-4.661,9.987,9.987,0,0,0-2.264-4.775,11.71,11.71,0,0,0-11.1-3.688c-.389.071-.757.214-1.129.315-.361.134-.705.292-1.045.429l-.526.214.063-.549a4.078,4.078,0,0,0-.666-2.738,6.475,6.475,0,0,0-2.077-1.932,8.5,8.5,0,0,0-5.265-1.075c-3.517.338-6.617,1.53-9.395,1.492a8.8,8.8,0,0,1-6.015-2.04A5.127,5.127,0,0,1,.209.574,2.2,2.2,0,0,1,0,0,7.219,7.219,0,0,0,1.424,1.79a8.776,8.776,0,0,0,5.85,1.777A21.546,21.546,0,0,0,11.585,2.9a38.077,38.077,0,0,1,5.036-.965,10.812,10.812,0,0,1,2.835.08,8.68,8.68,0,0,1,2.8,1.037,7.064,7.064,0,0,1,2.293,2.123,4.724,4.724,0,0,1,.775,3.175l-.463-.335c.361-.149.728-.318,1.113-.461.4-.109.791-.259,1.2-.337a12.247,12.247,0,0,1,11.69,3.934,10.461,10.461,0,0,1,2.341,5.075,11.865,11.865,0,0,1-.231,4.861,11.721,11.721,0,0,1-3.559,5.966,8.267,8.267,0,0,1-1.547,1.107,2.461,2.461,0,0,1-.594.288" transform="translate(58.808 13.297)" fill="#375a64"/>
      <path id="Fill_180" data-name="Fill 180" d="M35.824,7.039a8.866,8.866,0,0,0-2.452-1.214,6.8,6.8,0,0,0-3.082-.116,6.062,6.062,0,0,0-3.431,1.883l-.359.4-.122-.521a9.4,9.4,0,0,0-6.832-6.6c-2.683-.665-5.318.245-7.53,1.168A32.218,32.218,0,0,1,5.881,4.286a9.094,9.094,0,0,1-4.422-.048A5.416,5.416,0,0,1,.345,3.771C.107,3.629-.01,3.546,0,3.527c.027-.056.53.236,1.522.466a9.534,9.534,0,0,0,4.259-.157,34.986,34.986,0,0,0,6-2.347A19.887,19.887,0,0,1,15.47.237,9.5,9.5,0,0,1,19.7.24a9.857,9.857,0,0,1,7.226,7.1l-.481-.121a6.44,6.44,0,0,1,3.77-1.962,6.9,6.9,0,0,1,3.256.255,5.853,5.853,0,0,1,1.845.993c.366.319.53.518.511.536" transform="translate(60.236 6.433)" fill="#375a64"/>
      <path id="Fill_182" data-name="Fill 182" d="M4.817.913A2.715,2.715,0,0,0,2.722,0,3.209,3.209,0,0,0,.439,1.258L.4,1.3c-.024.033-.06.06-.083.094l.034-.018A1.541,1.541,0,0,0,0,2.284,2.274,2.274,0,0,0,1.078,4.129a2.863,2.863,0,0,0,3.305-.053A2.354,2.354,0,0,0,4.817.913" transform="translate(69.454 53.764)" fill="#ff4f5b"/>
      <path id="Fill_184" data-name="Fill 184" d="M.054,0C.163-.027.327.407.738.98A4.7,4.7,0,0,0,2.81,2.633a4.708,4.708,0,0,0,2.643.176c.688-.147,1.1-.358,1.162-.264.054.071-.27.458-1.008.763a4.219,4.219,0,0,1-3.063.015A4.235,4.235,0,0,1,.288,1.246C-.052.522-.033.018.054,0" transform="translate(69.324 53.13)" fill="#1a2e35"/>
      <path id="Fill_186" data-name="Fill 186" d="M3.7,24.634a1.785,1.785,0,0,1-.366-.273,9.813,9.813,0,0,1-.924-.917,9.646,9.646,0,0,1-2.23-4.233,7.606,7.606,0,0,1,0-3.346,6.864,6.864,0,0,1,1.84-3.372,5.452,5.452,0,0,1,3.912-1.589,5.072,5.072,0,0,1,4.084,1.934l-.381.2c-.01-.027-.02-.059-.029-.089A11.4,11.4,0,0,1,9.838,4.3,7.455,7.455,0,0,1,15.386.043,6.09,6.09,0,0,1,19.96,1.337a4.832,4.832,0,0,1,.89.969,1.712,1.712,0,0,1,.217.4,7.444,7.444,0,0,0-1.212-1.24,6.03,6.03,0,0,0-4.43-1.12A7.18,7.18,0,0,0,10.2,4.476a11.1,11.1,0,0,0-.171,8.335c.01.03.02.06.029.087l.419,1.28-.8-1.079a4.671,4.671,0,0,0-3.737-1.766,5.067,5.067,0,0,0-3.631,1.45A6.538,6.538,0,0,0,.539,15.949a7.374,7.374,0,0,0-.054,3.2,9.9,9.9,0,0,0,2.057,4.187c.707.868,1.19,1.27,1.162,1.3" transform="translate(33.956 5.748)" fill="#1a2e35"/>
      <path id="Fill_188" data-name="Fill 188" d="M24.006,36.77a1.131,1.131,0,0,1-.224.1l-.669.244c-.591.207-1.462.51-2.6.861a37.384,37.384,0,0,1-4.207,1.059,19.7,19.7,0,0,1-5.747.267,13.3,13.3,0,0,1-6.5-2.473A10.269,10.269,0,0,1,.133,29.939,16.042,16.042,0,0,1,1.5,21.21a10.952,10.952,0,0,1,2.778-3.824,6.981,6.981,0,0,1,4.536-1.713,5.373,5.373,0,0,1,3.327,1.083l-.291.32a9.54,9.54,0,0,1-2.176-4.026,11.14,11.14,0,0,1-.179-4.428,9.921,9.921,0,0,1,4.428-6.841A11.665,11.665,0,0,1,21.1.036,11.189,11.189,0,0,1,27.1,2.352a12.811,12.811,0,0,1,3.388,4.082A13.55,13.55,0,0,1,31.8,10.208a12.489,12.489,0,0,1,.22,2.509c-.016.267-.03.482-.041.653a1.013,1.013,0,0,1-.027.221,16.663,16.663,0,0,0-.311-3.351,13.8,13.8,0,0,0-1.36-3.7,12.71,12.71,0,0,0-3.361-3.956,10.921,10.921,0,0,0-5.839-2.2,11.346,11.346,0,0,0-6.946,1.725,9.537,9.537,0,0,0-4.224,6.58,10.736,10.736,0,0,0,.181,4.252,9.13,9.13,0,0,0,2.074,3.835l-.291.32a4.952,4.952,0,0,0-3.06-.991,6.556,6.556,0,0,0-4.256,1.611,10.556,10.556,0,0,0-2.669,3.67A15.671,15.671,0,0,0,.53,29.883a9.9,9.9,0,0,0,3.747,6.655A13.032,13.032,0,0,0,10.6,38.992a19.7,19.7,0,0,0,5.667-.2,40.306,40.306,0,0,0,4.2-.981l2.62-.784.682-.2a.985.985,0,0,1,.238-.055" transform="translate(0 20.666)" fill="#1a2e35"/>
      <path id="Fill_190" data-name="Fill 190" d="M15.917,13.041a5.11,5.11,0,0,1-.977.615,19.977,19.977,0,0,1-2.858,1.318,12.284,12.284,0,0,1-4.616.808A8.37,8.37,0,0,1,2.137,13.7,6.439,6.439,0,0,1,.475,11.179,8.326,8.326,0,0,1,0,8.413a12.033,12.033,0,0,1,.965-4.6A25.055,25.055,0,0,1,2.343.982,5.583,5.583,0,0,1,2.951,0a6.178,6.178,0,0,1-.457,1.059c-.311.672-.785,1.634-1.242,2.867A12.244,12.244,0,0,0,.4,8.408a6.828,6.828,0,0,0,2.033,4.978,8.093,8.093,0,0,0,5.05,1.994,12.49,12.49,0,0,0,4.5-.7c2.483-.86,3.9-1.727,3.936-1.642" transform="translate(20.629 57.568)" fill="#1a2e35"/>
      <path id="Fill_192" data-name="Fill 192" d="M1.765,15.785a2.753,2.753,0,0,0,1.053-.42,2.988,2.988,0,0,0,1.135-2.713,2.411,2.411,0,0,0-.946-1.765,1.722,1.722,0,0,0-2.109,0,1.522,1.522,0,0,0-.481,1.071,1.13,1.13,0,0,0,.571,1,2.019,2.019,0,0,0,1.3.2,3.489,3.489,0,0,0,1.329-.514A6.035,6.035,0,0,0,6.16,7.872a11.413,11.413,0,0,0-.868-4.563A9.783,9.783,0,0,0,3.877.5a1.316,1.316,0,0,0-1-.444A.51.51,0,0,1,3.184,0a1.323,1.323,0,0,1,.81.379A3.865,3.865,0,0,1,4.8,1.529c.246.481.514,1.034.776,1.665A11.325,11.325,0,0,1,6.56,7.889a7.077,7.077,0,0,1-.689,2.788,5.61,5.61,0,0,1-2.028,2.337,3.055,3.055,0,0,1-3.073.312A1.554,1.554,0,0,1,0,11.952a1.926,1.926,0,0,1,.628-1.363,1.841,1.841,0,0,1,1.348-.447,2.368,2.368,0,0,1,1.239.45A2.723,2.723,0,0,1,4.26,12.626a3.131,3.131,0,0,1-1.347,2.88,1.889,1.889,0,0,1-.84.3.63.63,0,0,1-.308-.018" transform="translate(39.186 60.175)" fill="#1a2e35"/>
      <path id="Fill_194" data-name="Fill 194" d="M4.373,18.879a1.236,1.236,0,0,1-.37.063,3.213,3.213,0,0,1-1.07-.149A4.367,4.367,0,0,1,.215,16.015,5.75,5.75,0,0,1,1.737,10.5,8.423,8.423,0,0,1,10,8.188l-.262.282a6.67,6.67,0,0,1,1.245-6.333,5.92,5.92,0,0,1,2.327-1.7A6.572,6.572,0,0,1,15.754,0a6.383,6.383,0,0,1,3.385,1,4.31,4.31,0,0,1,.754.593c.155.155.231.24.222.251-.029.031-.351-.3-1.057-.706a6.543,6.543,0,0,0-3.3-.841,6.373,6.373,0,0,0-2.317.47,5.6,5.6,0,0,0-2.161,1.622,6.316,6.316,0,0,0-1.133,5.939l.133.387-.394-.106A8.088,8.088,0,0,0,2.03,10.768,5.465,5.465,0,0,0,.509,15.922a4.265,4.265,0,0,0,2.479,2.711,4.92,4.92,0,0,0,1.385.247" transform="translate(8.147 39.169)" fill="#375a64"/>
      <path id="Fill_196" data-name="Fill 196" d="M0,.35A1.561,1.561,0,0,1,.557.133,4.661,4.661,0,0,1,2.218.03a5.538,5.538,0,0,1,2.39.849,5.239,5.239,0,0,1,2.072,2.46l-.352-.064a4.273,4.273,0,0,1,2.6-1.342,6.045,6.045,0,0,1,4.115.95A9.449,9.449,0,0,1,15.5,5.3a16.732,16.732,0,0,1,1.218,1.964,3.072,3.072,0,0,1,.349.773c-.069.042-.641-1.026-1.81-2.551A9.789,9.789,0,0,0,12.826,3.22,5.764,5.764,0,0,0,8.99,2.364a3.911,3.911,0,0,0-2.348,1.19L6.413,3.8,6.289,3.49A4.961,4.961,0,0,0,4.41,1.181,5.509,5.509,0,0,0,2.181.294,7.609,7.609,0,0,0,0,.35" transform="translate(11.527 32.247)" fill="#375a64"/>
    </g>
  </g>
</svg>
