<svg xmlns="http://www.w3.org/2000/svg" width="238.357" height="482.977" viewBox="0 0 238.357 482.977">
  <g id="Group_22" data-name="Group 22" transform="translate(-189.821 -358)">
    <g id="Component_23_1" data-name="Component 23 – 1" transform="translate(290.432 451.394)">
      <path id="Fill_110" data-name="Fill 110" d="M14.7.673,72.768,1.816,82.156,1s21.249-.6,23.283-.92c2.351-.368,3.093.68,3.17,1.558.117,1.367-1.4,2.587-3.4,2.964-.694.131-11.722,1.751-11.722,1.751a26.436,26.436,0,0,1,3.3,1.678c2.314,1.315,4.084,4.967,4.566,8.924s.266,5.108-1.257,5.367a1.964,1.964,0,0,1-1.6-.542A5.626,5.626,0,0,1,97,18.859c-1.29-7.535-4.282-7.044-4.282-7.044l-1.309-.033s3.4,3.55,2.721,6.781a3.743,3.743,0,0,1-.563,1.334,4.983,4.983,0,0,1-6.679,5.414c-.788-.3-1.579-.949-1.54-1.791a2.655,2.655,0,0,1,.5-1.22,4.109,4.109,0,0,0,.329-.627L82.7,21.492s-7.8-.829-11.235-.8L16.909,22.494C9.14,23.311.732,21.672.054,13.869-.683,5.38,6.216.212,14.7.673" transform="translate(29.131 36.099)" fill="#ffbf9d"/>
      <path id="Fill_112" data-name="Fill 112" d="M.013,1.556a2.906,2.906,0,0,0,2.01,2.73c1.117.466,2.361.538,3.51.924C8.967,6.359,11.1,10.1,14.586,11.081c.485.136,1.128.153,1.364-.294.22-.414-.08-.9-.367-1.276Q11.91,4.756,8.238,0" transform="translate(102.925 38.055)" fill="#ffbf9d"/>
      <path id="Fill_114" data-name="Fill 114" d="M8.3,0a4.856,4.856,0,0,1,.9.947c.545.638,1.314,1.573,2.253,2.738L14.725,7.8c.306.391.62.789.938,1.2a2.394,2.394,0,0,1,.75,1.639,1.013,1.013,0,0,1-.784.823,2.079,2.079,0,0,1-.981-.025,7.843,7.843,0,0,1-1.64-.665C10.92,9.619,9.462,7.943,7.891,6.81A9.036,9.036,0,0,0,5.53,5.49c-.795-.281-1.606-.407-2.341-.6A4.221,4.221,0,0,1,.232,2.873,1.518,1.518,0,0,1,.077,1.558,3.546,3.546,0,0,0,.463,2.744,4.09,4.09,0,0,0,3.3,4.413c.716.161,1.536.259,2.411.537A9.33,9.33,0,0,1,8.262,6.3c1.65,1.157,3.132,2.81,5.068,3.866a7.47,7.47,0,0,0,1.48.605c.482.128.936.03.94-.238.052-.292-.285-.73-.6-1.134s-.618-.815-.919-1.21l-3.156-4.2c-.889-1.2-1.6-2.185-2.079-2.871A4.754,4.754,0,0,1,8.3,0" transform="translate(102.86 38.054)" fill="#ff9a6c"/>
      <path id="Fill_116" data-name="Fill 116" d="M0,.182a4.924,4.924,0,0,1,2.233.4,3.837,3.837,0,0,1,1.684,1.7A9.834,9.834,0,0,1,4.807,5.2,15.592,15.592,0,0,0,5.56,8.276a5.038,5.038,0,0,0,1.511,2.14,1.965,1.965,0,0,0,1.726.371,1.2,1.2,0,0,0,.572-.3c-.019-.04-.224.067-.61.134a1.841,1.841,0,0,1-1.495-.448A5,5,0,0,1,5.937,8.127a17.31,17.31,0,0,1-.7-3.008,9.555,9.555,0,0,0-.966-3.035A4.008,4.008,0,0,0,2.361.293,3.566,3.566,0,0,0,.621.016C.205.062-.007.158,0,.182" transform="translate(120.542 47.699)" fill="#ff9a6c"/>
      <path id="Fill_118" data-name="Fill 118" d="M14.915.014A12.457,12.457,0,0,0,12.72.322c-1.5.249-3.287.545-5.262.875l-5.276.8A12.232,12.232,0,0,0,0,2.379,9.891,9.891,0,0,0,2.218,2.3c1.364-.117,3.244-.343,5.308-.67s3.921-.694,5.255-1A9.922,9.922,0,0,0,14.915.014" transform="translate(120.193 40.523)" fill="#ff9a6c"/>
      <path id="Fill_120" data-name="Fill 120" d="M3.891,0c-.027.02.117.228.348.6a2.068,2.068,0,0,1,.342,1.684A1.1,1.1,0,0,1,3.753,3a5.857,5.857,0,0,1-1.438.117,2.479,2.479,0,0,0-1.684.53A2.121,2.121,0,0,0,.019,5.466,2.409,2.409,0,0,0,1.033,7.078a3,3,0,0,0,1.658.579A9.764,9.764,0,0,0,5.5,7.176a5.722,5.722,0,0,0,1.725-.844c.361-.288.485-.522.467-.531-.033-.026-.194.161-.564.39a6.754,6.754,0,0,1-1.718.684,10.32,10.32,0,0,1-2.71.373A2.377,2.377,0,0,1,.458,5.409,1.708,1.708,0,0,1,.925,3.967a2.12,2.12,0,0,1,1.405-.44,5.808,5.808,0,0,0,1.532-.174,1.43,1.43,0,0,0,1.018-.97A2.157,2.157,0,0,0,4.38.507C4.1.15,3.914-.015,3.891,0" transform="translate(114.553 50.757)" fill="#ff9a6c"/>
      <path id="Fill_122" data-name="Fill 122" d="M1.559,1.383c0-.022-.243-.046-.612.158A1.936,1.936,0,0,0,.013,3,2.583,2.583,0,0,0,1.132,5.3a4.194,4.194,0,0,0,3.063.628,5.088,5.088,0,0,0,2.8-1.4A4.882,4.882,0,0,0,8.262,2.316,4.637,4.637,0,0,0,8.4.607C8.347.2,8.266-.005,8.241,0a8.043,8.043,0,0,1-.277,2.227,4.818,4.818,0,0,1-1.256,2.01A4.856,4.856,0,0,1,4.13,5.492a3.9,3.9,0,0,1-2.764-.525A2.292,2.292,0,0,1,.325,3.024a1.833,1.833,0,0,1,.716-1.338c.3-.226.527-.266.518-.3" transform="translate(114.333 56.22)" fill="#ff9a6c"/>
      <path id="Fill_124" data-name="Fill 124" d="M2.564,6.215a1.8,1.8,0,0,0-.177-1.052A4.193,4.193,0,0,0,.646,3.079L.6,3.466a12.131,12.131,0,0,0,1.43-.472A9.527,9.527,0,0,0,6.27,0,24.027,24.027,0,0,1,1.86,2.583c-.473.189-.94.348-1.377.474L0,3.2l.434.247A4.4,4.4,0,0,1,2.144,5.271c.287.57.363.955.42.944" transform="translate(104.792 44.925)" fill="#ff9a6c"/>
      <path id="Fill_126" data-name="Fill 126" d="M1.2.011C1.13-.085.406.463.142,1.5s.09,1.866.2,1.815c.125-.033-.012-.805.231-1.7C.794.708,1.289.1,1.2.011" transform="translate(124.935 48.429)" fill="#ff9a6c"/>
      <path id="Fill_128" data-name="Fill 128" d="M0,0C.9,1.267,40.588,32.775,45.5,34.1s50.271,2,50.271,2,3.547,27.98,2.378,29.879c-4.307,6.987-56.125,25.445-80.846.435L0,2.99" fill="#005635"/>
    </g>
    <path id="Fill_130" data-name="Fill 130" d="M3.144,16.33a6.742,6.742,0,0,0,.491-2.457,22.063,22.063,0,0,0-.319-6.041A22.014,22.014,0,0,0,1.379,2.1,6.7,6.7,0,0,0,.014,0c-.2.1,1.757,3.4,2.605,7.964.9,4.552.3,8.342.525,8.364" transform="translate(337.098 486.248)" fill="#1a2e35"/>
    <path id="Fill_132" data-name="Fill 132" d="M.1,18.454a9.423,9.423,0,0,0,.561-2.666,57.145,57.145,0,0,0,.5-6.543A57.418,57.418,0,0,0,.929,2.686,9.389,9.389,0,0,0,.477,0C.269.022.568,4.144.456,9.23.361,14.315-.1,18.425.1,18.454" transform="translate(335.833 485.214)" fill="#1a2e35"/>
    <path id="Fill_136" data-name="Fill 136" d="M1.048,6.7,0,0,8.438,7.459l4.2,14.6Z" transform="translate(289.094 449.715)" fill="#1a2e35"/>
    <g id="Group_21" data-name="Group 21" transform="translate(0 -3)">
      <path id="Fill_164" data-name="Fill 164" d="M18.731,3.452A34.858,34.858,0,0,1,0,0S5.392,9.328,19,6.956Z" transform="translate(259.503 430.549)" fill="#ff9a6c"/>
      <g id="Component_21_1" data-name="Component 21 – 1" transform="translate(199.705 361)">
        <path id="Fill_146" data-name="Fill 146" d="M30.258,9.879a17.5,17.5,0,0,0-7.6-8.445,11.94,11.94,0,0,0-11.1-.124,9.2,9.2,0,0,0-4.591,9.762C1.012,13.96-1.756,22.058,1.182,28A13.04,13.04,0,0,0,18.124,33.64c-3.164,4.187-.463,11.047,4.5,12.738S33.357,45.136,35.83,40.5,37.855,30.07,35.664,25.3" transform="translate(4.256 24.757)" fill="#1a2e35"/>
        <path id="Fill_148" data-name="Fill 148" d="M10.038,3.423A5.54,5.54,0,0,0,5.739.029,4.477,4.477,0,0,0,1.117,2.686,3.794,3.794,0,0,0,3.108,7.457,5.439,5.439,0,0,0,.1,13.327a5.42,5.42,0,0,0,5.068,4.212A5.046,5.046,0,0,0,6.19,23.666a5.011,5.011,0,0,0,6.194.144,6.592,6.592,0,0,0,2.233-4.481,19.635,19.635,0,0,0-.322-5.116q-.585-3.853-1.171-7.708a8.4,8.4,0,0,0-.958-3.257A2.86,2.86,0,0,0,9.311,1.8" transform="translate(26.701 33.889)" fill="#da2c2c"/>
        <path id="Fill_150" data-name="Fill 150" d="M55.1,16.241c1.84-3.3.692-7.73-2.038-10.341S46.379,2.293,42.609,2.4A42.9,42.9,0,0,0,31.565,4.7,12.286,12.286,0,0,0,19.772.2,12.313,12.313,0,0,0,10.45,8.728a7.8,7.8,0,0,0-7.792,1.311A7.85,7.85,0,0,0,.179,17.561l15.979,8.051L30.3,60.207a15.219,15.219,0,0,0,19.33,2.213,15.321,15.321,0,0,0,4.684-18.935,12.658,12.658,0,0,0,2.975-2.854,12.933,12.933,0,0,0,6.933-7.181c2.5-6.882-2.037-15.438-9.124-17.211" transform="translate(43.746)" fill="#1a2e35"/>
        <path id="Fill_152" data-name="Fill 152" d="M34.775,69.24c-.367-5.382-.631-9.069-.625-9.03,0,0,10.361-2.583,11.453-16.491.541-6.916-.684-18.09-1.981-27.2-1.169-8.2-7.41-17.879-15.53-16.36L3.035,8.668C.568,9.13-.133,11.306.114,13.811L0,15,4.3,54.247,5.99,71.757A14.449,14.449,0,0,0,34.775,69.24" transform="translate(44.38 12.791)" fill="#ffbf9d"/>
        <path id="Fill_154" data-name="Fill 154" d="M3.5,1.462A1.768,1.768,0,0,1,1.946,3.374,1.686,1.686,0,0,1,.011,1.93,1.767,1.767,0,0,1,1.561.016,1.689,1.689,0,0,1,3.5,1.462" transform="translate(80.487 39.438)" fill="#1a2e35"/>
        <path id="Fill_156" data-name="Fill 156" d="M6.952,1.6c-.2.247-1.609-.635-3.5-.481-1.89.128-3.2,1.214-3.425,1C-.08,2.018.111,1.586.68,1.1A4.821,4.821,0,0,1,3.4.013,4.629,4.629,0,0,1,6.2.682c.617.4.847.8.747.913" transform="translate(78.756 35.127)" fill="#1a2e35"/>
        <path id="Fill_158" data-name="Fill 158" d="M3.5,1.462A1.767,1.767,0,0,1,1.946,3.374,1.686,1.686,0,0,1,.011,1.93,1.766,1.766,0,0,1,1.562.016,1.687,1.687,0,0,1,3.5,1.462" transform="translate(62.913 40.053)" fill="#1a2e35"/>
        <path id="Fill_160" data-name="Fill 160" d="M6.953,1.6c-.2.247-1.612-.635-3.5-.48-1.89.127-3.2,1.213-3.425,1C-.079,2.018.108,1.586.68,1.1A4.825,4.825,0,0,1,3.4.013,4.638,4.638,0,0,1,6.2.682c.616.4.847.8.749.913" transform="translate(60.675 36.198)" fill="#1a2e35"/>
        <path id="Fill_162" data-name="Fill 162" d="M2.127,15.728a12.523,12.523,0,0,1,3.028-.8c.478-.089.927-.222.983-.559A2.469,2.469,0,0,0,5.7,12.962q-.819-1.7-1.719-3.572C1.587,4.3-.189.1.016,0S2.33,3.956,4.728,9.048c.579,1.257,1.132,2.453,1.661,3.6a2.82,2.82,0,0,1,.4,1.879,1.218,1.218,0,0,1-.738.771,3.276,3.276,0,0,1-.811.179,12.263,12.263,0,0,1-3.112.252" transform="translate(73.327 34.943)" fill="#1a2e35"/>
        <path id="Fill_166" data-name="Fill 166" d="M8.66,1.45c-.192.515-2.082.258-4.309.512-2.23.21-4.029.85-4.322.384-.13-.222.185-.706.913-1.2A7.237,7.237,0,0,1,4.153.041a7.2,7.2,0,0,1,3.365.42C8.333.8,8.742,1.2,8.66,1.45" transform="translate(58.578 31.198)" fill="#1a2e35"/>
        <path id="Fill_168" data-name="Fill 168" d="M7.644,1.676c-.36.462-1.937.138-3.79.263C2,2.01.456,2.5.059,2.078-.117,1.872.1,1.421.75.959A5.985,5.985,0,0,1,3.773.009,5.879,5.879,0,0,1,6.862.635c.689.391.939.818.783,1.041" transform="translate(77.709 31.331)" fill="#1a2e35"/>
        <path id="Fill_170" data-name="Fill 170" d="M.852,4.639a9.566,9.566,0,0,0,3.914,6.984,9.508,9.508,0,0,0,7.856,1.445c2.066-.545,4.278-1.783,6.175-.8,2,1.029,2.3,3.9,4.1,5.244,2.575,1.916,6.265-.352,9.4.323,2.422.522,4.074,2.678,5.793,4.466s4.216,3.421,6.528,2.533a27.967,27.967,0,0,0-1.426-6.262,9.386,9.386,0,0,0-3.982-4.884,34.793,34.793,0,0,1-3.165-1.535c-2.087-1.439-2.755-4.173-4.138-6.3a10.3,10.3,0,0,0-8.226-4.6c-2.715-.07-5.43.957-8.109.495C13.594,1.4,11.8.265,9.8.042,5.918-.393,2.568,2.639,0,5.6" transform="translate(53.501 8.675)" fill="#1a2e35"/>
        <path id="Fill_172" data-name="Fill 172" d="M34.405,7.257c-1.756-.36-5.354-1.2-6.391-2.627C25.765,1.539,22.067-.4,18.478.071A8.7,8.7,0,0,0,11.2,7.541,12.5,12.5,0,0,0,1.027,15.28,14.565,14.565,0,0,0,2.445,28.722,25.891,25.891,0,0,1,4.1,31.932,21.266,21.266,0,0,0,1.468,35c-3.634,5.917,3.739,9.313,3.739,9.313-.52,4.225,3.361,4.706,5.853,5.014,2.4.3,3.017,7.142,4.986,7.134l.667-20.815a2.57,2.57,0,0,0,.887.281c4.682.69,4.6-8.372,3.373-10.871a26.857,26.857,0,0,0,4.245-5.226c1.127-1.982,1.852-7.2,1.4-9.495,1.667-.031,8.555-2.916,7.784-3.074" transform="translate(32.63 10.579)" fill="#1a2e35"/>
        <path id="Fill_174" data-name="Fill 174" d="M8.086,3.609A4.006,4.006,0,0,0,1.978.651c-1.326.912-2.263,2.61-1.9,5.7C1.055,14.6,9.112,11.921,9.1,11.683c-.008-.149-.58-4.664-1.012-8.073" transform="translate(41.818 43.792)" fill="#ffbf9d"/>
        <path id="Fill_176" data-name="Fill 176" d="M4.071,6.352c-.038-.023-.132.117-.36.258a1.445,1.445,0,0,1-1.068.15c-.908-.217-1.8-1.514-2.018-3A4.82,4.82,0,0,1,.782,1.658,1.676,1.676,0,0,1,1.729.426a.738.738,0,0,1,.894.294c.136.217.1.388.149.4.024.018.159-.159.053-.492A.919.919,0,0,0,2.441.147,1.09,1.09,0,0,0,1.624.031,2.031,2.031,0,0,0,.278,1.488,4.913,4.913,0,0,0,.053,3.847C.3,5.5,1.334,6.957,2.565,7.161a1.543,1.543,0,0,0,1.284-.375c.231-.234.251-.424.222-.435" transform="translate(43.964 46.295)" fill="#ff9a6c"/>
        <path id="Fill_178" data-name="Fill 178" d="M35.277,28.449c-.041-.067.792-.465,1.969-1.581a11.841,11.841,0,0,0,3.283-5.889,11.528,11.528,0,0,0,.147-4.661,9.987,9.987,0,0,0-2.264-4.775,11.71,11.71,0,0,0-11.1-3.688c-.389.071-.757.214-1.129.315-.361.134-.705.292-1.045.429l-.526.214.063-.549a4.078,4.078,0,0,0-.666-2.738,6.475,6.475,0,0,0-2.077-1.932,8.5,8.5,0,0,0-5.265-1.075c-3.517.338-6.617,1.53-9.395,1.492a8.8,8.8,0,0,1-6.015-2.04A5.127,5.127,0,0,1,.209.574,2.2,2.2,0,0,1,0,0,7.219,7.219,0,0,0,1.424,1.79a8.776,8.776,0,0,0,5.85,1.777A21.546,21.546,0,0,0,11.585,2.9a38.077,38.077,0,0,1,5.036-.965,10.812,10.812,0,0,1,2.835.08,8.68,8.68,0,0,1,2.8,1.037,7.064,7.064,0,0,1,2.293,2.123,4.724,4.724,0,0,1,.775,3.175l-.463-.335c.361-.149.728-.318,1.113-.461.4-.109.791-.259,1.2-.337a12.247,12.247,0,0,1,11.69,3.934,10.461,10.461,0,0,1,2.341,5.075,11.865,11.865,0,0,1-.231,4.861,11.721,11.721,0,0,1-3.559,5.966,8.267,8.267,0,0,1-1.547,1.107,2.461,2.461,0,0,1-.594.288" transform="translate(58.808 13.297)" fill="#375a64"/>
        <path id="Fill_180" data-name="Fill 180" d="M35.824,7.039a8.866,8.866,0,0,0-2.452-1.214,6.8,6.8,0,0,0-3.082-.116,6.062,6.062,0,0,0-3.431,1.883l-.359.4-.122-.521a9.4,9.4,0,0,0-6.832-6.6c-2.683-.665-5.318.245-7.53,1.168A32.218,32.218,0,0,1,5.881,4.286a9.094,9.094,0,0,1-4.422-.048A5.416,5.416,0,0,1,.345,3.771C.107,3.629-.01,3.546,0,3.527c.027-.056.53.236,1.522.466a9.534,9.534,0,0,0,4.259-.157,34.986,34.986,0,0,0,6-2.347A19.887,19.887,0,0,1,15.47.237,9.5,9.5,0,0,1,19.7.24a9.857,9.857,0,0,1,7.226,7.1l-.481-.121a6.44,6.44,0,0,1,3.77-1.962,6.9,6.9,0,0,1,3.256.255,5.853,5.853,0,0,1,1.845.993c.366.319.53.518.511.536" transform="translate(60.236 6.433)" fill="#375a64"/>
        <path id="Fill_182" data-name="Fill 182" d="M4.817.913A2.715,2.715,0,0,0,2.722,0,3.209,3.209,0,0,0,.439,1.258L.4,1.3c-.024.033-.06.06-.083.094l.034-.018A1.541,1.541,0,0,0,0,2.284,2.274,2.274,0,0,0,1.078,4.129a2.863,2.863,0,0,0,3.305-.053A2.354,2.354,0,0,0,4.817.913" transform="translate(69.454 53.764)" fill="#ff4f5b"/>
        <path id="Fill_184" data-name="Fill 184" d="M.054,0C.163-.027.327.407.738.98A4.7,4.7,0,0,0,2.81,2.633a4.708,4.708,0,0,0,2.643.176c.688-.147,1.1-.358,1.162-.264.054.071-.27.458-1.008.763a4.219,4.219,0,0,1-3.063.015A4.235,4.235,0,0,1,.288,1.246C-.052.522-.033.018.054,0" transform="translate(69.324 53.13)" fill="#1a2e35"/>
        <path id="Fill_186" data-name="Fill 186" d="M3.7,24.634a1.785,1.785,0,0,1-.366-.273,9.813,9.813,0,0,1-.924-.917,9.646,9.646,0,0,1-2.23-4.233,7.606,7.606,0,0,1,0-3.346,6.864,6.864,0,0,1,1.84-3.372,5.452,5.452,0,0,1,3.912-1.589,5.072,5.072,0,0,1,4.084,1.934l-.381.2c-.01-.027-.02-.059-.029-.089A11.4,11.4,0,0,1,9.838,4.3,7.455,7.455,0,0,1,15.386.043,6.09,6.09,0,0,1,19.96,1.337a4.832,4.832,0,0,1,.89.969,1.712,1.712,0,0,1,.217.4,7.444,7.444,0,0,0-1.212-1.24,6.03,6.03,0,0,0-4.43-1.12A7.18,7.18,0,0,0,10.2,4.476a11.1,11.1,0,0,0-.171,8.335c.01.03.02.06.029.087l.419,1.28-.8-1.079a4.671,4.671,0,0,0-3.737-1.766,5.067,5.067,0,0,0-3.631,1.45A6.538,6.538,0,0,0,.539,15.949a7.374,7.374,0,0,0-.054,3.2,9.9,9.9,0,0,0,2.057,4.187c.707.868,1.19,1.27,1.162,1.3" transform="translate(33.956 5.748)" fill="#1a2e35"/>
        <path id="Fill_188" data-name="Fill 188" d="M24.006,36.77a1.131,1.131,0,0,1-.224.1l-.669.244c-.591.207-1.462.51-2.6.861a37.384,37.384,0,0,1-4.207,1.059,19.7,19.7,0,0,1-5.747.267,13.3,13.3,0,0,1-6.5-2.473A10.269,10.269,0,0,1,.133,29.939,16.042,16.042,0,0,1,1.5,21.21a10.952,10.952,0,0,1,2.778-3.824,6.981,6.981,0,0,1,4.536-1.713,5.373,5.373,0,0,1,3.327,1.083l-.291.32a9.54,9.54,0,0,1-2.176-4.026,11.14,11.14,0,0,1-.179-4.428,9.921,9.921,0,0,1,4.428-6.841A11.665,11.665,0,0,1,21.1.036,11.189,11.189,0,0,1,27.1,2.352a12.811,12.811,0,0,1,3.388,4.082A13.55,13.55,0,0,1,31.8,10.208a12.489,12.489,0,0,1,.22,2.509c-.016.267-.03.482-.041.653a1.013,1.013,0,0,1-.027.221,16.663,16.663,0,0,0-.311-3.351,13.8,13.8,0,0,0-1.36-3.7,12.71,12.71,0,0,0-3.361-3.956,10.921,10.921,0,0,0-5.839-2.2,11.346,11.346,0,0,0-6.946,1.725,9.537,9.537,0,0,0-4.224,6.58,10.736,10.736,0,0,0,.181,4.252,9.13,9.13,0,0,0,2.074,3.835l-.291.32a4.952,4.952,0,0,0-3.06-.991,6.556,6.556,0,0,0-4.256,1.611,10.556,10.556,0,0,0-2.669,3.67A15.671,15.671,0,0,0,.53,29.883a9.9,9.9,0,0,0,3.747,6.655A13.032,13.032,0,0,0,10.6,38.992a19.7,19.7,0,0,0,5.667-.2,40.306,40.306,0,0,0,4.2-.981l2.62-.784.682-.2a.985.985,0,0,1,.238-.055" transform="translate(0 20.666)" fill="#1a2e35"/>
        <path id="Fill_190" data-name="Fill 190" d="M15.917,13.041a5.11,5.11,0,0,1-.977.615,19.977,19.977,0,0,1-2.858,1.318,12.284,12.284,0,0,1-4.616.808A8.37,8.37,0,0,1,2.137,13.7,6.439,6.439,0,0,1,.475,11.179,8.326,8.326,0,0,1,0,8.413a12.033,12.033,0,0,1,.965-4.6A25.055,25.055,0,0,1,2.343.982,5.583,5.583,0,0,1,2.951,0a6.178,6.178,0,0,1-.457,1.059c-.311.672-.785,1.634-1.242,2.867A12.244,12.244,0,0,0,.4,8.408a6.828,6.828,0,0,0,2.033,4.978,8.093,8.093,0,0,0,5.05,1.994,12.49,12.49,0,0,0,4.5-.7c2.483-.86,3.9-1.727,3.936-1.642" transform="translate(20.629 57.568)" fill="#1a2e35"/>
        <path id="Fill_192" data-name="Fill 192" d="M1.765,15.785a2.753,2.753,0,0,0,1.053-.42,2.988,2.988,0,0,0,1.135-2.713,2.411,2.411,0,0,0-.946-1.765,1.722,1.722,0,0,0-2.109,0,1.522,1.522,0,0,0-.481,1.071,1.13,1.13,0,0,0,.571,1,2.019,2.019,0,0,0,1.3.2,3.489,3.489,0,0,0,1.329-.514A6.035,6.035,0,0,0,6.16,7.872a11.413,11.413,0,0,0-.868-4.563A9.783,9.783,0,0,0,3.877.5a1.316,1.316,0,0,0-1-.444A.51.51,0,0,1,3.184,0a1.323,1.323,0,0,1,.81.379A3.865,3.865,0,0,1,4.8,1.529c.246.481.514,1.034.776,1.665A11.325,11.325,0,0,1,6.56,7.889a7.077,7.077,0,0,1-.689,2.788,5.61,5.61,0,0,1-2.028,2.337,3.055,3.055,0,0,1-3.073.312A1.554,1.554,0,0,1,0,11.952a1.926,1.926,0,0,1,.628-1.363,1.841,1.841,0,0,1,1.348-.447,2.368,2.368,0,0,1,1.239.45A2.723,2.723,0,0,1,4.26,12.626a3.131,3.131,0,0,1-1.347,2.88,1.889,1.889,0,0,1-.84.3.63.63,0,0,1-.308-.018" transform="translate(39.186 60.175)" fill="#1a2e35"/>
        <path id="Fill_194" data-name="Fill 194" d="M4.373,18.879a1.236,1.236,0,0,1-.37.063,3.213,3.213,0,0,1-1.07-.149A4.367,4.367,0,0,1,.215,16.015,5.75,5.75,0,0,1,1.737,10.5,8.423,8.423,0,0,1,10,8.188l-.262.282a6.67,6.67,0,0,1,1.245-6.333,5.92,5.92,0,0,1,2.327-1.7A6.572,6.572,0,0,1,15.754,0a6.383,6.383,0,0,1,3.385,1,4.31,4.31,0,0,1,.754.593c.155.155.231.24.222.251-.029.031-.351-.3-1.057-.706a6.543,6.543,0,0,0-3.3-.841,6.373,6.373,0,0,0-2.317.47,5.6,5.6,0,0,0-2.161,1.622,6.316,6.316,0,0,0-1.133,5.939l.133.387-.394-.106A8.088,8.088,0,0,0,2.03,10.768,5.465,5.465,0,0,0,.509,15.922a4.265,4.265,0,0,0,2.479,2.711,4.92,4.92,0,0,0,1.385.247" transform="translate(8.147 39.169)" fill="#375a64"/>
        <path id="Fill_196" data-name="Fill 196" d="M0,.35A1.561,1.561,0,0,1,.557.133,4.661,4.661,0,0,1,2.218.03a5.538,5.538,0,0,1,2.39.849,5.239,5.239,0,0,1,2.072,2.46l-.352-.064a4.273,4.273,0,0,1,2.6-1.342,6.045,6.045,0,0,1,4.115.95A9.449,9.449,0,0,1,15.5,5.3a16.732,16.732,0,0,1,1.218,1.964,3.072,3.072,0,0,1,.349.773c-.069.042-.641-1.026-1.81-2.551A9.789,9.789,0,0,0,12.826,3.22,5.764,5.764,0,0,0,8.99,2.364a3.911,3.911,0,0,0-2.348,1.19L6.413,3.8,6.289,3.49A4.961,4.961,0,0,0,4.41,1.181,5.509,5.509,0,0,0,2.181.294,7.609,7.609,0,0,0,0,.35" transform="translate(11.527 32.247)" fill="#375a64"/>
      </g>
    </g>
    <g id="Component_22_1" data-name="Component 22 – 1" transform="translate(189.821 435.079)">
      <g id="Group_15" data-name="Group 15" transform="translate(-189.821 -435.079)">
        <path id="Fill_200" data-name="Fill 200" d="M37.528,6.6l-7.719,28S56.053,49.8,55.128,55.117L0,44.121,10.241,0Z" transform="translate(189.822 785.403)" fill="#da2c2c"/>
        <path id="Fill_204" data-name="Fill 204" d="M0,4.448,1.033,0,53.9,12.479A3.9,3.9,0,0,1,55.328,15.9Z" transform="translate(189.821 825.076)" fill="#fff"/>
        <path id="Fill_206" data-name="Fill 206" d="M5.7.556c-.072.266-1.436.068-2.954.615C1.213,1.679.261,2.678.04,2.513-.193,2.4.584.9,2.435.266,4.278-.38,5.816.325,5.7.556" transform="translate(214.884 819.374)" fill="#1a2e35"/>
        <path id="Fill_208" data-name="Fill 208" d="M4.525.223c0,.274-1.265.454-2.441,1.37C.881,2.473.362,3.644.1,3.569-.162,3.55.025,1.939,1.508.827s3.071-.859,3.017-.6" transform="translate(221.229 823.455)" fill="#1a2e35"/>
        <path id="Fill_210" data-name="Fill 210" d="M.156,4.151c-.255,0-.31-1.428.724-2.731S3.3-.167,3.361.083c.1.256-.9.85-1.731,1.932C.772,3.077.428,4.187.156,4.151" transform="translate(227.219 827.188)" fill="#1a2e35"/>
        <path id="Fill_212" data-name="Fill 212" d="M5.753,1.731c-.17.217-1.307-.444-2.84-.7C1.384.739.09.966.006.7-.1.473,1.278-.244,3.08.085S5.935,1.551,5.753,1.731" transform="translate(215.883 811.624)" fill="#1a2e35"/>
        <path id="Fill_214" data-name="Fill 214" d="M28.181,6.216l-1.37,4.992L0,4.544,1.042,0Z" transform="translate(197.633 791.327)"/>
        <path id="Fill_216" data-name="Fill 216" d="M7.589,6.11c-.023.112-1.117.026-2.736-.668A12.663,12.663,0,0,1,2.2,3.875,13.106,13.106,0,0,1,.825,2.663a3.5,3.5,0,0,1-.674-.842A1.2,1.2,0,0,1,.369.365,1.5,1.5,0,0,1,1.683.034a3.681,3.681,0,0,1,.993.387,10.108,10.108,0,0,1,1.563.992A9.979,9.979,0,0,1,6.37,3.678C7.358,5.16,7.554,6.262,7.449,6.294c-.141.059-.56-.927-1.619-2.206A11.26,11.26,0,0,0,3.716,2.124a10.512,10.512,0,0,0-1.457-.863C1.717.971,1.224.849,1.014,1.073.937,1.157.922,1.2,1,1.393a2.832,2.832,0,0,0,.5.617A14.644,14.644,0,0,0,2.747,3.185,15.67,15.67,0,0,0,5.152,4.834,19.487,19.487,0,0,1,7.589,6.11" transform="translate(215.501 801.566)" fill="#1a2e35"/>
        <path id="Fill_218" data-name="Fill 218" d="M.231,8.228C.127,8.247-.176,7.161.14,5.4A9.1,9.1,0,0,1,2.319.986,2.319,2.319,0,0,1,4.394.017a1.308,1.308,0,0,1,.962,1.037A3.808,3.808,0,0,1,5.4,2.128a6.308,6.308,0,0,1-.439,1.851A6.47,6.47,0,0,1,3.118,6.535C1.713,7.7.523,7.755.523,7.66c-.057-.155.995-.451,2.138-1.62A6.494,6.494,0,0,0,4.139,3.665a5.8,5.8,0,0,0,.326-1.6c.053-.6-.053-1.126-.285-1.117-.27-.07-.837.259-1.17.67A9.4,9.4,0,0,0,1.977,2.946,10.163,10.163,0,0,0,.8,5.56C.339,7.151.386,8.221.231,8.228" transform="translate(222.42 799.75)" fill="#1a2e35"/>
        <path id="Fill_220" data-name="Fill 220" d="M27.746,0l3.425,28.846s30.03,4.114,31.181,9.384L7.173,48.978,0,4.253Z" transform="translate(280.153 790.304)" fill="#da2c2c"/>
        <path id="Fill_222" data-name="Fill 222" d="M1.305.191A2.3,2.3,0,0,0,.14,3.031a2.2,2.2,0,0,0,2.8,1.183A2.433,2.433,0,0,0,4.156,1.2,2.287,2.287,0,0,0,1.109.293" transform="translate(292.471 819.226)" fill="#fff"/>
        <path id="Fill_224" data-name="Fill 224" d="M.723,13.026,0,8.518,53.638,0a3.888,3.888,0,0,1,2.617,2.626Z" transform="translate(286.604 826.256)" fill="#fff"/>
        <path id="Fill_226" data-name="Fill 226" d="M4.6.151c.033.273-1.3.608-2.5,1.691C.874,2.895.369,4.178.1,4.11-.156,4.1,0,2.407,1.471,1.122S4.624-.106,4.6.151" transform="translate(307.576 818.574)" fill="#1a2e35"/>
        <path id="Fill_232" data-name="Fill 232" d="M5.73.629c-.076.264-1.378.084-2.895.427C1.312,1.369.2,2.073.022,1.86-.165,1.688.842.5,2.636.121S5.829.4,5.73.629" transform="translate(304.941 811.609)" fill="#1a2e35"/>
        <path id="Fill_234" data-name="Fill 234" d="M27.465,0l.617,5.139L.75,9.15,0,4.549Z" transform="translate(281.104 796.019)"/>
        <path id="Fill_236" data-name="Fill 236" d="M8.965,3.432c.02.112-1.026.447-2.785.42a12.646,12.646,0,0,1-3.048-.443,13.061,13.061,0,0,1-1.729-.6,3.485,3.485,0,0,1-.943-.525A1.2,1.2,0,0,1,.113.855,1.505,1.505,0,0,1,1.2.05,3.622,3.622,0,0,1,2.27.03,10.043,10.043,0,0,1,4.091.356,9.9,9.9,0,0,1,6.917,1.644c1.474.995,2.072,1.942,1.988,2.009-.109.109-.868-.645-2.333-1.427a11.229,11.229,0,0,0-2.7-1.015A10.535,10.535,0,0,0,2.2.967C1.589.9,1.087.978.977,1.264c-.038.108-.039.15.11.3a2.835,2.835,0,0,0,.692.383,14.893,14.893,0,0,0,1.6.612,15.575,15.575,0,0,0,2.847.615,19.414,19.414,0,0,1,2.738.256" transform="translate(300.908 803)" fill="#1a2e35"/>
        <path id="Fill_238" data-name="Fill 238" d="M1.335,9.2c-.09.057-.779-.833-1.152-2.58A9.247,9.247,0,0,1,.088,3.507,9.349,9.349,0,0,1,.534,1.7,2.335,2.335,0,0,1,2.09.019a1.315,1.315,0,0,1,1.282.6,3.813,3.813,0,0,1,.444.978A6.3,6.3,0,0,1,4.11,3.472a6.488,6.488,0,0,1-.741,3.066c-.862,1.611-1.943,2.114-1.98,2.025A22.969,22.969,0,0,0,2.757,6.252,6.518,6.518,0,0,0,3.23,3.494a5.815,5.815,0,0,0-.3-1.6C2.749,1.312,2.454.869,2.242.964c-.276.038-.677.557-.83,1.064a9.274,9.274,0,0,0-.454,1.62A10.136,10.136,0,0,0,.851,6.515c.177,1.648.625,2.621.484,2.685" transform="translate(308.246 797.677)" fill="#1a2e35"/>
        <path id="Fill_240" data-name="Fill 240" d="M0,9.132C0,10.161,12.622,109.1,12.622,109.1l36.654-6.983L34.52,0Z" transform="translate(266.241 695.765)" fill="#19201f"/>
        <path id="Fill_242" data-name="Fill 242" d="M25.835,0C25.493.97,0,100.847,0,100.847l34.866,8.062L64.744,1.446Z" transform="translate(195.722 694.32)" fill="#19201f"/>
      </g>
      <g id="Group_17" data-name="Group 17" transform="translate(-189.821 -435.079)">
        <path id="Fill_142" data-name="Fill 142" d="M0,0A5.035,5.035,0,0,0,.484.855c.326.552.867,1.327,1.473,2.381a73.21,73.21,0,0,1,4.574,9.2,96.742,96.742,0,0,1,4.6,14.529A159.219,159.219,0,0,1,14.195,45.4c.742,6.6,1.192,12.917,1.4,18.666s.177,10.936.148,15.293c-.019,4.3-.034,7.8-.046,10.322.016,1.162.027,2.095.037,2.807a4.981,4.981,0,0,0,.063.978,5.113,5.113,0,0,0,.082-.977c.023-.711.056-1.644.1-2.8.067-2.518.158-6.022.27-10.319.092-4.357.171-9.553,0-15.322s-.6-12.1-1.349-18.724a152.082,152.082,0,0,0-3.132-18.511A92.5,92.5,0,0,0,6.992,12.243a65.086,65.086,0,0,0-4.8-9.153C1.547,2.054.967,1.3.6.773A5.087,5.087,0,0,0,0,0" transform="translate(294.921 459.521)" fill="#1a2e35"/>
        <path id="Fill_250" data-name="Fill 250" d="M0,0A1.393,1.393,0,0,0,.3.213c.238.149.533.333.9.56L4.679,2.893c1.51.924,3.358,2.054,5.467,3.418,1.046.687,2.181,1.42,3.286,2.29a3.315,3.315,0,0,1,.667.649c.05.293.084.717.126,1.078.087.751.185,1.522.3,2.309a92.415,92.415,0,0,0,2.086,10.192,50.557,50.557,0,0,0,4.224,11.185c2.059,3.812,5.72,6.561,9.1,9.53a22.887,22.887,0,0,1,4.572,5.063A9.886,9.886,0,0,1,36,55.226a35.55,35.55,0,0,1-1.969,6.8,24.263,24.263,0,0,0-1.366,6.9,32.963,32.963,0,0,0,2.3,13.005,62.427,62.427,0,0,0,5.324,10.693c1.943,3.193,3.861,6.089,5.6,8.738,3.5,5.288,6.278,9.593,8.08,12.643.906,1.521,1.583,2.719,2.036,3.535.211.376.381.681.519.925a1.357,1.357,0,0,0,.2.305,1.371,1.371,0,0,0-.133-.338c-.121-.253-.272-.568-.457-.959-.413-.839-1.052-2.061-1.923-3.607-1.734-3.1-4.459-7.455-7.9-12.778-1.714-2.667-3.607-5.578-5.517-8.768a62.442,62.442,0,0,1-5.217-10.615,32.491,32.491,0,0,1-2.223-12.744,23.629,23.629,0,0,1,1.339-6.709A35.792,35.792,0,0,0,36.7,55.312a10.587,10.587,0,0,0-1.593-7.076,23.456,23.456,0,0,0-4.713-5.215c-3.429-2.994-7-5.671-8.991-9.331a50.563,50.563,0,0,1-4.224-11.016,94.514,94.514,0,0,1-2.157-10.113c-.125-.78-.228-1.544-.325-2.291-.052-.387-.071-.711-.149-1.135a2.638,2.638,0,0,0-.836-.889c-1.15-.882-2.29-1.594-3.354-2.27C8.223,4.639,6.352,3.545,4.82,2.656L1.268.65.332.15A1.345,1.345,0,0,0,0,0" transform="translate(240.807 444.592)" fill="#1a2e35"/>
        <path id="Fill_252" data-name="Fill 252" d="M0,11.944a10.84,10.84,0,0,0,3.459-.382,25.754,25.754,0,0,0,7.794-3.154,25.845,25.845,0,0,0,6.375-5.5A10.953,10.953,0,0,0,19.553,0c-.179-.168-3.085,4.441-8.667,7.8C5.351,11.234-.066,11.708,0,11.944" transform="translate(242.474 523.21)" fill="#1a2e35"/>
        <path id="Fill_254" data-name="Fill 254" d="M0,.18A8.8,8.8,0,0,0,2.647.855a38.109,38.109,0,0,0,6.568.508,38.273,38.273,0,0,0,6.56-.611A8.808,8.808,0,0,0,18.413.036C18.371-.178,14.3.63,9.21.655,4.126.709.038-.035,0,.18" transform="translate(240.265 537.363)" fill="#1a2e35"/>
        <g id="Group_16" data-name="Group 16">
          <path id="Fill_138" data-name="Fill 138" d="M7.561,2.528l5.931,3.344,19.07,32.093-.075,16.8s4.482,11.758,4.762,21.186,0,43.975,0,43.975L61.334,280.024l-20.583,6.668L0,100.269V0Z" transform="translate(273.472 440.257)" fill="#e0934a"/>
          <path id="Fill_140" data-name="Fill 140" d="M16.885,243.106l16.287-5.277L9.862,64.152s3.9-25.456,0-36.606S0,0,0,0L6.8,31.094c-.856,23.283.561,51.089,3.06,81.043H3.626Z" transform="translate(297.337 483.844)"/>
          <path id="Fill_198" data-name="Fill 198" d="M0,0,30.752,4.365l1.37,9.756S47.4,40.919,48.757,48.764s8.162,27.282,6.8,41.947,3.06,70.191,3.06,70.191H50.8L20.531,86.959Z" transform="translate(248.581 435.079)" fill="#f1f1f1"/>
          <path id="Fill_244" data-name="Fill 244" d="M50.575,2.453,43.4,0,30.87,17.174,27.5,72.34l8.658,28.418s-24.4,54.073-24.8,67.494S0,306.642,0,306.642l112.907,9.226L92.048,111.416s-2.756-50.128-5.9-57.627S50.575,2.453,50.575,2.453" transform="translate(203.835 435.781)" fill="#e0934a"/>
          <path id="Fill_246" data-name="Fill 246" d="M0,37.8c-.01.023.143.1.443.225a7.107,7.107,0,0,0,1.377.368,9.629,9.629,0,0,0,5.157-.754A13.711,13.711,0,0,0,12.8,32.555a37.071,37.071,0,0,0,4-8.587,54.846,54.846,0,0,0,2.9-16.886,49.337,49.337,0,0,0-.224-5.2A9.3,9.3,0,0,0,19.185,0a10.426,10.426,0,0,0,.022,1.9c.031,1.222.082,2.989,0,5.166a59.509,59.509,0,0,1-3.07,16.67,38.3,38.3,0,0,1-3.874,8.451,13.493,13.493,0,0,1-5.488,4.992,9.859,9.859,0,0,1-4.921.938C.657,38,.024,37.737,0,37.8" transform="translate(244.716 578.1)" fill="#1a2e35"/>
          <path id="Fill_248" data-name="Fill 248" d="M0,158.819s.188.035.559.078c.4.04.942.094,1.647.166,1.481.134,3.619.328,6.372.579l23.714,2.043c20.2,1.68,48.416,4.03,80.588,6.7l.414.035-.042-.414c-.9-8.88-1.841-18.088-2.8-27.512-4-38.8-7.62-73.918-10.244-99.37-1.341-12.689-2.428-22.966-3.184-30.1l-.9-8.181q-.163-1.368-.251-2.125C95.811.243,95.762,0,95.762,0s0,.248.038.729c.042.508.1,1.218.182,2.134.179,1.9.436,4.658.769,8.193.7,7.142,1.712,17.429,2.961,30.129,2.571,25.454,6.117,60.581,10.036,99.384.964,9.422,1.905,18.629,2.813,27.509l.374-.38-80.608-6.465L8.6,159.4l-6.38-.462-1.654-.1c-.371-.02-.563-.014-.563-.014" transform="translate(203.836 583.604)" fill="#1a2e35"/>
          <path id="Fill_260" data-name="Fill 260" d="M.069,68.748C.392,60.3,16.447,26.9,16.447,26.9s7.443-16.6,9.2-19.957c3.815-7.3,14.469-8.062,18.308-5.851L40.977,42.3,32.16,72.324l17.181,32.507L27.947,125.96C-.581,122.384-.256,77.2.069,68.748" transform="translate(197.897 453.386)" fill="#005635"/>
        </g>
        <path id="Fill_262" data-name="Fill 262" d="M0,4.525a10.747,10.747,0,0,0,3.9-.571c2.375-.59,5.464-1.977,9.007-2.82A15.178,15.178,0,0,1,17.964.758a10.176,10.176,0,0,1,3.9,1.269A10.521,10.521,0,0,1,24.676,4.62a2.3,2.3,0,0,0-.45-.974,7.2,7.2,0,0,0-2.1-2.046A10.044,10.044,0,0,0,18.046.109a14.943,14.943,0,0,0-5.292.331C9.093,1.315,6.061,2.774,3.76,3.473,1.475,4.231-.012,4.414,0,4.525" transform="translate(204.948 522.192)" fill="#1a2e35"/>
        <path id="Fill_264" data-name="Fill 264" d="M0,.066A17.1,17.1,0,0,0,3.138.629a20.851,20.851,0,0,1,7.179,2.213,9.673,9.673,0,0,1,4.5,5.687,11.455,11.455,0,0,1,.186,3.1c.038.012.179-.268.3-.82a6,6,0,0,0,0-2.394,9.583,9.583,0,0,0-4.637-6.191A18.387,18.387,0,0,0,3.2.131,12.267,12.267,0,0,0,0,.066" transform="translate(214.949 513.86)" fill="#1a2e35"/>
        <path id="Fill_266" data-name="Fill 266" d="M0,30.525a7.6,7.6,0,0,0,1.56-.611A38.072,38.072,0,0,0,5.614,27.8a50.317,50.317,0,0,0,5.6-3.836,56.665,56.665,0,0,0,6.1-5.661,56.815,56.815,0,0,0,5.126-6.559,50.7,50.7,0,0,0,3.354-5.912,38.258,38.258,0,0,0,1.767-4.223A7.648,7.648,0,0,0,28.034,0c-.124-.049-.93,2.2-2.693,5.607a57.712,57.712,0,0,1-3.448,5.77,61.542,61.542,0,0,1-5.1,6.446,62.168,62.168,0,0,1-5.985,5.63,57.946,57.946,0,0,1-5.452,3.919C2.114,29.415-.056,30.4,0,30.525" transform="translate(223.158 549.168)" fill="#1a2e35"/>
        <path id="Fill_268" data-name="Fill 268" d="M.012,30.663A28.925,28.925,0,0,0,1.705,26.3c.946-2.73,2.178-6.529,3.408-10.766S7.33,7.423,7.969,4.6A27.6,27.6,0,0,0,8.829,0,34.063,34.063,0,0,0,7.485,4.481C6.721,7.264,5.66,11.106,4.434,15.334c-1.223,4.124-2.328,7.852-3.2,10.81A32.319,32.319,0,0,0,.012,30.663" transform="translate(230.045 495.047)" fill="#1a2e35"/>
        <path id="Fill_270" data-name="Fill 270" d="M17.186,32.508c.173-.091-3.533-7.444-8.277-16.419S.178-.09.006,0s3.533,7.442,8.277,16.42,8.73,16.178,8.9,16.086" transform="translate(230.051 525.709)" fill="#1a2e35"/>
        <path id="Fill_272" data-name="Fill 272" d="M5.368,58.59c.194-.019-.844-13.148-2.32-29.326S.219-.018.023,0s.844,13.146,2.32,29.327S5.172,58.607,5.368,58.59" transform="translate(253.295 667.802)" fill="#1a2e35"/>
      </g>
      <path id="Fill_274" data-name="Fill 274" d="M.023,25.517c.192.038,1.51-5.642,2.945-12.688S5.413.04,5.22,0,3.71,5.641,2.275,12.688-.168,25.478.023,25.517" transform="translate(56.138 271.133)" fill="#1a2e35"/>
      <path id="Fill_276" data-name="Fill 276" d="M0,2.124c.008.2,11.933-.106,26.636-.677S53.254.255,53.246.059,41.314.167,26.607.736-.008,1.928,0,2.124" transform="translate(66.851 260.555)" fill="#fafafa"/>
      <path id="Fill_278" data-name="Fill 278" d="M0,1.338c.005.2,10.983.076,24.518-.267S49.025.29,49.019.095,38.039.017,24.5.36s-24.5.781-24.5.977" transform="translate(17.537 267.083)" fill="#fafafa"/>
      <path id="Fill_280" data-name="Fill 280" d="M0,2.54c.01.2,12-.2,26.776-.89S53.53.245,53.52.05s-11.994.2-26.777.89S-.008,2.344,0,2.54" transform="translate(65.718 245.829)" fill="#fafafa"/>
      <path id="Fill_282" data-name="Fill 282" d="M0,1.583c.005.2,10.542.019,23.529-.4S47.045.276,47.038.08,36.5.062,23.507.476-.007,1.387,0,1.583" transform="translate(18.669 253.098)" fill="#fafafa"/>
    </g>
  </g>
</svg>
