<?xml version="1.0" encoding="utf-8"?>
<!-- Generator: Adobe Illustrator 23.0.1, SVG Export Plug-In . SVG Version: 6.00 Build 0)  -->
<svg version="1.1" id="Layer_1" xmlns="http://www.w3.org/2000/svg" xmlns:xlink="http://www.w3.org/1999/xlink" x="0px" y="0px"
	 viewBox="0 0 3000 2000" style="enable-background:new 0 0 3000 2000;" xml:space="preserve">
<style type="text/css">
	.st0{fill:#A53D38;}
	.st1{fill:#35488B;}
	.st2{fill:#F1A34F;}
	.st3{fill:#FFFFFF;}
	.st4{fill:#699FF0;}
	.st5{fill:#466AA5;}
	.st6{fill:#B64C41;}
	.st7{fill:#82B378;}
	.st8{fill:#283250;}
</style>
<g>
	<g>
		<g>
			
				<rect x="730.93" y="1581.35" transform="matrix(-1 -1.224647e-16 1.224647e-16 -1 1495.3201 3316.1353)" class="st0" width="33.46" height="153.44"/>
			
				<rect x="563.88" y="1534.46" transform="matrix(-1 -1.224647e-16 1.224647e-16 -1 1161.223 3269.2502)" class="st1" width="33.46" height="200.33"/>
			
				<rect x="697.47" y="1581.35" transform="matrix(-1 -1.224647e-16 1.224647e-16 -1 1428.4055 3316.1353)" class="st1" width="33.46" height="153.44"/>
			
				<rect x="597.34" y="1560.3" transform="matrix(-1 -1.224647e-16 1.224647e-16 -1 1228.1375 3295.0916)" class="st2" width="33.46" height="174.49"/>
			
				<rect x="831.23" y="1548.23" transform="matrix(-1 -1.224647e-16 1.224647e-16 -1 1695.9075 3283.0225)" class="st2" width="33.46" height="186.56"/>
			
				<rect x="764.34" y="1548.23" transform="matrix(-1 -1.224647e-16 1.224647e-16 -1 1562.1299 3283.0225)" class="st2" width="33.46" height="186.56"/>
			
				<rect x="797.77" y="1601.99" transform="matrix(-1 -1.224647e-16 1.224647e-16 -1 1628.9929 3336.7754)" class="st0" width="33.46" height="132.8"/>
			
				<rect x="864.67" y="1560.19" transform="matrix(-1 -1.224647e-16 1.224647e-16 -1 1762.7882 3294.8596)" class="st0" width="33.46" height="174.49"/>
			
				<rect x="530.43" y="1581.35" transform="matrix(-1 -1.224647e-16 1.224647e-16 -1 1094.3085 3316.1475)" class="st0" width="33.46" height="153.44"/>
			
				<rect x="664.25" y="1616.38" transform="matrix(-1 -1.224647e-16 1.224647e-16 -1 1361.9664 3351.1687)" class="st2" width="33.46" height="118.41"/>
			
				<rect x="630.8" y="1536.78" transform="matrix(-1 -1.224647e-16 1.224647e-16 -1 1295.052 3271.5723)" class="st0" width="33.46" height="198.01"/>
			<polygon class="st2" points="450.14,1724.17 482,1734.67 533.96,1568.54 502.1,1558.04 			"/>
			
				<rect x="567.79" y="1700.76" transform="matrix(-1 -1.224647e-16 1.224647e-16 -1 1160.8798 3430.7661)" class="st0" width="25.3" height="29.24"/>
			
				<rect x="635.45" y="1547.33" transform="matrix(-1 -1.224647e-16 1.224647e-16 -1 1296.4252 3101.6155)" class="st2" width="25.53" height="6.96"/>
			
				<rect x="635.45" y="1559.05" transform="matrix(-1 -1.224647e-16 1.224647e-16 -1 1296.4252 3125.0576)" class="st2" width="25.53" height="6.96"/>
			
				<rect x="600.17" y="1577.03" transform="matrix(-1 -1.224647e-16 1.224647e-16 -1 1228.3043 3157.5513)" class="st3" width="27.97" height="3.48"/>
			<path class="st1" d="M881.47,1598.89L881.47,1598.89c6.83,0,12.36-5.53,12.36-12.36v-18.97h-24.72v18.97
				C869.11,1593.36,874.65,1598.89,881.47,1598.89z"/>
			
				<rect x="767.45" y="1553.63" transform="matrix(-1 -1.224647e-16 1.224647e-16 -1 1563.2224 3111.093)" class="st1" width="28.32" height="3.83"/>
			
				<rect x="800.57" y="1725.46" transform="matrix(-1 -1.224647e-16 1.224647e-16 -1 1629.2931 3456.9583)" class="st1" width="28.16" height="6.03"/>
			
				<rect x="800.57" y="1717.42" transform="matrix(-1 -1.224647e-16 1.224647e-16 -1 1629.2931 3440.866)" class="st3" width="28.16" height="6.03"/>
			<path class="st3" d="M814.65,1712L814.65,1712c6.73,0,12.19-5.46,12.19-12.19l0,0c0-6.73-5.46-12.19-12.19-12.19l0,0
				c-6.73,0-12.19,5.46-12.19,12.19l0,0C802.46,1706.54,807.92,1712,814.65,1712z"/>
			
				<rect x="835.64" y="1606.35" transform="matrix(-1 -1.224647e-16 1.224647e-16 -1 1695.8737 3271.4175)" class="st0" width="24.6" height="58.72"/>
			
				<rect x="734.8" y="1593.78" transform="matrix(-1 -1.224647e-16 1.224647e-16 -1 1495.9138 3193.604)" class="st3" width="26.3" height="6.03"/>
			
				<rect x="734.51" y="1624.27" transform="matrix(-1 -1.224647e-16 1.224647e-16 -1 1495.3201 3254.5684)" class="st3" width="26.3" height="6.03"/>
			<path class="st3" d="M538.52,1606.47h18.42c2.52,0,4.56-2.04,4.56-4.56l0,0c0-2.52-2.04-4.56-4.56-4.56h-18.42
				c-2.52,0-4.56,2.04-4.56,4.56l0,0C533.96,1604.43,536,1606.47,538.52,1606.47z"/>
		</g>
		<g>
			
				<rect x="2206.91" y="1335.23" transform="matrix(-1 -1.224647e-16 1.224647e-16 -1 4447.2759 2823.9019)" class="st0" width="33.46" height="153.44"/>
			
				<rect x="2039.77" y="1288.48" transform="matrix(-1 -1.224647e-16 1.224647e-16 -1 4112.9878 2777.2815)" class="st1" width="33.46" height="200.33"/>
			
				<rect x="2173.45" y="1335.31" transform="matrix(-1 -1.224647e-16 1.224647e-16 -1 4380.3613 2824.0581)" class="st1" width="33.46" height="153.44"/>
			
				<rect x="2073.22" y="1314.19" transform="matrix(-1 -1.224647e-16 1.224647e-16 -1 4179.9023 2802.8582)" class="st2" width="33.46" height="174.49"/>
			
				<rect x="2307.17" y="1302.18" transform="matrix(-1 -1.224647e-16 1.224647e-16 -1 4647.793 2790.9199)" class="st2" width="33.46" height="186.56"/>
			
				<rect x="2240.25" y="1302.12" transform="matrix(-1 -1.224647e-16 1.224647e-16 -1 4513.9644 2790.7891)" class="st2" width="33.46" height="186.56"/>
			
				<rect x="2273.71" y="1355.87" transform="matrix(-1 -1.224647e-16 1.224647e-16 -1 4580.8789 2844.542)" class="st0" width="33.46" height="132.8"/>
			
				<rect x="2340.63" y="1314.19" transform="matrix(-1 -1.224647e-16 1.224647e-16 -1 4714.7075 2802.8582)" class="st0" width="33.46" height="174.49"/>
			
				<rect x="2006.31" y="1335.36" transform="matrix(-1 -1.224647e-16 1.224647e-16 -1 4046.0735 2824.1663)" class="st0" width="33.46" height="153.44"/>
			
				<rect x="2139.99" y="1370.34" transform="matrix(-1 -1.224647e-16 1.224647e-16 -1 4313.4468 2859.0918)" class="st2" width="33.46" height="118.41"/>
			
				<rect x="2106.54" y="1290.67" transform="matrix(-1 -1.224647e-16 1.224647e-16 -1 4246.5322 2779.3389)" class="st0" width="33.46" height="198.01"/>
			<polygon class="st2" points="1926.12,1477.89 1957.98,1488.39 2009.93,1322.26 1978.08,1311.76 			"/>
			
				<rect x="2043.77" y="1454.48" transform="matrix(-1 -1.224647e-16 1.224647e-16 -1 4112.8354 2938.1997)" class="st0" width="25.3" height="29.24"/>
			
				<rect x="2111.43" y="1301.04" transform="matrix(-1 -1.224647e-16 1.224647e-16 -1 4248.3809 2609.0493)" class="st2" width="25.53" height="6.96"/>
			
				<rect x="2111.43" y="1312.76" transform="matrix(-1 -1.224647e-16 1.224647e-16 -1 4248.3809 2632.4912)" class="st2" width="25.53" height="6.96"/>
			
				<rect x="2076.15" y="1330.75" transform="matrix(-1 -1.224647e-16 1.224647e-16 -1 4180.2598 2664.9851)" class="st3" width="27.97" height="3.48"/>
			<path class="st1" d="M2357.45,1352.61L2357.45,1352.61c6.83,0,12.36-5.53,12.36-12.36v-18.97h-24.72v18.97
				C2345.09,1347.07,2350.62,1352.61,2357.45,1352.61z"/>
			
				<rect x="2243.43" y="1307.35" transform="matrix(-1 -1.224647e-16 1.224647e-16 -1 4515.1782 2618.5266)" class="st1" width="28.32" height="3.83"/>
			
				<rect x="2276.54" y="1479.18" transform="matrix(-1 -1.224647e-16 1.224647e-16 -1 4581.2485 2964.3918)" class="st1" width="28.16" height="6.03"/>
			
				<rect x="2276.54" y="1471.13" transform="matrix(-1 -1.224647e-16 1.224647e-16 -1 4581.2485 2948.2998)" class="st3" width="28.16" height="6.03"/>
			<path class="st3" d="M2290.62,1465.72L2290.62,1465.72c6.73,0,12.19-5.46,12.19-12.19l0,0c0-6.73-5.46-12.19-12.19-12.19l0,0
				c-6.73,0-12.19,5.46-12.19,12.19l0,0C2278.44,1460.26,2283.89,1465.72,2290.62,1465.72z"/>
			
				<rect x="2311.61" y="1360.07" transform="matrix(-1 -1.224647e-16 1.224647e-16 -1 4647.8291 2778.8513)" class="st0" width="24.6" height="58.72"/>
			
				<rect x="2210.78" y="1347.5" transform="matrix(-1 -1.224647e-16 1.224647e-16 -1 4447.8696 2701.0376)" class="st3" width="26.3" height="6.03"/>
			
				<rect x="2210.49" y="1377.98" transform="matrix(-1 -1.224647e-16 1.224647e-16 -1 4447.2759 2762.0022)" class="st3" width="26.3" height="6.03"/>
			<path class="st3" d="M2014.5,1360.19h18.42c2.52,0,4.56-2.04,4.56-4.56l0,0c0-2.52-2.04-4.56-4.56-4.56h-18.42
				c-2.52,0-4.56,2.04-4.56,4.56l0,0C2009.93,1358.15,2011.98,1360.19,2014.5,1360.19z"/>
		</g>
		<g>
			<g>
				<rect x="578.18" y="1101.93" class="st0" width="32.03" height="141.84"/>
				<rect x="834.22" y="1101.97" class="st2" width="32.03" height="141.84"/>
				<rect x="738.12" y="1096.87" class="st1" width="32.03" height="146.9"/>
				<rect x="610.21" y="1096.87" class="st2" width="32.03" height="146.9"/>
				<rect x="706.09" y="1116.66" class="st0" width="32.03" height="127.11"/>
				<rect x="482.17" y="1051.81" class="st1" width="32.03" height="191.96"/>
				<rect x="802.18" y="1051.81" class="st1" width="32.03" height="191.96"/>
				<rect x="546.22" y="1065.16" class="st1" width="32.03" height="178.6"/>
				<rect x="514.19" y="1112.26" class="st0" width="32.03" height="131.51"/>
				<rect x="450.14" y="1076.72" class="st2" width="32.03" height="167.05"/>
				<rect x="866.09" y="1076.46" class="st1" width="32.03" height="167.05"/>
				<rect x="770.15" y="1071.07" class="st2" width="32.03" height="172.69"/>
				<rect x="642.03" y="1065.16" class="st1" width="32.03" height="178.6"/>
				<rect x="674.07" y="1054.2" class="st2" width="32.03" height="189.57"/>
				<rect x="742.17" y="1105.15" class="st2" width="24.22" height="28"/>
				<rect x="677.18" y="1064.15" class="st2" width="24.44" height="6.67"/>
				<rect x="677.18" y="1075.37" class="st2" width="24.44" height="6.67"/>
				<path class="st1" d="M466.08,1113.52L466.08,1113.52c-6.53,0-11.83-5.3-11.83-11.83v-18.17h23.66v18.17
					C477.92,1108.22,472.62,1113.52,466.08,1113.52z"/>
				<rect x="548.13" y="1070.19" class="st1" width="27.11" height="3.67"/>
				<rect x="516.58" y="1234.69" class="st1" width="26.96" height="5.78"/>
				<rect x="516.58" y="1226.99" class="st1" width="26.96" height="5.78"/>
				<path class="st1" d="M530.06,1221.81L530.06,1221.81c-6.44,0-11.67-5.22-11.67-11.67v0c0-6.44,5.22-11.67,11.67-11.67l0,0
					c6.44,0,11.67,5.22,11.67,11.67v0C541.73,1216.58,536.5,1221.81,530.06,1221.81z"/>
				<rect x="486.41" y="1120.66" class="st0" width="23.55" height="56.22"/>
				<rect x="581.32" y="1108.63" class="st3" width="25.18" height="5.78"/>
				<rect x="581.6" y="1137.81" class="st3" width="25.18" height="5.78"/>
				<path class="st3" d="M794.42,1087h-17.63c-2.41,0-4.37-1.96-4.37-4.37l0,0c0-2.41,1.96-4.37,4.37-4.37h17.63
					c2.41,0,4.37,1.96,4.37,4.37l0,0C798.79,1085.04,796.83,1087,794.42,1087z"/>
			</g>
			<rect x="645.72" y="1218.7" class="st3" width="24.66" height="21.77"/>
			<rect x="708.85" y="1232.77" class="st0" width="26.12" height="4.81"/>
			<rect x="870.78" y="1148.73" class="st0" width="23.04" height="7.51"/>
			<rect x="870.78" y="1160.95" class="st0" width="23.04" height="7.51"/>
		</g>
		<g>
			
				<rect x="864.9" y="1316.03" transform="matrix(-1 -1.224647e-16 1.224647e-16 -1 1763.0269 2805.3076)" class="st0" width="33.22" height="173.24"/>
			
				<rect x="649.44" y="1316.03" transform="matrix(-1 -1.224647e-16 1.224647e-16 -1 1332.1044 2805.3076)" class="st0" width="33.22" height="173.24"/>
			
				<rect x="831.69" y="1292.68" transform="matrix(-1 -1.224647e-16 1.224647e-16 -1 1696.5898 2781.9561)" class="st1" width="33.22" height="196.59"/>
			
				<rect x="798.47" y="1336.93" transform="matrix(-1 -1.224647e-16 1.224647e-16 -1 1630.1527 2826.2009)" class="st2" width="33.22" height="152.35"/>
			
				<rect x="483.36" y="1336.93" transform="matrix(-1 -1.224647e-16 1.224647e-16 -1 999.9303 2826.2009)" class="st0" width="33.22" height="152.35"/>
			
				<rect x="450.14" y="1316.03" transform="matrix(-1 -1.224647e-16 1.224647e-16 -1 933.504 2805.3076)" class="st1" width="33.22" height="173.24"/>
			
				<rect x="616.22" y="1304.05" transform="matrix(-1 -1.224647e-16 1.224647e-16 -1 1265.6672 2793.3247)" class="st2" width="33.22" height="185.23"/>
			
				<rect x="516.57" y="1304.05" transform="matrix(-1 -1.224647e-16 1.224647e-16 -1 1066.3673 2793.3247)" class="st2" width="33.22" height="185.23"/>
			
				<rect x="583.01" y="1292.68" transform="matrix(-1 -1.224647e-16 1.224647e-16 -1 1199.2302 2781.9561)" class="st0" width="33.22" height="196.59"/>
			
				<rect x="549.79" y="1336.93" transform="matrix(-1 -1.224647e-16 1.224647e-16 -1 1132.7932 2826.2009)" class="st1" width="33.22" height="152.35"/>
			
				<rect x="765.25" y="1316.03" transform="matrix(-1 -1.224647e-16 1.224647e-16 -1 1563.7157 2805.3076)" class="st0" width="33.22" height="173.24"/>
			<path class="st2" d="M682.66,1478.85l31.63,10.43l50.97-162.96c0.35-1.1-0.26-2.28-1.36-2.64l-27.61-9.1
				c-1.12-0.37-2.33,0.25-2.68,1.38L682.66,1478.85z"/>
			
				<rect x="867.61" y="1329.86" transform="matrix(-1 -1.224647e-16 1.224647e-16 -1 1763.0269 2667.3989)" class="st2" width="27.81" height="7.68"/>
			
				<rect x="867.61" y="1340.15" transform="matrix(-1 -1.224647e-16 1.224647e-16 -1 1763.0269 2683.5298)" class="st2" width="27.81" height="3.23"/>
			
				<rect x="767.95" y="1469.97" transform="matrix(-1 -1.224647e-16 1.224647e-16 -1 1563.7157 2947.6167)" class="st2" width="27.81" height="7.68"/>
			
				<rect x="767.95" y="1480.26" transform="matrix(-1 -1.224647e-16 1.224647e-16 -1 1563.7157 2963.7478)" class="st2" width="27.81" height="3.23"/>
			
				<rect x="653.85" y="1323.41" transform="matrix(-1 -1.224647e-16 1.224647e-16 -1 1331.6704 2745.4421)" class="st2" width="23.97" height="98.63"/>
			<path class="st2" d="M497.92,1363.35h3.38c3.99,0,7.22-3.23,7.22-7.22l0,0c0-3.99-3.23-7.22-7.22-7.22h-3.38
				c-3.99,0-7.22,3.23-7.22,7.22l0,0C490.7,1360.12,493.93,1363.35,497.92,1363.35z"/>
			
				<rect x="586.26" y="1304.05" transform="matrix(-1 -1.224647e-16 1.224647e-16 -1 1199.3964 2611.3247)" class="st2" width="26.89" height="3.23"/>
			
				<rect x="586.26" y="1310.04" transform="matrix(-1 -1.224647e-16 1.224647e-16 -1 1199.3964 2623.3076)" class="st2" width="26.89" height="3.23"/>
			
				<rect x="586.26" y="1316.03" transform="matrix(-1 -1.224647e-16 1.224647e-16 -1 1199.3964 2635.2905)" class="st2" width="26.89" height="3.23"/>
			
				<rect x="800.5" y="1347.83" transform="matrix(-1 -1.224647e-16 1.224647e-16 -1 1630.1527 2726.5457)" class="st3" width="29.15" height="30.88"/>
			
				<rect x="800.5" y="1382" transform="matrix(-1 -1.224647e-16 1.224647e-16 -1 1630.1527 2768.1406)" class="st3" width="29.15" height="4.15"/>
			
				<rect x="453.37" y="1480.11" transform="matrix(-1 -1.224647e-16 1.224647e-16 -1 934.1572 2965.0537)" class="st3" width="27.42" height="4.84"/>
			
				<rect x="453.37" y="1472.04" transform="matrix(-1 -1.224647e-16 1.224647e-16 -1 934.1572 2948.9226)" class="st3" width="27.42" height="4.84"/>
			
				<rect x="453.37" y="1441.85" transform="matrix(-1 -1.224647e-16 1.224647e-16 -1 934.1572 2909.9778)" class="st3" width="27.42" height="26.27"/>
			<path class="st0" d="M565.82,1427.86h1.15c7.25,0,13.14-5.88,13.14-13.14l0,0c0-7.25-5.88-13.14-13.14-13.14h-1.15
				c-7.25,0-13.14,5.88-13.14,13.14l0,0C552.69,1421.98,558.57,1427.86,565.82,1427.86z"/>
			
				<rect x="834.98" y="1469.97" transform="matrix(-1 -1.224647e-16 1.224647e-16 -1 1696.9215 2954.9143)" class="st2" width="26.96" height="14.98"/>
			
				<rect x="729.97" y="1334.99" transform="matrix(-0.9536 -0.3011 0.3011 -0.9536 1051.1038 2837.7571)" class="st0" width="28.57" height="5.76"/>
			
				<rect x="618.36" y="1323.41" transform="matrix(-1 -1.224647e-16 1.224647e-16 -1 1265.9941 2651.1912)" class="st0" width="29.27" height="4.38"/>
			
				<rect x="618.2" y="1317.41" transform="matrix(-1 -1.224647e-16 1.224647e-16 -1 1265.6674 2639.2083)" class="st0" width="29.27" height="4.38"/>
			<path class="st0" d="M633,1356.01L633,1356.01c8.08,0,14.63-6.55,14.63-14.63v-11.98h-29.27v11.98
				C618.36,1349.46,624.92,1356.01,633,1356.01z"/>
		</g>
		<g>
			<path class="st4" d="M910.11,767.95v979.27H438.16V767.95H910.11z M450.14,1734.79h447.98V779.46H450.14V1734.79z"/>
			
				<rect x="366.26" y="767.95" transform="matrix(-1 -1.224647e-16 1.224647e-16 -1 804.4214 2514.9233)" class="st5" width="71.9" height="979.02"/>
			
				<rect x="443.69" y="998.25" transform="matrix(-1 -1.224647e-16 1.224647e-16 -1 1348.2654 2023.2246)" class="st4" width="460.88" height="26.73"/>
			
				<rect x="443.69" y="1243.76" transform="matrix(-1 -1.224647e-16 1.224647e-16 -1 1348.2654 2514.2534)" class="st4" width="460.88" height="26.73"/>
			
				<rect x="443.69" y="1489.28" transform="matrix(-1 -1.224647e-16 1.224647e-16 -1 1348.2654 3005.2822)" class="st4" width="460.88" height="26.73"/>
		</g>
		<g>
			<rect x="582.92" y="846" class="st1" width="33.22" height="152.35"/>
			<rect x="748.8" y="846" class="st1" width="33.22" height="152.35"/>
			<rect x="616.14" y="846" class="st0" width="33.22" height="152.35"/>
			<rect x="715.58" y="825.1" class="st1" width="33.22" height="173.24"/>
			<rect x="483.36" y="813.2" class="st2" width="33.22" height="185.23"/>
			<rect x="549.78" y="813.2" class="st2" width="33.22" height="185.23"/>
			<rect x="516.56" y="801.79" class="st0" width="33.22" height="196.59"/>
			<rect x="450.14" y="825.1" class="st0" width="33.22" height="173.24"/>
			<rect x="782.02" y="846" class="st0" width="33.22" height="152.35"/>
			<rect x="649.15" y="813.12" class="st2" width="33.22" height="185.23"/>
			<rect x="682.37" y="801.75" class="st0" width="33.22" height="196.59"/>
			<polygon class="st2" points="894.93,987.92 863.3,998.35 811.71,833.4 843.34,822.97 			"/>
			<rect x="753" y="854.85" class="st2" width="25.12" height="29.04"/>
			<rect x="685.6" y="812.34" class="st2" width="25.35" height="6.91"/>
			<rect x="685.6" y="823.97" class="st2" width="25.35" height="6.91"/>
			<rect x="718.2" y="841.83" class="st3" width="27.77" height="3.46"/>
			<path class="st1" d="M466.68,863.53L466.68,863.53c-6.78,0-12.27-5.49-12.27-12.27v-18.84h24.54v18.84
				C478.95,858.04,473.45,863.53,466.68,863.53z"/>
			<rect x="551.77" y="818.6" class="st1" width="28.11" height="3.8"/>
			<rect x="519.04" y="989.2" class="st1" width="27.96" height="5.99"/>
			<rect x="519.04" y="981.21" class="st1" width="27.96" height="5.99"/>
			<path class="st1" d="M533.02,975.84L533.02,975.84c-6.68,0-12.1-5.42-12.1-12.1l0,0c0-6.68,5.42-12.1,12.1-12.1h0
				c6.68,0,12.1,5.42,12.1,12.1l0,0C545.12,970.42,539.71,975.84,533.02,975.84z"/>
			<rect x="487.76" y="870.94" class="st0" width="24.43" height="58.3"/>
			<rect x="586.18" y="858.46" class="st3" width="26.12" height="5.99"/>
			<rect x="586.47" y="888.73" class="st3" width="26.12" height="5.99"/>
			<path class="st3" d="M807.18,871.06h-18.29c-2.5,0-4.53-2.03-4.53-4.53l0,0c0-2.5,2.03-4.53,4.53-4.53h18.29
				c2.5,0,4.53,2.03,4.53,4.53l0,0C811.71,869.03,809.68,871.06,807.18,871.06z"/>
		</g>
		<g>
			
				<rect x="2682.7" y="1372.59" transform="matrix(-1 -1.224647e-16 1.224647e-16 -1 5391.8643 2883.1919)" class="st0" width="26.46" height="138.01"/>
			
				<rect x="2511.06" y="1372.59" transform="matrix(-1 -1.224647e-16 1.224647e-16 -1 5048.5762 2883.1919)" class="st0" width="26.46" height="138.01"/>
			
				<rect x="2656.24" y="1353.99" transform="matrix(-1 -1.224647e-16 1.224647e-16 -1 5338.9385 2864.5894)" class="st2" width="26.46" height="156.61"/>
			
				<rect x="2629.77" y="1389.23" transform="matrix(-1 -1.224647e-16 1.224647e-16 -1 5286.0122 2899.8364)" class="st1" width="26.46" height="121.37"/>
			
				<rect x="2484.59" y="1363.04" transform="matrix(-1 -1.224647e-16 1.224647e-16 -1 4995.6499 2873.6458)" class="st2" width="26.46" height="147.56"/>
			
				<rect x="2457.26" y="1353.99" transform="matrix(-1 -1.224647e-16 1.224647e-16 -1 4941.8574 2864.5894)" class="st0" width="27.33" height="156.61"/>
			
				<rect x="2603.31" y="1372.59" transform="matrix(-1 -1.224647e-16 1.224647e-16 -1 5233.0859 2883.1919)" class="st0" width="26.46" height="138.01"/>
			<path class="st2" d="M2537.61,1502.29l25.2,8.31l40.43-129.29c0.37-1.17-0.28-2.42-1.44-2.81l-20.92-6.9
				c-1.19-0.39-2.48,0.27-2.85,1.47L2537.61,1502.29z"/>
			
				<rect x="2684.86" y="1383.6" transform="matrix(-1 -1.224647e-16 1.224647e-16 -1 5391.8643 2773.3289)" class="st2" width="22.15" height="6.12"/>
			
				<rect x="2684.86" y="1391.8" transform="matrix(-1 -1.224647e-16 1.224647e-16 -1 5391.8643 2786.1794)" class="st2" width="22.15" height="2.57"/>
			
				<rect x="2605.47" y="1495.22" transform="matrix(-1 -1.224647e-16 1.224647e-16 -1 5233.0859 2996.5605)" class="st2" width="22.15" height="6.12"/>
			
				<rect x="2605.47" y="1503.42" transform="matrix(-1 -1.224647e-16 1.224647e-16 -1 5233.0859 3009.4111)" class="st2" width="22.15" height="2.57"/>
			
				<rect x="2514.57" y="1378.46" transform="matrix(-1 -1.224647e-16 1.224647e-16 -1 5048.2305 2835.501)" class="st2" width="19.09" height="78.57"/>
			
				<rect x="2460.72" y="1363.04" transform="matrix(-1 -1.224647e-16 1.224647e-16 -1 4942.8564 2728.6582)" class="st2" width="21.42" height="2.57"/>
			
				<rect x="2460.72" y="1367.82" transform="matrix(-1 -1.224647e-16 1.224647e-16 -1 4942.8564 2738.2043)" class="st2" width="21.42" height="2.57"/>
			
				<rect x="2460.72" y="1372.59" transform="matrix(-1 -1.224647e-16 1.224647e-16 -1 4942.8564 2747.7502)" class="st2" width="21.42" height="2.57"/>
			
				<rect x="2631.39" y="1397.92" transform="matrix(-1 -1.224647e-16 1.224647e-16 -1 5286.0122 2820.4475)" class="st3" width="23.22" height="24.6"/>
			
				<rect x="2631.39" y="1425.14" transform="matrix(-1 -1.224647e-16 1.224647e-16 -1 5286.0122 2853.5835)" class="st3" width="23.22" height="3.3"/>
			
				<rect x="2658.86" y="1495.22" transform="matrix(-1 -1.224647e-16 1.224647e-16 -1 5339.2026 3002.3738)" class="st0" width="21.48" height="11.93"/>
			
				<rect x="2574.66" y="1387.52" transform="matrix(-0.9536 -0.3011 0.3011 -0.9536 4633.5571 3493.8325)" class="st0" width="22.76" height="4.59"/>
			
				<rect x="2486.3" y="1378.46" transform="matrix(-1 -1.224647e-16 1.224647e-16 -1 4995.9106 2760.4172)" class="st0" width="23.31" height="3.49"/>
			
				<rect x="2486.17" y="1373.69" transform="matrix(-1 -1.224647e-16 1.224647e-16 -1 4995.6499 2750.8711)" class="st0" width="23.31" height="3.49"/>
			<path class="st0" d="M2497.96,1404.44L2497.96,1404.44c6.44,0,11.66-5.22,11.66-11.66v-9.55h-23.31v9.55
				C2486.3,1399.22,2491.52,1404.44,2497.96,1404.44z"/>
		</g>
		<rect x="2720.2" y="849.13" class="st5" width="65.93" height="899.11"/>
		<rect x="2422.03" y="1060.32" class="st4" width="293.1" height="24.51"/>
		<rect x="2422.03" y="1284.83" class="st4" width="293.1" height="25.14"/>
		<rect x="2422.03" y="1510.3" class="st4" width="293.1" height="24.82"/>
		<path class="st4" d="M1914.14,767.35v979.39h471.95V767.35H1914.14z M2374.1,1734.19h-447.98V778.86h447.98V1734.19z"/>
		<rect x="2386.08" y="767.35" class="st5" width="71.9" height="979.74"/>
		<rect x="1919.67" y="997.64" class="st4" width="460.88" height="26.73"/>
		<rect x="1919.67" y="1243.16" class="st4" width="460.88" height="26.73"/>
		<rect x="1919.67" y="1488.67" class="st4" width="460.88" height="26.73"/>
		<polygon class="st4" points="2457.98,849.13 2457.98,859.69 2709.21,859.69 2709.21,1735.75 2457.98,1735.75 2457.98,1747.52 
			2720.2,1747.52 2720.2,849.13 		"/>
		<g>
			<polygon class="st0" points="863,1749.82 1788.11,1749.82 1788.11,1446 863,1442.97 			"/>
			<rect x="863" y="1199.99" class="st6" width="925.12" height="79.45"/>
		</g>
		<path class="st0" d="M1809.29,1199.99H843.58c-14.13,0-25.58-11.45-25.58-25.58v-6.11c0-14.13,11.45-25.58,25.58-25.58h965.71
			c14.13,0,25.58,11.45,25.58,25.58v6.11C1834.86,1188.54,1823.41,1199.99,1809.29,1199.99z"/>
		<polygon class="st2" points="875.28,1442.97 1775.83,1446 1775.83,1279.44 875.28,1279.44 		"/>
		<g>
			<g>
				<polygon class="st1" points="1019.97,1004.97 1049.62,1142.72 934.07,1142.72 908.69,1007.48 911.49,1004.97 				"/>
				<polygon class="st7" points="1023.25,1004.97 1052.9,1142.72 937.35,1142.72 911.5,1004.97 				"/>
				<polygon class="st3" points="1019.28,1009.35 1046.06,1133.78 941.69,1133.78 918.34,1009.35 				"/>
			</g>
			<g>
				<path class="st7" d="M932.03,1019.34h79.44c1.46,0,2.66,1.2,2.66,2.66c0,1.46-1.2,2.66-2.66,2.66h-79.44
					c-1.46,0-2.66-1.2-2.66-2.66C929.37,1020.54,930.56,1019.34,932.03,1019.34z"/>
				<path class="st7" d="M936.08,1031.89h79.44c1.46,0,2.66,1.2,2.66,2.66c0,1.46-1.2,2.66-2.66,2.66h-79.44
					c-1.46,0-2.66-1.2-2.66-2.66C933.42,1033.09,934.62,1031.89,936.08,1031.89z"/>
				<path class="st7" d="M938.61,1043.93h79.44c1.46,0,2.66,1.2,2.66,2.66c0,1.46-1.2,2.66-2.66,2.66h-79.44
					c-1.46,0-2.66-1.2-2.66-2.66C935.95,1045.12,937.15,1043.93,938.61,1043.93z"/>
				<path class="st7" d="M942.29,1068.74h79.44c1.46,0,2.66,1.2,2.66,2.66c0,1.46-1.2,2.66-2.66,2.66h-79.44
					c-1.46,0-2.66-1.2-2.66-2.66C939.63,1069.94,940.83,1068.74,942.29,1068.74z"/>
				<path class="st7" d="M946.34,1081.29h79.44c1.46,0,2.66,1.2,2.66,2.66c0,1.46-1.2,2.66-2.66,2.66h-79.44
					c-1.46,0-2.66-1.2-2.66-2.66C943.68,1082.48,944.88,1081.29,946.34,1081.29z"/>
				<path class="st7" d="M948.88,1093.32h79.44c1.46,0,2.66,1.2,2.66,2.66c0,1.46-1.2,2.66-2.66,2.66h-79.44
					c-1.46,0-2.66-1.2-2.66-2.66C946.22,1094.52,947.41,1093.32,948.88,1093.32z"/>
			</g>
			<g>
				
					<rect x="1077.8" y="1080.94" transform="matrix(0.9574 -0.2888 0.2888 0.9574 -274.8069 359.1272)" class="st1" width="3.29" height="59.55"/>
				<path class="st4" d="M1087.43,1133.25c5.91,0,10.77,4.13,11.52,9.47h-23.04C1076.66,1137.38,1081.52,1133.25,1087.43,1133.25z"
					/>
				<g>
					<path class="st4" d="M1072.33,1141.19c4.41,0,8.79-0.73,9.14-0.79l-0.13-0.75c-4.4,0.75-16.13,1.89-17.44-1.8
						c-0.58-1.64-0.04-4.39,0.72-8.21c1.37-6.94,3.45-17.43,1.01-32.07c-1.91-11.46-0.49-14.93,1.04-15.82
						c1.6-0.94,3.75,0.77,3.77,0.79l0.48-0.59c-0.11-0.08-2.59-2.05-4.63-0.85c-2.52,1.47-2.99,7.06-1.4,16.6
						c2.42,14.5,0.36,24.91-1,31.79c-0.78,3.93-1.34,6.78-0.69,8.61C1064.05,1140.55,1068.2,1141.19,1072.33,1141.19z"/>
				</g>
			</g>
		</g>
		<rect x="1926.12" y="824.4" class="st0" width="33.22" height="173.24"/>
		<rect x="2141.58" y="824.4" class="st0" width="33.22" height="173.24"/>
		<rect x="1959.34" y="801.05" class="st2" width="33.22" height="196.59"/>
		<rect x="1992.56" y="845.29" class="st1" width="33.22" height="152.35"/>
		<rect x="2307.67" y="845.29" class="st0" width="33.22" height="152.35"/>
		<rect x="2340.88" y="824.4" class="st1" width="33.22" height="173.24"/>
		<rect x="2174.8" y="812.42" class="st2" width="33.22" height="185.23"/>
		<rect x="2274.45" y="812.42" class="st2" width="33.22" height="185.23"/>
		<rect x="2208.02" y="801.05" class="st0" width="33.22" height="196.59"/>
		<rect x="2241.24" y="845.29" class="st1" width="33.22" height="152.35"/>
		<rect x="2025.78" y="824.4" class="st0" width="33.22" height="173.24"/>
		<polygon class="st2" points="2142.21,987.22 2110.58,997.64 2058.99,832.7 2090.62,822.27 		"/>
		<rect x="1928.83" y="838.23" class="st2" width="27.81" height="7.68"/>
		<rect x="1928.83" y="848.52" class="st2" width="27.81" height="3.23"/>
		<rect x="2028.48" y="978.34" class="st2" width="27.81" height="7.68"/>
		<rect x="2028.48" y="988.63" class="st2" width="27.81" height="3.23"/>
		
			<rect x="1694.22" y="1039.49" transform="matrix(-1.836970e-16 1 -1 -1.836970e-16 2836.9441 -584.7172)" class="st2" width="33.22" height="173.24"/>
		
			<rect x="1625.77" y="1122.27" transform="matrix(-1.836970e-16 1 -1 -1.836970e-16 2765.7896 -513.5626)" class="st1" width="27.81" height="7.68"/>
		
			<rect x="1617.71" y="1124.5" transform="matrix(-1.836970e-16 1 -1 -1.836970e-16 2757.7241 -505.4972)" class="st1" width="27.81" height="3.23"/>
		
			<rect x="1711.73" y="1006.27" transform="matrix(-1.836970e-16 1 -1 -1.836970e-16 2821.2393 -635.4493)" class="st0" width="33.22" height="173.24"/>
		<path class="st2" d="M1793.57,1102.96v-20.13c0-2.12,1.72-3.84,3.84-3.84l0,0c2.12,0,3.84,1.72,3.84,3.84v20.13
			c0,2.12-1.72,3.84-3.84,3.84l0,0C1795.29,1106.8,1793.57,1105.08,1793.57,1102.96z"/>
		
			<rect x="1775.44" y="1091.28" transform="matrix(-1.836970e-16 1 -1 -1.836970e-16 2882.2434 -696.4535)" class="st2" width="27.81" height="3.23"/>
		
			<rect x="1791.65" y="1091.28" transform="matrix(-1.836970e-16 1 -1 -1.836970e-16 2898.4512 -712.6613)" class="st2" width="27.81" height="3.23"/>
		
			<rect x="1679.47" y="973.05" transform="matrix(-1.836970e-16 1 -1 -1.836970e-16 2755.7588 -636.406)" class="st1" width="33.22" height="173.24"/>
		<path class="st2" d="M1615.25,1073.58v-27.81h53.47c7.68,0,13.9,6.23,13.9,13.9v0c0,7.68-6.23,13.9-13.9,13.9H1615.25z"/>
		<rect x="2146.43" y="831.78" class="st2" width="23.97" height="98.63"/>
		<path class="st2" d="M2326.32,871.72h-3.38c-3.99,0-7.22-3.23-7.22-7.22l0,0c0-3.99,3.23-7.22,7.22-7.22h3.38
			c3.99,0,7.22,3.23,7.22,7.22l0,0C2333.54,868.49,2330.31,871.72,2326.32,871.72z"/>
		<rect x="2211.1" y="812.42" class="st2" width="26.88" height="3.23"/>
		<rect x="2211.1" y="818.41" class="st2" width="26.88" height="3.23"/>
		<rect x="2211.1" y="824.4" class="st2" width="26.88" height="3.23"/>
		<rect x="1994.59" y="856.2" class="st3" width="29.15" height="30.88"/>
		<rect x="1994.59" y="890.37" class="st3" width="29.15" height="4.15"/>
		<rect x="2343.45" y="988.48" class="st3" width="27.42" height="4.84"/>
		<rect x="2343.45" y="980.41" class="st3" width="27.42" height="4.84"/>
		<rect x="2343.45" y="950.22" class="st3" width="27.42" height="26.27"/>
		<path class="st0" d="M2258.42,936.23h-1.15c-7.25,0-13.14-5.88-13.14-13.14l0,0c0-7.25,5.88-13.14,13.14-13.14h1.15
			c7.25,0,13.14,5.88,13.14,13.14l0,0C2271.56,930.35,2265.67,936.23,2258.42,936.23z"/>
		<rect x="1962.3" y="978.34" class="st0" width="26.96" height="14.98"/>
		
			<rect x="2066.38" y="843.14" transform="matrix(0.9536 -0.3011 0.3011 0.9536 -158.1827 665.7944)" class="st0" width="28.57" height="5.76"/>
		<rect x="2176.61" y="831.78" class="st0" width="29.27" height="4.38"/>
		<rect x="2176.78" y="825.78" class="st0" width="29.27" height="4.38"/>
		<path class="st0" d="M2191.25,864.38L2191.25,864.38c-8.08,0-14.63-6.55-14.63-14.63v-11.98h29.27v11.98
			C2205.88,857.83,2199.33,864.38,2191.25,864.38z"/>
		<g>
			<rect x="2058.67" y="1090.77" class="st1" width="33.22" height="152.35"/>
			<rect x="2224.55" y="1090.77" class="st1" width="33.22" height="152.35"/>
			<rect x="2091.89" y="1090.77" class="st0" width="33.22" height="152.35"/>
			<rect x="2191.33" y="1069.88" class="st1" width="33.22" height="173.24"/>
			<rect x="1959.11" y="1057.97" class="st2" width="33.22" height="185.23"/>
			<rect x="2025.53" y="1057.97" class="st2" width="33.22" height="185.23"/>
			<rect x="1992.31" y="1046.56" class="st0" width="33.22" height="196.59"/>
			<rect x="1925.89" y="1069.88" class="st0" width="33.22" height="173.24"/>
			<rect x="2257.77" y="1090.77" class="st0" width="33.22" height="152.35"/>
			<rect x="2124.9" y="1057.89" class="st2" width="33.22" height="185.23"/>
			<rect x="2158.12" y="1046.53" class="st0" width="33.22" height="196.59"/>
			<polygon class="st2" points="2370.68,1232.69 2339.05,1243.12 2287.46,1078.17 2319.09,1067.74 			"/>
			<rect x="2228.75" y="1099.63" class="st2" width="25.12" height="29.04"/>
			<rect x="2161.35" y="1057.11" class="st2" width="25.35" height="6.91"/>
			<rect x="2161.35" y="1068.75" class="st2" width="25.35" height="6.91"/>
			<rect x="2193.95" y="1086.61" class="st3" width="27.77" height="3.46"/>
			<path class="st1" d="M1942.43,1108.31L1942.43,1108.31c-6.78,0-12.27-5.49-12.27-12.27v-18.84h24.54v18.84
				C1954.7,1102.81,1949.2,1108.31,1942.43,1108.31z"/>
			<rect x="2027.52" y="1063.37" class="st1" width="28.11" height="3.8"/>
			<rect x="1994.79" y="1233.97" class="st1" width="27.96" height="5.99"/>
			<rect x="1994.79" y="1225.99" class="st1" width="27.96" height="5.99"/>
			<path class="st1" d="M2008.77,1220.61L2008.77,1220.61c-6.68,0-12.1-5.42-12.1-12.1l0,0c0-6.68,5.42-12.1,12.1-12.1l0,0
				c6.68,0,12.1,5.42,12.1,12.1l0,0C2020.87,1215.19,2015.46,1220.61,2008.77,1220.61z"/>
			<rect x="1963.51" y="1115.71" class="st0" width="24.43" height="58.3"/>
			<rect x="2061.93" y="1103.24" class="st3" width="26.12" height="5.99"/>
			<rect x="2062.22" y="1133.5" class="st3" width="26.12" height="5.99"/>
			<path class="st3" d="M2282.93,1115.83h-18.29c-2.5,0-4.53-2.03-4.53-4.53l0,0c0-2.5,2.03-4.53,4.53-4.53h18.29
				c2.5,0,4.53,2.03,4.53,4.53l0,0C2287.46,1113.8,2285.43,1115.83,2282.93,1115.83z"/>
		</g>
		<g>
			<rect x="2478.69" y="1172.8" class="st0" width="24.55" height="112.6"/>
			<rect x="2601.28" y="1138.4" class="st1" width="24.55" height="147"/>
			<rect x="2503.24" y="1172.8" class="st1" width="24.55" height="112.6"/>
			<rect x="2576.74" y="1157.36" class="st2" width="24.55" height="128.04"/>
			<rect x="2457.98" y="1148.56" class="st2" width="20.76" height="136.9"/>
			<rect x="2625.84" y="1172.8" class="st0" width="24.55" height="112.6"/>
			<rect x="2527.64" y="1198.51" class="st2" width="24.55" height="86.89"/>
			<rect x="2552.19" y="1140.1" class="st0" width="24.55" height="145.3"/>
			<polygon class="st2" points="2709.28,1277.69 2685.91,1285.4 2647.78,1163.49 2671.16,1155.78 			"/>
			<rect x="2604.39" y="1260.52" class="st0" width="18.56" height="21.46"/>
			<rect x="2554.57" y="1147.92" class="st2" width="18.73" height="5.11"/>
			<rect x="2554.57" y="1156.53" class="st2" width="18.73" height="5.11"/>
			<rect x="2578.67" y="1169.72" class="st3" width="20.52" height="2.55"/>
			<rect x="2457.94" y="1152.55" class="st1" width="18.49" height="2.81"/>
			<rect x="2481.09" y="1182.02" class="st3" width="19.3" height="4.43"/>
			<rect x="2481.31" y="1204.38" class="st3" width="19.3" height="4.43"/>
			<path class="st3" d="M2644.43,1191.33h-13.52c-1.85,0-3.35-1.5-3.35-3.35l0,0c0-1.85,1.5-3.35,3.35-3.35h13.52
				c1.85,0,3.35,1.5,3.35,3.35l0,0C2647.78,1189.83,2646.28,1191.33,2644.43,1191.33z"/>
		</g>
		<g>
			
				<rect x="2580.9" y="1617.23" transform="matrix(-1 -1.224647e-16 1.224647e-16 -1 5187.7549 3353.5334)" class="st1" width="25.96" height="119.08"/>
			
				<rect x="2457.98" y="1617.23" transform="matrix(-1 -1.224647e-16 1.224647e-16 -1 4935.1885 3353.5334)" class="st0" width="19.23" height="119.08"/>
			
				<rect x="2554.93" y="1617.23" transform="matrix(-1 -1.224647e-16 1.224647e-16 -1 5135.8262 3353.5334)" class="st0" width="25.96" height="119.08"/>
			
				<rect x="2477.2" y="1600.9" transform="matrix(-1 -1.224647e-16 1.224647e-16 -1 4980.374 3337.2029)" class="st1" width="25.96" height="135.41"/>
			
				<rect x="2658.71" y="1591.59" transform="matrix(-1 -1.224647e-16 1.224647e-16 -1 5343.3931 3327.9568)" class="st2" width="25.96" height="144.78"/>
			
				<rect x="2606.8" y="1591.59" transform="matrix(-1 -1.224647e-16 1.224647e-16 -1 5239.5625 3327.9568)" class="st2" width="25.96" height="144.78"/>
			
				<rect x="2632.76" y="1582.67" transform="matrix(-1 -1.224647e-16 1.224647e-16 -1 5291.4907 3319.0107)" class="st0" width="25.96" height="153.66"/>
			
				<rect x="2684.68" y="1600.9" transform="matrix(-1 -1.224647e-16 1.224647e-16 -1 5395.3213 3337.2029)" class="st0" width="25.96" height="135.41"/>
			
				<rect x="2529.13" y="1591.53" transform="matrix(-1 -1.224647e-16 1.224647e-16 -1 5084.2266 3327.8367)" class="st2" width="25.96" height="144.78"/>
			
				<rect x="2503.17" y="1582.64" transform="matrix(-1 -1.224647e-16 1.224647e-16 -1 5032.2979 3318.9507)" class="st0" width="25.96" height="153.66"/>
			
				<rect x="2457.98" y="1624.15" transform="matrix(-1 -1.224647e-16 1.224647e-16 -1 4931.9053 3270.9922)" class="st2" width="15.94" height="22.69"/>
			
				<rect x="2506.8" y="1590.92" transform="matrix(-1 -1.224647e-16 1.224647e-16 -1 5033.4038 3187.2373)" class="st2" width="19.81" height="5.4"/>
			
				<rect x="2506.8" y="1600.01" transform="matrix(-1 -1.224647e-16 1.224647e-16 -1 5033.4038 3205.4292)" class="st2" width="19.81" height="5.4"/>
			
				<rect x="2479.42" y="1613.97" transform="matrix(-1 -1.224647e-16 1.224647e-16 -1 4980.5391 3230.6458)" class="st3" width="21.7" height="2.7"/>
			<path class="st1" d="M2697.72,1630.93L2697.72,1630.93c5.3,0,9.59-4.29,9.59-9.59v-14.72h-19.18v14.72
				C2688.13,1626.64,2692.42,1630.93,2697.72,1630.93z"/>
			
				<rect x="2609.24" y="1595.81" transform="matrix(-1 -1.224647e-16 1.224647e-16 -1 5240.4497 3194.592)" class="st1" width="21.97" height="2.97"/>
			
				<rect x="2634.93" y="1729.16" transform="matrix(-1 -1.224647e-16 1.224647e-16 -1 5291.7236 3462.9983)" class="st1" width="21.85" height="4.68"/>
			
				<rect x="2634.93" y="1722.91" transform="matrix(-1 -1.224647e-16 1.224647e-16 -1 5291.7236 3450.51)" class="st1" width="21.85" height="4.68"/>
			<path class="st1" d="M2645.86,1718.71L2645.86,1718.71c5.22,0,9.46-4.23,9.46-9.46l0,0c0-5.22-4.23-9.46-9.46-9.46l0,0
				c-5.22,0-9.46,4.23-9.46,9.46l0,0C2636.41,1714.48,2640.64,1718.71,2645.86,1718.71z"/>
			
				<rect x="2662.15" y="1636.72" transform="matrix(-1 -1.224647e-16 1.224647e-16 -1 5343.3931 3319.011)" class="st0" width="19.09" height="45.57"/>
			
				<rect x="2583.9" y="1626.97" transform="matrix(-1 -1.224647e-16 1.224647e-16 -1 5188.2158 3258.624)" class="st3" width="20.41" height="4.68"/>
			
				<rect x="2583.67" y="1650.63" transform="matrix(-1 -1.224647e-16 1.224647e-16 -1 5187.7549 3305.9353)" class="st3" width="20.41" height="4.68"/>
		</g>
		<g>
			<g>
				<rect x="2054.15" y="1592.27" class="st0" width="32.03" height="141.84"/>
				<rect x="2310.19" y="1592.27" class="st1" width="32.03" height="141.84"/>
				<rect x="2214.1" y="1587.21" class="st1" width="32.03" height="146.9"/>
				<rect x="2086.18" y="1587.21" class="st2" width="32.03" height="146.9"/>
				<rect x="2182.07" y="1607.01" class="st0" width="32.03" height="127.11"/>
				<rect x="1958.15" y="1542.23" class="st1" width="32.03" height="191.96"/>
				<rect x="2278.16" y="1542.23" class="st0" width="32.03" height="191.96"/>
				<rect x="2022.2" y="1555.58" class="st1" width="32.03" height="178.6"/>
				<rect x="1990.17" y="1602.64" class="st0" width="32.03" height="131.51"/>
				<rect x="1926.12" y="1567.06" class="st2" width="32.03" height="167.05"/>
				<rect x="2342.07" y="1567.06" class="st2" width="32.03" height="167.05"/>
				<rect x="2246.13" y="1561.42" class="st2" width="32.03" height="172.69"/>
				<rect x="2118.01" y="1555.51" class="st1" width="32.03" height="178.6"/>
				<rect x="2150.04" y="1544.55" class="st2" width="32.03" height="189.57"/>
				<rect x="2218.15" y="1595.75" class="st2" width="24.22" height="28"/>
				<rect x="2153.16" y="1554.75" class="st2" width="24.44" height="6.67"/>
				<rect x="2153.16" y="1565.97" class="st2" width="24.44" height="6.67"/>
				<path class="st1" d="M1942.06,1604.12L1942.06,1604.12c-6.53,0-11.83-5.3-11.83-11.83v-18.17h23.66v18.17
					C1953.89,1598.82,1948.6,1604.12,1942.06,1604.12z"/>
				<rect x="2024.11" y="1560.79" class="st1" width="27.11" height="3.67"/>
				<rect x="1992.56" y="1725.29" class="st1" width="26.96" height="5.78"/>
				<rect x="1992.56" y="1717.59" class="st1" width="26.96" height="5.78"/>
				<path class="st1" d="M2006.04,1712.41L2006.04,1712.41c-6.44,0-11.67-5.22-11.67-11.67v0c0-6.44,5.22-11.67,11.67-11.67l0,0
					c6.44,0,11.67,5.22,11.67,11.67v0C2017.7,1707.18,2012.48,1712.41,2006.04,1712.41z"/>
				<rect x="1962.39" y="1611.26" class="st0" width="23.55" height="56.22"/>
				<rect x="2057.29" y="1599.23" class="st3" width="25.18" height="5.78"/>
				<rect x="2057.58" y="1628.41" class="st3" width="25.18" height="5.78"/>
				<path class="st3" d="M2270.39,1577.6h-17.63c-2.41,0-4.37-1.96-4.37-4.37l0,0c0-2.41,1.96-4.37,4.37-4.37h17.63
					c2.41,0,4.37,1.96,4.37,4.37l0,0C2274.76,1575.65,2272.81,1577.6,2270.39,1577.6z"/>
			</g>
			<rect x="2121.7" y="1709.3" class="st3" width="24.66" height="21.77"/>
			<rect x="2184.83" y="1723.37" class="st0" width="26.12" height="4.81"/>
			<rect x="2346.76" y="1639.33" class="st0" width="23.04" height="7.51"/>
			<rect x="2346.76" y="1651.55" class="st0" width="23.04" height="7.51"/>
		</g>
		<g>
			<g>
				
					<rect x="2549.15" y="918.4" transform="matrix(-1 -1.224647e-16 1.224647e-16 -1 5130.3394 1978.6421)" class="st0" width="32.03" height="141.84"/>
				
					<rect x="2517.12" y="913.34" transform="matrix(-1 -1.224647e-16 1.224647e-16 -1 5066.2773 1973.579)" class="st2" width="32.03" height="146.9"/>
				
					<rect x="2645.16" y="868.36" transform="matrix(-1 -1.224647e-16 1.224647e-16 -1 5322.3433 1928.6748)" class="st1" width="32.03" height="191.96"/>
				
					<rect x="2581.11" y="881.71" transform="matrix(-1 -1.224647e-16 1.224647e-16 -1 5194.252 1942.0261)" class="st1" width="32.03" height="178.6"/>
				
					<rect x="2613.14" y="928.77" transform="matrix(-1 -1.224647e-16 1.224647e-16 -1 5258.3135 1989.0435)" class="st0" width="32.03" height="131.51"/>
				
					<rect x="2677.19" y="893.19" transform="matrix(-1 -1.224647e-16 1.224647e-16 -1 5386.4048 1953.4325)" class="st2" width="32.03" height="167.05"/>
				
					<rect x="2485.29" y="881.64" transform="matrix(-1 -1.224647e-16 1.224647e-16 -1 5002.6206 1941.8779)" class="st1" width="32.03" height="178.6"/>
				
					<rect x="2457.98" y="870.67" transform="matrix(-1 -1.224647e-16 1.224647e-16 -1 4943.2764 1930.9159)" class="st2" width="27.31" height="189.57"/>
				
					<rect x="2457.98" y="880.88" transform="matrix(-1 -1.224647e-16 1.224647e-16 -1 4940.1641 1768.4268)" class="st0" width="24.2" height="6.67"/>
				
					<rect x="2457.98" y="892.1" transform="matrix(-1 -1.224647e-16 1.224647e-16 -1 4940.1641 1790.8693)" class="st0" width="24.2" height="6.67"/>
				<path class="st1" d="M2693.28,930.25L2693.28,930.25c6.53,0,11.83-5.3,11.83-11.83v-18.17h-23.66v18.17
					C2681.44,924.95,2686.74,930.25,2693.28,930.25z"/>
				
					<rect x="2584.12" y="886.92" transform="matrix(-1 -1.224647e-16 1.224647e-16 -1 5195.3467 1777.5)" class="st1" width="27.11" height="3.67"/>
				
					<rect x="2615.82" y="1051.42" transform="matrix(-1 -1.224647e-16 1.224647e-16 -1 5258.6006 2108.6208)" class="st1" width="26.96" height="5.78"/>
				
					<rect x="2615.82" y="1043.72" transform="matrix(-1 -1.224647e-16 1.224647e-16 -1 5258.6006 2093.2146)" class="st1" width="26.96" height="5.78"/>
				<path class="st1" d="M2629.3,1038.53L2629.3,1038.53c6.44,0,11.67-5.22,11.67-11.67l0,0c0-6.44-5.22-11.67-11.67-11.67l0,0
					c-6.44,0-11.67,5.22-11.67,11.67l0,0C2617.63,1033.31,2622.86,1038.53,2629.3,1038.53z"/>
				
					<rect x="2649.39" y="937.39" transform="matrix(-1 -1.224647e-16 1.224647e-16 -1 5322.3433 1930.99)" class="st0" width="23.55" height="56.22"/>
				
					<rect x="2552.86" y="925.36" transform="matrix(-1 -1.224647e-16 1.224647e-16 -1 5130.9077 1856.4935)" class="st3" width="25.18" height="5.78"/>
				
					<rect x="2552.58" y="954.54" transform="matrix(-1 -1.224647e-16 1.224647e-16 -1 5130.3389 1914.8591)" class="st3" width="25.18" height="5.78"/>
			</g>
			
				<rect x="2488.98" y="1035.43" transform="matrix(-1 -1.224647e-16 1.224647e-16 -1 5002.6206 2092.6274)" class="st3" width="24.66" height="21.77"/>
		</g>
	</g>
	<path class="st8" d="M2855.51,1752.89H296.89c-1.69,0-3.08-1.38-3.08-3.08l0,0c0-1.69,1.38-3.08,3.08-3.08h2558.62
		c1.69,0,3.08,1.39,3.08,3.08l0,0C2858.59,1751.51,2857.2,1752.89,2855.51,1752.89z"/>
</g>
</svg>
