<?xml version="1.0" encoding="utf-8"?>
<!-- Generator: Adobe Illustrator 23.0.1, SVG Export Plug-In . SVG Version: 6.00 Build 0)  -->
<svg version="1.1" id="Layer_1" xmlns="http://www.w3.org/2000/svg" xmlns:xlink="http://www.w3.org/1999/xlink" x="0px" y="0px"
	 viewBox="0 0 3000 2000" style="enable-background:new 0 0 3000 2000;" xml:space="preserve">
<style type="text/css">
	.st0{fill:#FFFFFF;}
	.st1{fill:#EBF3FA;}
	.st2{fill:#A53D38;}
	.st3{fill:#35488B;}
	.st4{fill:#F1A34F;}
	.st5{fill:#699FF0;}
	.st6{fill:#466AA5;}
	.st7{fill:#E49963;}
	.st8{fill:#C65447;}
	.st9{fill:#FFB27D;}
	.st10{fill:#365DA4;}
	.st11{fill:#E8945B;}
	.st12{fill:#699DEE;}
	.st13{fill:#3B76CA;}
	.st14{fill:#B64C41;}
	.st15{fill:#82B378;}
	.st16{fill:#283250;}
	.st17{fill:#A8D29F;}
	.st18{fill:#FFB973;}
	.st19{fill:#D86713;}
</style>
<rect transform="matrix(-1 -1.224647e-16 1.224647e-16 -1 3000 2000)" class="st0" width="3000" height="2000"/>
<g>
	<path class="st1" d="M2881.82,1292.68c-95.68-186.47-596.26,129.34-683.93-342.46c-87.67-471.8-430.57-849.96-943.14-333.52
		C1078.66,802,627.87,1106.41,320.89,936.23s-326.34,663.47,66.37,813.59l2398.87-3.51
		C2786.13,1746.3,2977.5,1479.15,2881.82,1292.68z"/>
	<g>
		<g>
			
				<rect x="730.93" y="1581.35" transform="matrix(-1 -1.224647e-16 1.224647e-16 -1 1495.3201 3316.1353)" class="st2" width="33.46" height="153.44"/>
			
				<rect x="563.88" y="1534.46" transform="matrix(-1 -1.224647e-16 1.224647e-16 -1 1161.223 3269.2502)" class="st3" width="33.46" height="200.33"/>
			
				<rect x="697.47" y="1581.35" transform="matrix(-1 -1.224647e-16 1.224647e-16 -1 1428.4055 3316.1353)" class="st3" width="33.46" height="153.44"/>
			
				<rect x="597.34" y="1560.3" transform="matrix(-1 -1.224647e-16 1.224647e-16 -1 1228.1375 3295.0916)" class="st4" width="33.46" height="174.49"/>
			
				<rect x="831.23" y="1548.23" transform="matrix(-1 -1.224647e-16 1.224647e-16 -1 1695.9075 3283.0225)" class="st4" width="33.46" height="186.56"/>
			
				<rect x="764.34" y="1548.23" transform="matrix(-1 -1.224647e-16 1.224647e-16 -1 1562.1299 3283.0225)" class="st4" width="33.46" height="186.56"/>
			
				<rect x="797.77" y="1601.99" transform="matrix(-1 -1.224647e-16 1.224647e-16 -1 1628.9929 3336.7754)" class="st2" width="33.46" height="132.8"/>
			
				<rect x="864.67" y="1560.19" transform="matrix(-1 -1.224647e-16 1.224647e-16 -1 1762.7882 3294.8596)" class="st2" width="33.46" height="174.49"/>
			
				<rect x="530.43" y="1581.35" transform="matrix(-1 -1.224647e-16 1.224647e-16 -1 1094.3085 3316.1475)" class="st2" width="33.46" height="153.44"/>
			
				<rect x="664.25" y="1616.38" transform="matrix(-1 -1.224647e-16 1.224647e-16 -1 1361.9664 3351.1687)" class="st4" width="33.46" height="118.41"/>
			
				<rect x="630.8" y="1536.78" transform="matrix(-1 -1.224647e-16 1.224647e-16 -1 1295.052 3271.5723)" class="st2" width="33.46" height="198.01"/>
			<polygon class="st4" points="450.14,1724.17 482,1734.67 533.96,1568.54 502.1,1558.04 			"/>
			
				<rect x="567.79" y="1700.76" transform="matrix(-1 -1.224647e-16 1.224647e-16 -1 1160.8798 3430.7661)" class="st2" width="25.3" height="29.24"/>
			
				<rect x="635.45" y="1547.33" transform="matrix(-1 -1.224647e-16 1.224647e-16 -1 1296.4252 3101.6155)" class="st4" width="25.53" height="6.96"/>
			
				<rect x="635.45" y="1559.05" transform="matrix(-1 -1.224647e-16 1.224647e-16 -1 1296.4252 3125.0576)" class="st4" width="25.53" height="6.96"/>
			
				<rect x="600.17" y="1577.03" transform="matrix(-1 -1.224647e-16 1.224647e-16 -1 1228.3043 3157.5513)" class="st0" width="27.97" height="3.48"/>
			<path class="st3" d="M881.47,1598.89L881.47,1598.89c6.83,0,12.36-5.53,12.36-12.36v-18.97h-24.72v18.97
				C869.11,1593.36,874.65,1598.89,881.47,1598.89z"/>
			
				<rect x="767.45" y="1553.63" transform="matrix(-1 -1.224647e-16 1.224647e-16 -1 1563.2224 3111.093)" class="st3" width="28.32" height="3.83"/>
			
				<rect x="800.57" y="1725.46" transform="matrix(-1 -1.224647e-16 1.224647e-16 -1 1629.2931 3456.9583)" class="st3" width="28.16" height="6.03"/>
			
				<rect x="800.57" y="1717.42" transform="matrix(-1 -1.224647e-16 1.224647e-16 -1 1629.2931 3440.866)" class="st0" width="28.16" height="6.03"/>
			<path class="st0" d="M814.65,1712L814.65,1712c6.73,0,12.19-5.46,12.19-12.19l0,0c0-6.73-5.46-12.19-12.19-12.19l0,0
				c-6.73,0-12.19,5.46-12.19,12.19l0,0C802.46,1706.54,807.92,1712,814.65,1712z"/>
			
				<rect x="835.64" y="1606.35" transform="matrix(-1 -1.224647e-16 1.224647e-16 -1 1695.8737 3271.4175)" class="st2" width="24.6" height="58.72"/>
			
				<rect x="734.8" y="1593.78" transform="matrix(-1 -1.224647e-16 1.224647e-16 -1 1495.9138 3193.604)" class="st0" width="26.3" height="6.03"/>
			
				<rect x="734.51" y="1624.27" transform="matrix(-1 -1.224647e-16 1.224647e-16 -1 1495.3201 3254.5684)" class="st0" width="26.3" height="6.03"/>
			<path class="st0" d="M538.52,1606.47h18.42c2.52,0,4.56-2.04,4.56-4.56l0,0c0-2.52-2.04-4.56-4.56-4.56h-18.42
				c-2.52,0-4.56,2.04-4.56,4.56l0,0C533.96,1604.43,536,1606.47,538.52,1606.47z"/>
		</g>
		<g>
			
				<rect x="2206.91" y="1335.23" transform="matrix(-1 -1.224647e-16 1.224647e-16 -1 4447.2759 2823.9019)" class="st2" width="33.46" height="153.44"/>
			
				<rect x="2039.77" y="1288.48" transform="matrix(-1 -1.224647e-16 1.224647e-16 -1 4112.9878 2777.2815)" class="st3" width="33.46" height="200.33"/>
			
				<rect x="2173.45" y="1335.31" transform="matrix(-1 -1.224647e-16 1.224647e-16 -1 4380.3613 2824.0581)" class="st3" width="33.46" height="153.44"/>
			
				<rect x="2073.22" y="1314.19" transform="matrix(-1 -1.224647e-16 1.224647e-16 -1 4179.9023 2802.8582)" class="st4" width="33.46" height="174.49"/>
			
				<rect x="2307.17" y="1302.18" transform="matrix(-1 -1.224647e-16 1.224647e-16 -1 4647.793 2790.9199)" class="st4" width="33.46" height="186.56"/>
			
				<rect x="2240.25" y="1302.12" transform="matrix(-1 -1.224647e-16 1.224647e-16 -1 4513.9644 2790.7891)" class="st4" width="33.46" height="186.56"/>
			
				<rect x="2273.71" y="1355.87" transform="matrix(-1 -1.224647e-16 1.224647e-16 -1 4580.8789 2844.542)" class="st2" width="33.46" height="132.8"/>
			
				<rect x="2340.63" y="1314.19" transform="matrix(-1 -1.224647e-16 1.224647e-16 -1 4714.7075 2802.8582)" class="st2" width="33.46" height="174.49"/>
			
				<rect x="2006.31" y="1335.36" transform="matrix(-1 -1.224647e-16 1.224647e-16 -1 4046.0735 2824.1663)" class="st2" width="33.46" height="153.44"/>
			
				<rect x="2139.99" y="1370.34" transform="matrix(-1 -1.224647e-16 1.224647e-16 -1 4313.4468 2859.0918)" class="st4" width="33.46" height="118.41"/>
			
				<rect x="2106.54" y="1290.67" transform="matrix(-1 -1.224647e-16 1.224647e-16 -1 4246.5322 2779.3389)" class="st2" width="33.46" height="198.01"/>
			<polygon class="st4" points="1926.12,1477.89 1957.98,1488.39 2009.93,1322.26 1978.08,1311.76 			"/>
			
				<rect x="2043.77" y="1454.48" transform="matrix(-1 -1.224647e-16 1.224647e-16 -1 4112.8354 2938.1997)" class="st2" width="25.3" height="29.24"/>
			
				<rect x="2111.43" y="1301.04" transform="matrix(-1 -1.224647e-16 1.224647e-16 -1 4248.3809 2609.0493)" class="st4" width="25.53" height="6.96"/>
			
				<rect x="2111.43" y="1312.76" transform="matrix(-1 -1.224647e-16 1.224647e-16 -1 4248.3809 2632.4912)" class="st4" width="25.53" height="6.96"/>
			
				<rect x="2076.15" y="1330.75" transform="matrix(-1 -1.224647e-16 1.224647e-16 -1 4180.2598 2664.9851)" class="st0" width="27.97" height="3.48"/>
			<path class="st3" d="M2357.45,1352.61L2357.45,1352.61c6.83,0,12.36-5.53,12.36-12.36v-18.97h-24.72v18.97
				C2345.09,1347.07,2350.62,1352.61,2357.45,1352.61z"/>
			
				<rect x="2243.43" y="1307.35" transform="matrix(-1 -1.224647e-16 1.224647e-16 -1 4515.1782 2618.5266)" class="st3" width="28.32" height="3.83"/>
			
				<rect x="2276.54" y="1479.18" transform="matrix(-1 -1.224647e-16 1.224647e-16 -1 4581.2485 2964.3918)" class="st3" width="28.16" height="6.03"/>
			
				<rect x="2276.54" y="1471.13" transform="matrix(-1 -1.224647e-16 1.224647e-16 -1 4581.2485 2948.2998)" class="st0" width="28.16" height="6.03"/>
			<path class="st0" d="M2290.62,1465.72L2290.62,1465.72c6.73,0,12.19-5.46,12.19-12.19l0,0c0-6.73-5.46-12.19-12.19-12.19l0,0
				c-6.73,0-12.19,5.46-12.19,12.19l0,0C2278.44,1460.26,2283.89,1465.72,2290.62,1465.72z"/>
			
				<rect x="2311.61" y="1360.07" transform="matrix(-1 -1.224647e-16 1.224647e-16 -1 4647.8291 2778.8513)" class="st2" width="24.6" height="58.72"/>
			
				<rect x="2210.78" y="1347.5" transform="matrix(-1 -1.224647e-16 1.224647e-16 -1 4447.8696 2701.0376)" class="st0" width="26.3" height="6.03"/>
			
				<rect x="2210.49" y="1377.98" transform="matrix(-1 -1.224647e-16 1.224647e-16 -1 4447.2759 2762.0022)" class="st0" width="26.3" height="6.03"/>
			<path class="st0" d="M2014.5,1360.19h18.42c2.52,0,4.56-2.04,4.56-4.56l0,0c0-2.52-2.04-4.56-4.56-4.56h-18.42
				c-2.52,0-4.56,2.04-4.56,4.56l0,0C2009.93,1358.15,2011.98,1360.19,2014.5,1360.19z"/>
		</g>
		<g>
			<g>
				<rect x="578.18" y="1101.93" class="st2" width="32.03" height="141.84"/>
				<rect x="834.22" y="1101.97" class="st4" width="32.03" height="141.84"/>
				<rect x="738.12" y="1096.87" class="st3" width="32.03" height="146.9"/>
				<rect x="610.21" y="1096.87" class="st4" width="32.03" height="146.9"/>
				<rect x="706.09" y="1116.66" class="st2" width="32.03" height="127.11"/>
				<rect x="482.17" y="1051.81" class="st3" width="32.03" height="191.96"/>
				<rect x="802.18" y="1051.81" class="st3" width="32.03" height="191.96"/>
				<rect x="546.22" y="1065.16" class="st3" width="32.03" height="178.6"/>
				<rect x="514.19" y="1112.26" class="st2" width="32.03" height="131.51"/>
				<rect x="450.14" y="1076.72" class="st4" width="32.03" height="167.05"/>
				<rect x="866.09" y="1076.46" class="st3" width="32.03" height="167.05"/>
				<rect x="770.15" y="1071.07" class="st4" width="32.03" height="172.69"/>
				<rect x="642.03" y="1065.16" class="st3" width="32.03" height="178.6"/>
				<rect x="674.07" y="1054.2" class="st4" width="32.03" height="189.57"/>
				<rect x="742.17" y="1105.15" class="st4" width="24.22" height="28"/>
				<rect x="677.18" y="1064.15" class="st4" width="24.44" height="6.67"/>
				<rect x="677.18" y="1075.37" class="st4" width="24.44" height="6.67"/>
				<path class="st3" d="M466.08,1113.52L466.08,1113.52c-6.53,0-11.83-5.3-11.83-11.83v-18.17h23.66v18.17
					C477.92,1108.22,472.62,1113.52,466.08,1113.52z"/>
				<rect x="548.13" y="1070.19" class="st3" width="27.11" height="3.67"/>
				<rect x="516.58" y="1234.69" class="st3" width="26.96" height="5.78"/>
				<rect x="516.58" y="1226.99" class="st3" width="26.96" height="5.78"/>
				<path class="st3" d="M530.06,1221.81L530.06,1221.81c-6.44,0-11.67-5.22-11.67-11.67v0c0-6.44,5.22-11.67,11.67-11.67l0,0
					c6.44,0,11.67,5.22,11.67,11.67v0C541.73,1216.58,536.5,1221.81,530.06,1221.81z"/>
				<rect x="486.41" y="1120.66" class="st2" width="23.55" height="56.22"/>
				<rect x="581.32" y="1108.63" class="st0" width="25.18" height="5.78"/>
				<rect x="581.6" y="1137.81" class="st0" width="25.18" height="5.78"/>
				<path class="st0" d="M794.42,1087h-17.63c-2.41,0-4.37-1.96-4.37-4.37l0,0c0-2.41,1.96-4.37,4.37-4.37h17.63
					c2.41,0,4.37,1.96,4.37,4.37l0,0C798.79,1085.04,796.83,1087,794.42,1087z"/>
			</g>
			<rect x="645.72" y="1218.7" class="st0" width="24.66" height="21.77"/>
			<rect x="708.85" y="1232.77" class="st2" width="26.12" height="4.81"/>
			<rect x="870.78" y="1148.73" class="st2" width="23.04" height="7.51"/>
			<rect x="870.78" y="1160.95" class="st2" width="23.04" height="7.51"/>
		</g>
		<g>
			
				<rect x="864.9" y="1316.03" transform="matrix(-1 -1.224647e-16 1.224647e-16 -1 1763.0269 2805.3076)" class="st2" width="33.22" height="173.24"/>
			
				<rect x="649.44" y="1316.03" transform="matrix(-1 -1.224647e-16 1.224647e-16 -1 1332.1044 2805.3076)" class="st2" width="33.22" height="173.24"/>
			
				<rect x="831.69" y="1292.68" transform="matrix(-1 -1.224647e-16 1.224647e-16 -1 1696.5898 2781.9561)" class="st3" width="33.22" height="196.59"/>
			
				<rect x="798.47" y="1336.93" transform="matrix(-1 -1.224647e-16 1.224647e-16 -1 1630.1527 2826.2009)" class="st4" width="33.22" height="152.35"/>
			
				<rect x="483.36" y="1336.93" transform="matrix(-1 -1.224647e-16 1.224647e-16 -1 999.9303 2826.2009)" class="st2" width="33.22" height="152.35"/>
			
				<rect x="450.14" y="1316.03" transform="matrix(-1 -1.224647e-16 1.224647e-16 -1 933.504 2805.3076)" class="st3" width="33.22" height="173.24"/>
			
				<rect x="616.22" y="1304.05" transform="matrix(-1 -1.224647e-16 1.224647e-16 -1 1265.6672 2793.3247)" class="st4" width="33.22" height="185.23"/>
			
				<rect x="516.57" y="1304.05" transform="matrix(-1 -1.224647e-16 1.224647e-16 -1 1066.3673 2793.3247)" class="st4" width="33.22" height="185.23"/>
			
				<rect x="583.01" y="1292.68" transform="matrix(-1 -1.224647e-16 1.224647e-16 -1 1199.2302 2781.9561)" class="st2" width="33.22" height="196.59"/>
			
				<rect x="549.79" y="1336.93" transform="matrix(-1 -1.224647e-16 1.224647e-16 -1 1132.7932 2826.2009)" class="st3" width="33.22" height="152.35"/>
			
				<rect x="765.25" y="1316.03" transform="matrix(-1 -1.224647e-16 1.224647e-16 -1 1563.7157 2805.3076)" class="st2" width="33.22" height="173.24"/>
			<path class="st4" d="M682.66,1478.85l31.63,10.43l50.97-162.96c0.35-1.1-0.26-2.28-1.36-2.64l-27.61-9.1
				c-1.12-0.37-2.33,0.25-2.68,1.38L682.66,1478.85z"/>
			
				<rect x="867.61" y="1329.86" transform="matrix(-1 -1.224647e-16 1.224647e-16 -1 1763.0269 2667.3989)" class="st4" width="27.81" height="7.68"/>
			
				<rect x="867.61" y="1340.15" transform="matrix(-1 -1.224647e-16 1.224647e-16 -1 1763.0269 2683.5298)" class="st4" width="27.81" height="3.23"/>
			
				<rect x="767.95" y="1469.97" transform="matrix(-1 -1.224647e-16 1.224647e-16 -1 1563.7157 2947.6167)" class="st4" width="27.81" height="7.68"/>
			
				<rect x="767.95" y="1480.26" transform="matrix(-1 -1.224647e-16 1.224647e-16 -1 1563.7157 2963.7478)" class="st4" width="27.81" height="3.23"/>
			
				<rect x="653.85" y="1323.41" transform="matrix(-1 -1.224647e-16 1.224647e-16 -1 1331.6704 2745.4421)" class="st4" width="23.97" height="98.63"/>
			<path class="st4" d="M497.92,1363.35h3.38c3.99,0,7.22-3.23,7.22-7.22l0,0c0-3.99-3.23-7.22-7.22-7.22h-3.38
				c-3.99,0-7.22,3.23-7.22,7.22l0,0C490.7,1360.12,493.93,1363.35,497.92,1363.35z"/>
			
				<rect x="586.26" y="1304.05" transform="matrix(-1 -1.224647e-16 1.224647e-16 -1 1199.3964 2611.3247)" class="st4" width="26.89" height="3.23"/>
			
				<rect x="586.26" y="1310.04" transform="matrix(-1 -1.224647e-16 1.224647e-16 -1 1199.3964 2623.3076)" class="st4" width="26.89" height="3.23"/>
			
				<rect x="586.26" y="1316.03" transform="matrix(-1 -1.224647e-16 1.224647e-16 -1 1199.3964 2635.2905)" class="st4" width="26.89" height="3.23"/>
			
				<rect x="800.5" y="1347.83" transform="matrix(-1 -1.224647e-16 1.224647e-16 -1 1630.1527 2726.5457)" class="st0" width="29.15" height="30.88"/>
			
				<rect x="800.5" y="1382" transform="matrix(-1 -1.224647e-16 1.224647e-16 -1 1630.1527 2768.1406)" class="st0" width="29.15" height="4.15"/>
			
				<rect x="453.37" y="1480.11" transform="matrix(-1 -1.224647e-16 1.224647e-16 -1 934.1572 2965.0537)" class="st0" width="27.42" height="4.84"/>
			
				<rect x="453.37" y="1472.04" transform="matrix(-1 -1.224647e-16 1.224647e-16 -1 934.1572 2948.9226)" class="st0" width="27.42" height="4.84"/>
			
				<rect x="453.37" y="1441.85" transform="matrix(-1 -1.224647e-16 1.224647e-16 -1 934.1572 2909.9778)" class="st0" width="27.42" height="26.27"/>
			<path class="st2" d="M565.82,1427.86h1.15c7.25,0,13.14-5.88,13.14-13.14l0,0c0-7.25-5.88-13.14-13.14-13.14h-1.15
				c-7.25,0-13.14,5.88-13.14,13.14l0,0C552.69,1421.98,558.57,1427.86,565.82,1427.86z"/>
			
				<rect x="834.98" y="1469.97" transform="matrix(-1 -1.224647e-16 1.224647e-16 -1 1696.9215 2954.9143)" class="st4" width="26.96" height="14.98"/>
			
				<rect x="729.97" y="1334.99" transform="matrix(-0.9536 -0.3011 0.3011 -0.9536 1051.1038 2837.7571)" class="st2" width="28.57" height="5.76"/>
			
				<rect x="618.36" y="1323.41" transform="matrix(-1 -1.224647e-16 1.224647e-16 -1 1265.9941 2651.1912)" class="st2" width="29.27" height="4.38"/>
			
				<rect x="618.2" y="1317.41" transform="matrix(-1 -1.224647e-16 1.224647e-16 -1 1265.6674 2639.2083)" class="st2" width="29.27" height="4.38"/>
			<path class="st2" d="M633,1356.01L633,1356.01c8.08,0,14.63-6.55,14.63-14.63v-11.98h-29.27v11.98
				C618.36,1349.46,624.92,1356.01,633,1356.01z"/>
		</g>
		<g>
			<path class="st5" d="M910.11,767.95v979.27H438.16V767.95H910.11z M450.14,1734.79h447.98V779.46H450.14V1734.79z"/>
			
				<rect x="366.26" y="767.95" transform="matrix(-1 -1.224647e-16 1.224647e-16 -1 804.4214 2514.9233)" class="st6" width="71.9" height="979.02"/>
			
				<rect x="443.69" y="998.25" transform="matrix(-1 -1.224647e-16 1.224647e-16 -1 1348.2654 2023.2246)" class="st5" width="460.88" height="26.73"/>
			
				<rect x="443.69" y="1243.76" transform="matrix(-1 -1.224647e-16 1.224647e-16 -1 1348.2654 2514.2534)" class="st5" width="460.88" height="26.73"/>
			
				<rect x="443.69" y="1489.28" transform="matrix(-1 -1.224647e-16 1.224647e-16 -1 1348.2654 3005.2822)" class="st5" width="460.88" height="26.73"/>
		</g>
		<g>
			<rect x="582.92" y="846" class="st3" width="33.22" height="152.35"/>
			<rect x="748.8" y="846" class="st3" width="33.22" height="152.35"/>
			<rect x="616.14" y="846" class="st2" width="33.22" height="152.35"/>
			<rect x="715.58" y="825.1" class="st3" width="33.22" height="173.24"/>
			<rect x="483.36" y="813.2" class="st4" width="33.22" height="185.23"/>
			<rect x="549.78" y="813.2" class="st4" width="33.22" height="185.23"/>
			<rect x="516.56" y="801.79" class="st2" width="33.22" height="196.59"/>
			<rect x="450.14" y="825.1" class="st2" width="33.22" height="173.24"/>
			<rect x="782.02" y="846" class="st2" width="33.22" height="152.35"/>
			<rect x="649.15" y="813.12" class="st4" width="33.22" height="185.23"/>
			<rect x="682.37" y="801.75" class="st2" width="33.22" height="196.59"/>
			<polygon class="st4" points="894.93,987.92 863.3,998.35 811.71,833.4 843.34,822.97 			"/>
			<rect x="753" y="854.85" class="st4" width="25.12" height="29.04"/>
			<rect x="685.6" y="812.34" class="st4" width="25.35" height="6.91"/>
			<rect x="685.6" y="823.97" class="st4" width="25.35" height="6.91"/>
			<rect x="718.2" y="841.83" class="st0" width="27.77" height="3.46"/>
			<path class="st3" d="M466.68,863.53L466.68,863.53c-6.78,0-12.27-5.49-12.27-12.27v-18.84h24.54v18.84
				C478.95,858.04,473.45,863.53,466.68,863.53z"/>
			<rect x="551.77" y="818.6" class="st3" width="28.11" height="3.8"/>
			<rect x="519.04" y="989.2" class="st3" width="27.96" height="5.99"/>
			<rect x="519.04" y="981.21" class="st3" width="27.96" height="5.99"/>
			<path class="st3" d="M533.02,975.84L533.02,975.84c-6.68,0-12.1-5.42-12.1-12.1l0,0c0-6.68,5.42-12.1,12.1-12.1h0
				c6.68,0,12.1,5.42,12.1,12.1l0,0C545.12,970.42,539.71,975.84,533.02,975.84z"/>
			<rect x="487.76" y="870.94" class="st2" width="24.43" height="58.3"/>
			<rect x="586.18" y="858.46" class="st0" width="26.12" height="5.99"/>
			<rect x="586.47" y="888.73" class="st0" width="26.12" height="5.99"/>
			<path class="st0" d="M807.18,871.06h-18.29c-2.5,0-4.53-2.03-4.53-4.53l0,0c0-2.5,2.03-4.53,4.53-4.53h18.29
				c2.5,0,4.53,2.03,4.53,4.53l0,0C811.71,869.03,809.68,871.06,807.18,871.06z"/>
		</g>
		<g>
			
				<rect x="2682.7" y="1372.59" transform="matrix(-1 -1.224647e-16 1.224647e-16 -1 5391.8643 2883.1919)" class="st2" width="26.46" height="138.01"/>
			
				<rect x="2511.06" y="1372.59" transform="matrix(-1 -1.224647e-16 1.224647e-16 -1 5048.5762 2883.1919)" class="st2" width="26.46" height="138.01"/>
			
				<rect x="2656.24" y="1353.99" transform="matrix(-1 -1.224647e-16 1.224647e-16 -1 5338.9385 2864.5894)" class="st4" width="26.46" height="156.61"/>
			
				<rect x="2629.77" y="1389.23" transform="matrix(-1 -1.224647e-16 1.224647e-16 -1 5286.0122 2899.8364)" class="st3" width="26.46" height="121.37"/>
			
				<rect x="2484.59" y="1363.04" transform="matrix(-1 -1.224647e-16 1.224647e-16 -1 4995.6499 2873.6458)" class="st4" width="26.46" height="147.56"/>
			
				<rect x="2457.26" y="1353.99" transform="matrix(-1 -1.224647e-16 1.224647e-16 -1 4941.8574 2864.5894)" class="st2" width="27.33" height="156.61"/>
			
				<rect x="2603.31" y="1372.59" transform="matrix(-1 -1.224647e-16 1.224647e-16 -1 5233.0859 2883.1919)" class="st2" width="26.46" height="138.01"/>
			<path class="st4" d="M2537.61,1502.29l25.2,8.31l40.43-129.29c0.37-1.17-0.28-2.42-1.44-2.81l-20.92-6.9
				c-1.19-0.39-2.48,0.27-2.85,1.47L2537.61,1502.29z"/>
			
				<rect x="2684.86" y="1383.6" transform="matrix(-1 -1.224647e-16 1.224647e-16 -1 5391.8643 2773.3289)" class="st4" width="22.15" height="6.12"/>
			
				<rect x="2684.86" y="1391.8" transform="matrix(-1 -1.224647e-16 1.224647e-16 -1 5391.8643 2786.1794)" class="st4" width="22.15" height="2.57"/>
			
				<rect x="2605.47" y="1495.22" transform="matrix(-1 -1.224647e-16 1.224647e-16 -1 5233.0859 2996.5605)" class="st4" width="22.15" height="6.12"/>
			
				<rect x="2605.47" y="1503.42" transform="matrix(-1 -1.224647e-16 1.224647e-16 -1 5233.0859 3009.4111)" class="st4" width="22.15" height="2.57"/>
			
				<rect x="2514.57" y="1378.46" transform="matrix(-1 -1.224647e-16 1.224647e-16 -1 5048.2305 2835.501)" class="st4" width="19.09" height="78.57"/>
			
				<rect x="2460.72" y="1363.04" transform="matrix(-1 -1.224647e-16 1.224647e-16 -1 4942.8564 2728.6582)" class="st4" width="21.42" height="2.57"/>
			
				<rect x="2460.72" y="1367.82" transform="matrix(-1 -1.224647e-16 1.224647e-16 -1 4942.8564 2738.2043)" class="st4" width="21.42" height="2.57"/>
			
				<rect x="2460.72" y="1372.59" transform="matrix(-1 -1.224647e-16 1.224647e-16 -1 4942.8564 2747.7502)" class="st4" width="21.42" height="2.57"/>
			
				<rect x="2631.39" y="1397.92" transform="matrix(-1 -1.224647e-16 1.224647e-16 -1 5286.0122 2820.4475)" class="st0" width="23.22" height="24.6"/>
			
				<rect x="2631.39" y="1425.14" transform="matrix(-1 -1.224647e-16 1.224647e-16 -1 5286.0122 2853.5835)" class="st0" width="23.22" height="3.3"/>
			
				<rect x="2658.86" y="1495.22" transform="matrix(-1 -1.224647e-16 1.224647e-16 -1 5339.2026 3002.3738)" class="st2" width="21.48" height="11.93"/>
			
				<rect x="2574.66" y="1387.52" transform="matrix(-0.9536 -0.3011 0.3011 -0.9536 4633.5571 3493.8325)" class="st2" width="22.76" height="4.59"/>
			
				<rect x="2486.3" y="1378.46" transform="matrix(-1 -1.224647e-16 1.224647e-16 -1 4995.9106 2760.4172)" class="st2" width="23.31" height="3.49"/>
			
				<rect x="2486.17" y="1373.69" transform="matrix(-1 -1.224647e-16 1.224647e-16 -1 4995.6499 2750.8711)" class="st2" width="23.31" height="3.49"/>
			<path class="st2" d="M2497.96,1404.44L2497.96,1404.44c6.44,0,11.66-5.22,11.66-11.66v-9.55h-23.31v9.55
				C2486.3,1399.22,2491.52,1404.44,2497.96,1404.44z"/>
		</g>
		<rect x="2720.2" y="849.13" class="st6" width="65.93" height="899.11"/>
		<rect x="2422.03" y="1060.32" class="st5" width="293.1" height="24.51"/>
		<rect x="2422.03" y="1284.83" class="st5" width="293.1" height="25.14"/>
		<rect x="2422.03" y="1510.3" class="st5" width="293.1" height="24.82"/>
		<path class="st5" d="M1914.14,767.35v979.39h471.95V767.35H1914.14z M2374.1,1734.19h-447.98V778.86h447.98V1734.19z"/>
		<rect x="2386.08" y="767.35" class="st6" width="71.9" height="979.74"/>
		<rect x="1919.67" y="997.64" class="st5" width="460.88" height="26.73"/>
		<rect x="1919.67" y="1243.16" class="st5" width="460.88" height="26.73"/>
		<rect x="1919.67" y="1488.67" class="st5" width="460.88" height="26.73"/>
		<polygon class="st5" points="2457.98,849.13 2457.98,859.69 2709.21,859.69 2709.21,1735.75 2457.98,1735.75 2457.98,1747.52 
			2720.2,1747.52 2720.2,849.13 		"/>
		<g>
			<path class="st7" d="M1364.36,1556.35c0.01,3.63,1.8,6.12,4.84,7.8c0.01,0.01,0.03,0.02,0.05,0.02c5.62,3.1,15.49,3.4,26.22,2.94
				c1.38-0.06,2.61-0.09,3.71-0.09c0.29,0,0.58,0,0.86,0.01c0.22,0,0.45,0.01,0.66,0.01c10.62,0.26,9.5,3.44,29.69,5.17
				c23.02,1.96,31.5-5.08,32.85-8.29c1.14-2.72-8.73-5.81-19.77-9.33c-0.53-0.17-1.07-0.35-1.61-0.51
				c-1.47-0.47-2.95-0.95-4.41-1.43c-13.14-4.37-26.07-9.55-29.3-22.85c-3.42-14.1,6.86-53.47,6.86-53.47l-36.47-3.94
				c0,0-3.52,41.15-5.81,53.97c-1.23,6.85-4.34,12.29-6.15,18.15c-0.13,0.41-0.25,0.82-0.36,1.24
				C1365.28,1549.18,1364.35,1552.71,1364.36,1556.35z"/>
			<path class="st8" d="M1364.36,1556.35c0.01,3.63,1.8,6.12,4.84,7.8c0.01,0.01,0.03,0.02,0.05,0.02
				c5.99,2.77,15.69,3.17,26.2,2.87c1.38-0.04,2.61-0.05,3.73-0.03c0.29,0,0.58,0,0.86,0.01c0.22,0,0.45,0.01,0.66,0.01
				c10.62,0.26,9.5,3.44,29.69,5.17c23.02,1.96,31.5-5.08,32.85-8.29c1.14-2.72-8.73-5.81-19.77-9.33
				c-3.1,1.2-17.85,6.32-35.31,3.01c-15.36-2.89-30.61-10.53-41.58-13.08c-0.13,0.41-0.25,0.82-0.36,1.24
				C1365.28,1549.18,1364.35,1552.71,1364.36,1556.35z"/>
			<path class="st7" d="M1601.03,1509.79c2.03,10.13,16.46,8.44,32.6,4.5c16.13-3.94,12.3,0.74,35.26-1.8
				c22.96-2.54,29.91-11.1,30.61-14.52c0.63-3.03-10.72-4.1-22.89-5.5c-1.53-0.17-3.07-0.36-4.6-0.55
				c-13.74-1.72-23.8-10.59-36.28-17.87c-11.82-6.9-29.46-34.99-29.46-34.99l-31.49,2.49c0,0,16.52,25.1,22.91,36.01
				c3.76,6.42,3.56,14.9,3.09,21.46C1600.55,1502.58,1600.32,1506.22,1601.03,1509.79z"/>
			<path class="st8" d="M1633.63,1514.29c16.13-3.94,12.3,0.74,35.26-1.8c22.96-2.54,29.91-11.1,30.61-14.52
				c0.63-3.03-10.72-4.1-22.89-5.5l-0.11,0.23c0,0-13.77,9.76-32.88,10.22c-15.58,0.38-32.07-4.08-42.83-3.91
				c-0.24,3.56-0.48,7.2,0.24,10.77C1603.06,1519.92,1617.5,1518.23,1633.63,1514.29z"/>
			<path class="st9" d="M1530.97,1047.34c0,0,7.5-18.38,15.75-19.13c8.25-0.75,34.51-4.88,36.38-1.13c1.88,3.75,0,17.25-5.63,22.13
				c-5.63,4.88-40.51,12.75-40.51,12.75L1530.97,1047.34z"/>
			<path class="st10" d="M1480.37,1308.46l-67.86,182.62c0,0-10.42,1.01-20.42-1.87c-9.2-2.65-19.74-9.61-19.74-9.61
				s16.83-175.35,47.69-211.82C1450.91,1231.31,1480.37,1308.46,1480.37,1308.46z"/>
			<path class="st6" d="M1211.98,1234.58c0,0,194.98-65.93,238.47-51.9c43.49,14.03,174.05,273.8,174.05,273.8
				s-2.94,3.92-10.99,6.94c-7.48,2.81-25.59,2.63-25.59,2.63s-117.83-101-131.86-130.46c-14.03-29.46-19.64-57.51-33.67-54.71
				s-180.96,68.74-218.83,29.46c-37.87-39.28-27.97-90.31-27.97-90.31L1211.98,1234.58z"/>
			<path class="st3" d="M1331.13,927.87c3.11-6.43,6.59-17.85,8.3-38.2c-0.26,2.02-3.77,27.69-13.64,42.23
				c-40.55,26.62-118.28,115.52-116.74,132.36c0,0-27.38-46.43-27.85-46.71c0,0-50.5-64.22,9.35-101
				c30.42-18.7,30.27-42.69,28.99-63.53c-1.28-20.85,8.3-110.57,69.24-87.09c0,0,9.78-4.35,14.16-3.69c0,0-3.58,0.68-5.4,2.56
				c7.06-0.42,17.17,0.1,25.59,4.9C1345.48,782.38,1365.47,896.27,1331.13,927.87z"/>
			<path class="st9" d="M1323.39,933.22c0.2,0.09-19.58,10.36-34.46,6.29c-14-3.82-23.14-21.96-22.95-22.01
				c5.93-1.18,7.64-9.32,7.51-44.32l2.68,0.53l45.06,8.92c0,0-1.03,14.18-1.06,27.54C1320.14,921.38,1320.82,932.02,1323.39,933.22z
				"/>
			<path class="st11" d="M1321.23,882.63c0,0-1.03,14.18-1.06,27.54c-25.21-0.71-38.54-23.71-44-36.46L1321.23,882.63z"/>
			<path class="st3" d="M1271.52,868.81c0,0-13.21-20.88-16.38-38.73c-2.26-12.74,4.23-59.99,51.7-53.18c0,0,13.79,1.36,26.75,10.11
				c10.31,6.96,25.18,21.99,8.55,63.21l-4.32,13.93L1271.52,868.81z"/>
			<path class="st9" d="M1329.65,895.28c0,0-59.65,0.98-59.69-36.17c-0.04-37.16-7.77-62.06,30.32-64.26
				c38.09-2.2,45.5,11.97,48.53,24.37C1351.83,831.62,1345.16,894.07,1329.65,895.28z"/>
			<path class="st3" d="M1273.32,801.77c0,0,40.74-27.86,53.63-8.59c3.91-3.35,10.87-5.78,20.07,5.38
				c13.83,16.76,1.52,46.39,1.52,46.39c-5.68,0.66-7.02-18.82-9.99-28.28c-2.24-7.14-9.73-14.42-13.28-17.58
				c-5.2,11.73-19.52,39.81-39.25,44.88c-25.07,6.45-35.94-0.27-35.94-0.27S1269.33,828.44,1273.32,801.77z"/>
			<path class="st12" d="M1190.55,1093.7c-5.88-24.67,14.13-72.55,35.02-112.18c18.96-35.92,38.63-65.06,40.4-64.02
				c50,29.67,54.51,5,54.51,5s45.41,6.03,58.27,28.17c17.79,30.61,37.16,122.47,56.19,121.11c8.74-0.63,96.65-33.67,96.65-33.67
				s14.65,13.72,11.84,30.55c0,0-43.4,29.07-80.11,47.61c-19.42,9.81-36.96,16.67-45.21,14.73c-16.72-3.94-42.84-42.7-56.95-65.52
				c-0.03-0.05-0.06-0.1-0.09-0.15c-18.01,101.97,6.48,125.19-5.92,135.94c-13.09,11.35-31.8-5.41-72.95,12.43
				c-26.99,11.71-64.45,28.64-89.66,31.58c-13.22,1.55-23.09-0.75-26.31-9.68C1156.89,1209.66,1201.78,1140.74,1190.55,1093.7z"/>
			<path class="st0" d="M1316.38,872.76c0,0,1.11,4.72,12.85,3.99c0,0,9.86-0.61,9.56-5.8
				C1338.8,870.95,1329.24,867.26,1316.38,872.76z"/>
			<path class="st13" d="M1166.24,1235.61c3.22,8.93,13.08,11.23,26.31,9.68c17.45-7.6,92.84-36.81,92-56.6
				c-1.25-29.3-14.5-30.24-5.14-66.4c7.51-29.04-43.54-88.75-54.65-100.48c-20.89,39.63-40.08,47.22-34.19,71.89
				C1201.78,1140.74,1156.89,1209.66,1166.24,1235.61z"/>
			<path class="st13" d="M1361.17,1065.5c14.11,22.82,40.23,61.58,56.95,65.52c8.25,1.95,25.79-4.92,45.21-14.73
				c-14.17,3.66-27.93,3.55-41.31,2.26c-14.5-1.4-18.7-19.17-41.62-45.83C1365.54,1055.44,1361.9,1059.79,1361.17,1065.5z"/>
			<path class="st9" d="M1291.32,1121.59c0,0,12.63-9.82,24.55-7.48c11.92,2.34,17.77,10.52,17.3,14.26
				c-0.47,3.74-6.78,14.26-15.9,15.2c-9.12,0.93-35.07-5.61-35.07-5.61L1291.32,1121.59z"/>
			<path class="st12" d="M1265.98,917.51c0,0-48.62,3-65.45,26.47c-23.69,33.04-64.84,167.95-53.62,198.81l147.92-0.62
				c0,0,3.59-16.76-1.4-24.86c-4.99-8.11-86.04-21.2-89.78-24.94c-3.74-3.74,46.76-72.95,46.76-84.17
				C1250.41,996.97,1265.98,917.51,1265.98,917.51z"/>
		</g>
		<g>
			<polygon class="st2" points="863,1749.82 1788.11,1749.82 1788.11,1446 863,1442.97 			"/>
			<rect x="863" y="1199.99" class="st14" width="925.12" height="79.45"/>
		</g>
		<path class="st2" d="M1809.29,1199.99H843.58c-14.13,0-25.58-11.45-25.58-25.58v-6.11c0-14.13,11.45-25.58,25.58-25.58h965.71
			c14.13,0,25.58,11.45,25.58,25.58v6.11C1834.86,1188.54,1823.41,1199.99,1809.29,1199.99z"/>
		<polygon class="st4" points="875.28,1442.97 1775.83,1446 1775.83,1279.44 875.28,1279.44 		"/>
		<g>
			<g>
				<polygon class="st3" points="1019.97,1004.97 1049.62,1142.72 934.07,1142.72 908.69,1007.48 911.49,1004.97 				"/>
				<polygon class="st15" points="1023.25,1004.97 1052.9,1142.72 937.35,1142.72 911.5,1004.97 				"/>
				<polygon class="st0" points="1019.28,1009.35 1046.06,1133.78 941.69,1133.78 918.34,1009.35 				"/>
			</g>
			<g>
				<path class="st15" d="M932.03,1019.34h79.44c1.46,0,2.66,1.2,2.66,2.66c0,1.46-1.2,2.66-2.66,2.66h-79.44
					c-1.46,0-2.66-1.2-2.66-2.66C929.37,1020.54,930.56,1019.34,932.03,1019.34z"/>
				<path class="st15" d="M936.08,1031.89h79.44c1.46,0,2.66,1.2,2.66,2.66c0,1.46-1.2,2.66-2.66,2.66h-79.44
					c-1.46,0-2.66-1.2-2.66-2.66C933.42,1033.09,934.62,1031.89,936.08,1031.89z"/>
				<path class="st15" d="M938.61,1043.93h79.44c1.46,0,2.66,1.2,2.66,2.66c0,1.46-1.2,2.66-2.66,2.66h-79.44
					c-1.46,0-2.66-1.2-2.66-2.66C935.95,1045.12,937.15,1043.93,938.61,1043.93z"/>
				<path class="st15" d="M942.29,1068.74h79.44c1.46,0,2.66,1.2,2.66,2.66c0,1.46-1.2,2.66-2.66,2.66h-79.44
					c-1.46,0-2.66-1.2-2.66-2.66C939.63,1069.94,940.83,1068.74,942.29,1068.74z"/>
				<path class="st15" d="M946.34,1081.29h79.44c1.46,0,2.66,1.2,2.66,2.66c0,1.46-1.2,2.66-2.66,2.66h-79.44
					c-1.46,0-2.66-1.2-2.66-2.66C943.68,1082.48,944.88,1081.29,946.34,1081.29z"/>
				<path class="st15" d="M948.88,1093.32h79.44c1.46,0,2.66,1.2,2.66,2.66c0,1.46-1.2,2.66-2.66,2.66h-79.44
					c-1.46,0-2.66-1.2-2.66-2.66C946.22,1094.52,947.41,1093.32,948.88,1093.32z"/>
			</g>
			<g>
				
					<rect x="1077.8" y="1080.94" transform="matrix(0.9574 -0.2888 0.2888 0.9574 -274.8069 359.1272)" class="st3" width="3.29" height="59.55"/>
				<path class="st5" d="M1087.43,1133.25c5.91,0,10.77,4.13,11.52,9.47h-23.04C1076.66,1137.38,1081.52,1133.25,1087.43,1133.25z"
					/>
				<g>
					<path class="st5" d="M1072.33,1141.19c4.41,0,8.79-0.73,9.14-0.79l-0.13-0.75c-4.4,0.75-16.13,1.89-17.44-1.8
						c-0.58-1.64-0.04-4.39,0.72-8.21c1.37-6.94,3.45-17.43,1.01-32.07c-1.91-11.46-0.49-14.93,1.04-15.82
						c1.6-0.94,3.75,0.77,3.77,0.79l0.48-0.59c-0.11-0.08-2.59-2.05-4.63-0.85c-2.52,1.47-2.99,7.06-1.4,16.6
						c2.42,14.5,0.36,24.91-1,31.79c-0.78,3.93-1.34,6.78-0.69,8.61C1064.05,1140.55,1068.2,1141.19,1072.33,1141.19z"/>
				</g>
			</g>
		</g>
		<rect x="1926.12" y="824.4" class="st2" width="33.22" height="173.24"/>
		<rect x="2141.58" y="824.4" class="st2" width="33.22" height="173.24"/>
		<rect x="1959.34" y="801.05" class="st4" width="33.22" height="196.59"/>
		<rect x="1992.56" y="845.29" class="st3" width="33.22" height="152.35"/>
		<rect x="2307.67" y="845.29" class="st2" width="33.22" height="152.35"/>
		<rect x="2340.88" y="824.4" class="st3" width="33.22" height="173.24"/>
		<rect x="2174.8" y="812.42" class="st4" width="33.22" height="185.23"/>
		<rect x="2274.45" y="812.42" class="st4" width="33.22" height="185.23"/>
		<rect x="2208.02" y="801.05" class="st2" width="33.22" height="196.59"/>
		<rect x="2241.24" y="845.29" class="st3" width="33.22" height="152.35"/>
		<rect x="2025.78" y="824.4" class="st2" width="33.22" height="173.24"/>
		<polygon class="st4" points="2142.21,987.22 2110.58,997.64 2058.99,832.7 2090.62,822.27 		"/>
		<rect x="1928.83" y="838.23" class="st4" width="27.81" height="7.68"/>
		<rect x="1928.83" y="848.52" class="st4" width="27.81" height="3.23"/>
		<rect x="2028.48" y="978.34" class="st4" width="27.81" height="7.68"/>
		<rect x="2028.48" y="988.63" class="st4" width="27.81" height="3.23"/>
		
			<rect x="1694.22" y="1039.49" transform="matrix(-1.836970e-16 1 -1 -1.836970e-16 2836.9441 -584.7172)" class="st4" width="33.22" height="173.24"/>
		
			<rect x="1625.77" y="1122.27" transform="matrix(-1.836970e-16 1 -1 -1.836970e-16 2765.7896 -513.5626)" class="st3" width="27.81" height="7.68"/>
		
			<rect x="1617.71" y="1124.5" transform="matrix(-1.836970e-16 1 -1 -1.836970e-16 2757.7241 -505.4972)" class="st3" width="27.81" height="3.23"/>
		
			<rect x="1711.73" y="1006.27" transform="matrix(-1.836970e-16 1 -1 -1.836970e-16 2821.2393 -635.4493)" class="st2" width="33.22" height="173.24"/>
		<path class="st4" d="M1793.57,1102.96v-20.13c0-2.12,1.72-3.84,3.84-3.84l0,0c2.12,0,3.84,1.72,3.84,3.84v20.13
			c0,2.12-1.72,3.84-3.84,3.84l0,0C1795.29,1106.8,1793.57,1105.08,1793.57,1102.96z"/>
		
			<rect x="1775.44" y="1091.28" transform="matrix(-1.836970e-16 1 -1 -1.836970e-16 2882.2434 -696.4535)" class="st4" width="27.81" height="3.23"/>
		
			<rect x="1791.65" y="1091.28" transform="matrix(-1.836970e-16 1 -1 -1.836970e-16 2898.4512 -712.6613)" class="st4" width="27.81" height="3.23"/>
		
			<rect x="1679.47" y="973.05" transform="matrix(-1.836970e-16 1 -1 -1.836970e-16 2755.7588 -636.406)" class="st3" width="33.22" height="173.24"/>
		<path class="st4" d="M1615.25,1073.58v-27.81h53.47c7.68,0,13.9,6.23,13.9,13.9v0c0,7.68-6.23,13.9-13.9,13.9H1615.25z"/>
		<rect x="2146.43" y="831.78" class="st4" width="23.97" height="98.63"/>
		<path class="st4" d="M2326.32,871.72h-3.38c-3.99,0-7.22-3.23-7.22-7.22l0,0c0-3.99,3.23-7.22,7.22-7.22h3.38
			c3.99,0,7.22,3.23,7.22,7.22l0,0C2333.54,868.49,2330.31,871.72,2326.32,871.72z"/>
		<rect x="2211.1" y="812.42" class="st4" width="26.88" height="3.23"/>
		<rect x="2211.1" y="818.41" class="st4" width="26.88" height="3.23"/>
		<rect x="2211.1" y="824.4" class="st4" width="26.88" height="3.23"/>
		<rect x="1994.59" y="856.2" class="st0" width="29.15" height="30.88"/>
		<rect x="1994.59" y="890.37" class="st0" width="29.15" height="4.15"/>
		<rect x="2343.45" y="988.48" class="st0" width="27.42" height="4.84"/>
		<rect x="2343.45" y="980.41" class="st0" width="27.42" height="4.84"/>
		<rect x="2343.45" y="950.22" class="st0" width="27.42" height="26.27"/>
		<path class="st2" d="M2258.42,936.23h-1.15c-7.25,0-13.14-5.88-13.14-13.14l0,0c0-7.25,5.88-13.14,13.14-13.14h1.15
			c7.25,0,13.14,5.88,13.14,13.14l0,0C2271.56,930.35,2265.67,936.23,2258.42,936.23z"/>
		<rect x="1962.3" y="978.34" class="st2" width="26.96" height="14.98"/>
		
			<rect x="2066.38" y="843.14" transform="matrix(0.9536 -0.3011 0.3011 0.9536 -158.1827 665.7944)" class="st2" width="28.57" height="5.76"/>
		<rect x="2176.61" y="831.78" class="st2" width="29.27" height="4.38"/>
		<rect x="2176.78" y="825.78" class="st2" width="29.27" height="4.38"/>
		<path class="st2" d="M2191.25,864.38L2191.25,864.38c-8.08,0-14.63-6.55-14.63-14.63v-11.98h29.27v11.98
			C2205.88,857.83,2199.33,864.38,2191.25,864.38z"/>
		<g>
			<rect x="2058.67" y="1090.77" class="st3" width="33.22" height="152.35"/>
			<rect x="2224.55" y="1090.77" class="st3" width="33.22" height="152.35"/>
			<rect x="2091.89" y="1090.77" class="st2" width="33.22" height="152.35"/>
			<rect x="2191.33" y="1069.88" class="st3" width="33.22" height="173.24"/>
			<rect x="1959.11" y="1057.97" class="st4" width="33.22" height="185.23"/>
			<rect x="2025.53" y="1057.97" class="st4" width="33.22" height="185.23"/>
			<rect x="1992.31" y="1046.56" class="st2" width="33.22" height="196.59"/>
			<rect x="1925.89" y="1069.88" class="st2" width="33.22" height="173.24"/>
			<rect x="2257.77" y="1090.77" class="st2" width="33.22" height="152.35"/>
			<rect x="2124.9" y="1057.89" class="st4" width="33.22" height="185.23"/>
			<rect x="2158.12" y="1046.53" class="st2" width="33.22" height="196.59"/>
			<polygon class="st4" points="2370.68,1232.69 2339.05,1243.12 2287.46,1078.17 2319.09,1067.74 			"/>
			<rect x="2228.75" y="1099.63" class="st4" width="25.12" height="29.04"/>
			<rect x="2161.35" y="1057.11" class="st4" width="25.35" height="6.91"/>
			<rect x="2161.35" y="1068.75" class="st4" width="25.35" height="6.91"/>
			<rect x="2193.95" y="1086.61" class="st0" width="27.77" height="3.46"/>
			<path class="st3" d="M1942.43,1108.31L1942.43,1108.31c-6.78,0-12.27-5.49-12.27-12.27v-18.84h24.54v18.84
				C1954.7,1102.81,1949.2,1108.31,1942.43,1108.31z"/>
			<rect x="2027.52" y="1063.37" class="st3" width="28.11" height="3.8"/>
			<rect x="1994.79" y="1233.97" class="st3" width="27.96" height="5.99"/>
			<rect x="1994.79" y="1225.99" class="st3" width="27.96" height="5.99"/>
			<path class="st3" d="M2008.77,1220.61L2008.77,1220.61c-6.68,0-12.1-5.42-12.1-12.1l0,0c0-6.68,5.42-12.1,12.1-12.1l0,0
				c6.68,0,12.1,5.42,12.1,12.1l0,0C2020.87,1215.19,2015.46,1220.61,2008.77,1220.61z"/>
			<rect x="1963.51" y="1115.71" class="st2" width="24.43" height="58.3"/>
			<rect x="2061.93" y="1103.24" class="st0" width="26.12" height="5.99"/>
			<rect x="2062.22" y="1133.5" class="st0" width="26.12" height="5.99"/>
			<path class="st0" d="M2282.93,1115.83h-18.29c-2.5,0-4.53-2.03-4.53-4.53l0,0c0-2.5,2.03-4.53,4.53-4.53h18.29
				c2.5,0,4.53,2.03,4.53,4.53l0,0C2287.46,1113.8,2285.43,1115.83,2282.93,1115.83z"/>
		</g>
		<g>
			<rect x="2478.69" y="1172.8" class="st2" width="24.55" height="112.6"/>
			<rect x="2601.28" y="1138.4" class="st3" width="24.55" height="147"/>
			<rect x="2503.24" y="1172.8" class="st3" width="24.55" height="112.6"/>
			<rect x="2576.74" y="1157.36" class="st4" width="24.55" height="128.04"/>
			<rect x="2457.98" y="1148.56" class="st4" width="20.76" height="136.9"/>
			<rect x="2625.84" y="1172.8" class="st2" width="24.55" height="112.6"/>
			<rect x="2527.64" y="1198.51" class="st4" width="24.55" height="86.89"/>
			<rect x="2552.19" y="1140.1" class="st2" width="24.55" height="145.3"/>
			<polygon class="st4" points="2709.28,1277.69 2685.91,1285.4 2647.78,1163.49 2671.16,1155.78 			"/>
			<rect x="2604.39" y="1260.52" class="st2" width="18.56" height="21.46"/>
			<rect x="2554.57" y="1147.92" class="st4" width="18.73" height="5.11"/>
			<rect x="2554.57" y="1156.53" class="st4" width="18.73" height="5.11"/>
			<rect x="2578.67" y="1169.72" class="st0" width="20.52" height="2.55"/>
			<rect x="2457.94" y="1152.55" class="st3" width="18.49" height="2.81"/>
			<rect x="2481.09" y="1182.02" class="st0" width="19.3" height="4.43"/>
			<rect x="2481.31" y="1204.38" class="st0" width="19.3" height="4.43"/>
			<path class="st0" d="M2644.43,1191.33h-13.52c-1.85,0-3.35-1.5-3.35-3.35l0,0c0-1.85,1.5-3.35,3.35-3.35h13.52
				c1.85,0,3.35,1.5,3.35,3.35l0,0C2647.78,1189.83,2646.28,1191.33,2644.43,1191.33z"/>
		</g>
		<g>
			
				<rect x="2580.9" y="1617.23" transform="matrix(-1 -1.224647e-16 1.224647e-16 -1 5187.7549 3353.5334)" class="st3" width="25.96" height="119.08"/>
			
				<rect x="2457.98" y="1617.23" transform="matrix(-1 -1.224647e-16 1.224647e-16 -1 4935.1885 3353.5334)" class="st2" width="19.23" height="119.08"/>
			
				<rect x="2554.93" y="1617.23" transform="matrix(-1 -1.224647e-16 1.224647e-16 -1 5135.8262 3353.5334)" class="st2" width="25.96" height="119.08"/>
			
				<rect x="2477.2" y="1600.9" transform="matrix(-1 -1.224647e-16 1.224647e-16 -1 4980.374 3337.2029)" class="st3" width="25.96" height="135.41"/>
			
				<rect x="2658.71" y="1591.59" transform="matrix(-1 -1.224647e-16 1.224647e-16 -1 5343.3931 3327.9568)" class="st4" width="25.96" height="144.78"/>
			
				<rect x="2606.8" y="1591.59" transform="matrix(-1 -1.224647e-16 1.224647e-16 -1 5239.5625 3327.9568)" class="st4" width="25.96" height="144.78"/>
			
				<rect x="2632.76" y="1582.67" transform="matrix(-1 -1.224647e-16 1.224647e-16 -1 5291.4907 3319.0107)" class="st2" width="25.96" height="153.66"/>
			
				<rect x="2684.68" y="1600.9" transform="matrix(-1 -1.224647e-16 1.224647e-16 -1 5395.3213 3337.2029)" class="st2" width="25.96" height="135.41"/>
			
				<rect x="2529.13" y="1591.53" transform="matrix(-1 -1.224647e-16 1.224647e-16 -1 5084.2266 3327.8367)" class="st4" width="25.96" height="144.78"/>
			
				<rect x="2503.17" y="1582.64" transform="matrix(-1 -1.224647e-16 1.224647e-16 -1 5032.2979 3318.9507)" class="st2" width="25.96" height="153.66"/>
			
				<rect x="2457.98" y="1624.15" transform="matrix(-1 -1.224647e-16 1.224647e-16 -1 4931.9053 3270.9922)" class="st4" width="15.94" height="22.69"/>
			
				<rect x="2506.8" y="1590.92" transform="matrix(-1 -1.224647e-16 1.224647e-16 -1 5033.4038 3187.2373)" class="st4" width="19.81" height="5.4"/>
			
				<rect x="2506.8" y="1600.01" transform="matrix(-1 -1.224647e-16 1.224647e-16 -1 5033.4038 3205.4292)" class="st4" width="19.81" height="5.4"/>
			
				<rect x="2479.42" y="1613.97" transform="matrix(-1 -1.224647e-16 1.224647e-16 -1 4980.5391 3230.6458)" class="st0" width="21.7" height="2.7"/>
			<path class="st3" d="M2697.72,1630.93L2697.72,1630.93c5.3,0,9.59-4.29,9.59-9.59v-14.72h-19.18v14.72
				C2688.13,1626.64,2692.42,1630.93,2697.72,1630.93z"/>
			
				<rect x="2609.24" y="1595.81" transform="matrix(-1 -1.224647e-16 1.224647e-16 -1 5240.4497 3194.592)" class="st3" width="21.97" height="2.97"/>
			
				<rect x="2634.93" y="1729.16" transform="matrix(-1 -1.224647e-16 1.224647e-16 -1 5291.7236 3462.9983)" class="st3" width="21.85" height="4.68"/>
			
				<rect x="2634.93" y="1722.91" transform="matrix(-1 -1.224647e-16 1.224647e-16 -1 5291.7236 3450.51)" class="st3" width="21.85" height="4.68"/>
			<path class="st3" d="M2645.86,1718.71L2645.86,1718.71c5.22,0,9.46-4.23,9.46-9.46l0,0c0-5.22-4.23-9.46-9.46-9.46l0,0
				c-5.22,0-9.46,4.23-9.46,9.46l0,0C2636.41,1714.48,2640.64,1718.71,2645.86,1718.71z"/>
			
				<rect x="2662.15" y="1636.72" transform="matrix(-1 -1.224647e-16 1.224647e-16 -1 5343.3931 3319.011)" class="st2" width="19.09" height="45.57"/>
			
				<rect x="2583.9" y="1626.97" transform="matrix(-1 -1.224647e-16 1.224647e-16 -1 5188.2158 3258.624)" class="st0" width="20.41" height="4.68"/>
			
				<rect x="2583.67" y="1650.63" transform="matrix(-1 -1.224647e-16 1.224647e-16 -1 5187.7549 3305.9353)" class="st0" width="20.41" height="4.68"/>
		</g>
		<g>
			<g>
				<rect x="2054.15" y="1592.27" class="st2" width="32.03" height="141.84"/>
				<rect x="2310.19" y="1592.27" class="st3" width="32.03" height="141.84"/>
				<rect x="2214.1" y="1587.21" class="st3" width="32.03" height="146.9"/>
				<rect x="2086.18" y="1587.21" class="st4" width="32.03" height="146.9"/>
				<rect x="2182.07" y="1607.01" class="st2" width="32.03" height="127.11"/>
				<rect x="1958.15" y="1542.23" class="st3" width="32.03" height="191.96"/>
				<rect x="2278.16" y="1542.23" class="st2" width="32.03" height="191.96"/>
				<rect x="2022.2" y="1555.58" class="st3" width="32.03" height="178.6"/>
				<rect x="1990.17" y="1602.64" class="st2" width="32.03" height="131.51"/>
				<rect x="1926.12" y="1567.06" class="st4" width="32.03" height="167.05"/>
				<rect x="2342.07" y="1567.06" class="st4" width="32.03" height="167.05"/>
				<rect x="2246.13" y="1561.42" class="st4" width="32.03" height="172.69"/>
				<rect x="2118.01" y="1555.51" class="st3" width="32.03" height="178.6"/>
				<rect x="2150.04" y="1544.55" class="st4" width="32.03" height="189.57"/>
				<rect x="2218.15" y="1595.75" class="st4" width="24.22" height="28"/>
				<rect x="2153.16" y="1554.75" class="st4" width="24.44" height="6.67"/>
				<rect x="2153.16" y="1565.97" class="st4" width="24.44" height="6.67"/>
				<path class="st3" d="M1942.06,1604.12L1942.06,1604.12c-6.53,0-11.83-5.3-11.83-11.83v-18.17h23.66v18.17
					C1953.89,1598.82,1948.6,1604.12,1942.06,1604.12z"/>
				<rect x="2024.11" y="1560.79" class="st3" width="27.11" height="3.67"/>
				<rect x="1992.56" y="1725.29" class="st3" width="26.96" height="5.78"/>
				<rect x="1992.56" y="1717.59" class="st3" width="26.96" height="5.78"/>
				<path class="st3" d="M2006.04,1712.41L2006.04,1712.41c-6.44,0-11.67-5.22-11.67-11.67v0c0-6.44,5.22-11.67,11.67-11.67l0,0
					c6.44,0,11.67,5.22,11.67,11.67v0C2017.7,1707.18,2012.48,1712.41,2006.04,1712.41z"/>
				<rect x="1962.39" y="1611.26" class="st2" width="23.55" height="56.22"/>
				<rect x="2057.29" y="1599.23" class="st0" width="25.18" height="5.78"/>
				<rect x="2057.58" y="1628.41" class="st0" width="25.18" height="5.78"/>
				<path class="st0" d="M2270.39,1577.6h-17.63c-2.41,0-4.37-1.96-4.37-4.37l0,0c0-2.41,1.96-4.37,4.37-4.37h17.63
					c2.41,0,4.37,1.96,4.37,4.37l0,0C2274.76,1575.65,2272.81,1577.6,2270.39,1577.6z"/>
			</g>
			<rect x="2121.7" y="1709.3" class="st0" width="24.66" height="21.77"/>
			<rect x="2184.83" y="1723.37" class="st2" width="26.12" height="4.81"/>
			<rect x="2346.76" y="1639.33" class="st2" width="23.04" height="7.51"/>
			<rect x="2346.76" y="1651.55" class="st2" width="23.04" height="7.51"/>
		</g>
		<g>
			<g>
				
					<rect x="2549.15" y="918.4" transform="matrix(-1 -1.224647e-16 1.224647e-16 -1 5130.3394 1978.6421)" class="st2" width="32.03" height="141.84"/>
				
					<rect x="2517.12" y="913.34" transform="matrix(-1 -1.224647e-16 1.224647e-16 -1 5066.2773 1973.579)" class="st4" width="32.03" height="146.9"/>
				
					<rect x="2645.16" y="868.36" transform="matrix(-1 -1.224647e-16 1.224647e-16 -1 5322.3433 1928.6748)" class="st3" width="32.03" height="191.96"/>
				
					<rect x="2581.11" y="881.71" transform="matrix(-1 -1.224647e-16 1.224647e-16 -1 5194.252 1942.0261)" class="st3" width="32.03" height="178.6"/>
				
					<rect x="2613.14" y="928.77" transform="matrix(-1 -1.224647e-16 1.224647e-16 -1 5258.3135 1989.0435)" class="st2" width="32.03" height="131.51"/>
				
					<rect x="2677.19" y="893.19" transform="matrix(-1 -1.224647e-16 1.224647e-16 -1 5386.4048 1953.4325)" class="st4" width="32.03" height="167.05"/>
				
					<rect x="2485.29" y="881.64" transform="matrix(-1 -1.224647e-16 1.224647e-16 -1 5002.6206 1941.8779)" class="st3" width="32.03" height="178.6"/>
				
					<rect x="2457.98" y="870.67" transform="matrix(-1 -1.224647e-16 1.224647e-16 -1 4943.2764 1930.9159)" class="st4" width="27.31" height="189.57"/>
				
					<rect x="2457.98" y="880.88" transform="matrix(-1 -1.224647e-16 1.224647e-16 -1 4940.1641 1768.4268)" class="st2" width="24.2" height="6.67"/>
				
					<rect x="2457.98" y="892.1" transform="matrix(-1 -1.224647e-16 1.224647e-16 -1 4940.1641 1790.8693)" class="st2" width="24.2" height="6.67"/>
				<path class="st3" d="M2693.28,930.25L2693.28,930.25c6.53,0,11.83-5.3,11.83-11.83v-18.17h-23.66v18.17
					C2681.44,924.95,2686.74,930.25,2693.28,930.25z"/>
				
					<rect x="2584.12" y="886.92" transform="matrix(-1 -1.224647e-16 1.224647e-16 -1 5195.3467 1777.5)" class="st3" width="27.11" height="3.67"/>
				
					<rect x="2615.82" y="1051.42" transform="matrix(-1 -1.224647e-16 1.224647e-16 -1 5258.6006 2108.6208)" class="st3" width="26.96" height="5.78"/>
				
					<rect x="2615.82" y="1043.72" transform="matrix(-1 -1.224647e-16 1.224647e-16 -1 5258.6006 2093.2146)" class="st3" width="26.96" height="5.78"/>
				<path class="st3" d="M2629.3,1038.53L2629.3,1038.53c6.44,0,11.67-5.22,11.67-11.67l0,0c0-6.44-5.22-11.67-11.67-11.67l0,0
					c-6.44,0-11.67,5.22-11.67,11.67l0,0C2617.63,1033.31,2622.86,1038.53,2629.3,1038.53z"/>
				
					<rect x="2649.39" y="937.39" transform="matrix(-1 -1.224647e-16 1.224647e-16 -1 5322.3433 1930.99)" class="st2" width="23.55" height="56.22"/>
				
					<rect x="2552.86" y="925.36" transform="matrix(-1 -1.224647e-16 1.224647e-16 -1 5130.9077 1856.4935)" class="st0" width="25.18" height="5.78"/>
				
					<rect x="2552.58" y="954.54" transform="matrix(-1 -1.224647e-16 1.224647e-16 -1 5130.3389 1914.8591)" class="st0" width="25.18" height="5.78"/>
			</g>
			
				<rect x="2488.98" y="1035.43" transform="matrix(-1 -1.224647e-16 1.224647e-16 -1 5002.6206 2092.6274)" class="st0" width="24.66" height="21.77"/>
		</g>
	</g>
	<path class="st16" d="M2855.51,1752.89H296.89c-1.69,0-3.08-1.38-3.08-3.08l0,0c0-1.69,1.38-3.08,3.08-3.08h2558.62
		c1.69,0,3.08,1.39,3.08,3.08l0,0C2858.59,1751.51,2857.2,1752.89,2855.51,1752.89z"/>
	<g>
		<g>
			<g>
				<path class="st15" d="M1981.72,635.22c0,0,21.94-25.59,1.35-41.85c0,0-15.03-9.1-27.29-8.36c0,0,17.37,29.13,11.75,32.03
					c-5.62,2.9-17.02-33.85-17.02-33.85s-34.21-3.32-45.22,1.97c0,0,29.25,23.94,23.09,25.36c-6.16,1.43-37.75-22.07-37.75-22.07
					s-31.84,5.42-30.15,24.84c1.7,19.43,12.67,25.42,17.49,24.91c4.82-0.52,33.03-11.29,33.65-7.33
					c0.61,3.95-16.37,16.87-28.26,17.47c0,0,22.45,24.76,37.37,17.61c14.92-7.15,16.19-18.47,25.49-22.72
					c9.3-4.25,17.24-4.24,13.4,0.09c-3.84,4.33-20.67,8.54-25.99,17.95c-5.32,9.41-10.09,15.75,5.35,13.43
					c15.44-2.32,40.53-13.62,41.63-26.55C1981.72,635.22,1981.72,635.22,1981.72,635.22z"/>
				<g>
					<path class="st15" d="M1876.13,613.81c0,0,86.49-3.33,105.59,21.4c0,0,4.22,12.65,17.22,24.17l2.03,5.52
						c0,0-14.99-15.8-20.35-16.76C1980.62,648.15,1989.01,617.51,1876.13,613.81z"/>
					<path class="st15" d="M1998.94,659.39c0,0,18.57,13.73,19.85,38.26l-3.37,0.3c0,0-5.93-25.37-16.65-35.28
						C1988.06,652.75,1998.94,659.39,1998.94,659.39z"/>
				</g>
			</g>
			<g>
				<path class="st17" d="M2058.42,603.03c0,0-34.89-19.54-18.61-46.06c0,0,13.03-16.28,26.98-20.47c0,0-7.44,39.55,0,40.48
					c7.44,0.93,5.12-44.66,5.12-44.66s36.76-17.68,51.18-16.28c0,0-22.8,38.62-15.35,37.69c7.44-0.93,33.03-40.01,33.03-40.01
					s37.69-6.98,43.73,15.35c6.05,22.33-3.72,33.5-9.3,34.89c-5.58,1.4-41.41,0.93-40.48,5.58c0.93,4.65,25.12,12.1,38.62,7.91
					c0,0-14.89,36.76-34.43,34.89c-19.54-1.86-25.59-13.96-37.69-14.89c-12.1-0.93-20.94,2.33-14.89,5.58
					c6.05,3.26,26.52,1.07,36.29,9.37c9.77,8.31,17.68,13.42-0.47,17.15c-18.15,3.72-50.71,1.4-57.23-12.56
					C2058.42,603.03,2058.42,603.03,2058.42,603.03z"/>
				<g>
					<path class="st15" d="M2167.29,536.04c0,0-97.7,31.64-108.87,67c0,0,0.47,15.82-9.3,33.96v6.98c0,0,10.24-23.73,15.82-26.99
						C2064.93,616.99,2043.06,586.28,2167.29,536.04z"/>
					<path class="st15" d="M2049.11,637c0,0-15.07,22.88-6.48,50.73l3.88-1.04c0,0-3.76-30.68,4.12-46.11
						C2058.51,625.15,2049.11,637,2049.11,637z"/>
				</g>
			</g>
			<g>
				<path class="st17" d="M2002.9,576.08c0,0,46-25.76,24.53-60.72c0,0-17.17-21.47-35.57-26.99c0,0,9.81,52.13,0,53.36
					c-9.81,1.23-6.75-58.88-6.75-58.88s-48.45-23.3-67.46-21.47c0,0,30.05,50.9,20.24,49.68c-9.81-1.23-43.54-52.74-43.54-52.74
					s-49.68-9.2-57.65,20.24c-7.97,29.44,4.91,44.16,12.27,46c7.36,1.84,54.58,1.23,53.36,7.36c-1.23,6.13-33.12,15.95-50.9,10.43
					c0,0,19.63,48.45,45.38,46c25.76-2.45,33.73-18.4,49.68-19.63c15.95-1.23,27.6,3.07,19.63,7.36
					c-7.97,4.29-34.96,1.41-47.84,12.36c-12.88,10.95-23.31,17.7,0.61,22.6c23.92,4.91,66.85,1.84,75.44-16.56
					C2002.9,576.08,2002.9,576.08,2002.9,576.08z"/>
				<g>
					<path class="st15" d="M1859.39,487.77c0,0,128.79,41.7,143.51,88.31c0,0-0.61,20.85,12.27,44.77v9.2
						c0,0-13.49-31.28-20.85-35.57C1994.32,594.48,2023.14,554,1859.39,487.77z"/>
					<path class="st15" d="M2015.17,620.85c0,0,19.86,30.16,8.54,66.88l-5.11-1.37c0,0,4.96-40.44-5.43-60.78
						C2002.77,605.24,2015.17,620.85,2015.17,620.85z"/>
				</g>
			</g>
			<path class="st4" d="M2004.45,767.35c-49.76,0-90.1-40.34-90.1-90.1h180.2C2094.55,727.01,2054.21,767.35,2004.45,767.35z"/>
			<path class="st18" d="M1983.77,764.96c3.1,0.67,6.41,1.78,10.2,1.78c49.76,0,89.6-39.74,89.6-89.5h-22.38
				C2061.19,723.22,2028.25,759.45,1983.77,764.96z"/>
			
				<rect x="1912.3" y="677.25" transform="matrix(-1 -1.224647e-16 1.224647e-16 -1 4009.8167 1357.256)" class="st19" width="185.22" height="2.76"/>
		</g>
		<path class="st4" d="M2047.7,767.35h-86.5c-1.47,0-2.66-1.19-2.66-2.66l0,0c0-1.47,1.19-2.66,2.66-2.66h86.5
			c1.47,0,2.66,1.19,2.66,2.66l0,0C2050.36,766.16,2049.17,767.35,2047.7,767.35z"/>
	</g>
</g>
</svg>
