<svg id="Component_22_1" data-name="Component 22 – 1" xmlns="http://www.w3.org/2000/svg" width="153.039" height="405.898" viewBox="0 0 153.039 405.898">
  <g id="Group_15" data-name="Group 15" transform="translate(-189.821 -435.079)">
    <path id="Fill_200" data-name="Fill 200" d="M37.528,6.6l-7.719,28S56.053,49.8,55.128,55.117L0,44.121,10.241,0Z" transform="translate(189.822 785.403)" fill="#da2c2c"/>
    <path id="Fill_204" data-name="Fill 204" d="M0,4.448,1.033,0,53.9,12.479A3.9,3.9,0,0,1,55.328,15.9Z" transform="translate(189.821 825.076)" fill="#fff"/>
    <path id="Fill_206" data-name="Fill 206" d="M5.7.556c-.072.266-1.436.068-2.954.615C1.213,1.679.261,2.678.04,2.513-.193,2.4.584.9,2.435.266,4.278-.38,5.816.325,5.7.556" transform="translate(214.884 819.374)" fill="#1a2e35"/>
    <path id="Fill_208" data-name="Fill 208" d="M4.525.223c0,.274-1.265.454-2.441,1.37C.881,2.473.362,3.644.1,3.569-.162,3.55.025,1.939,1.508.827s3.071-.859,3.017-.6" transform="translate(221.229 823.455)" fill="#1a2e35"/>
    <path id="Fill_210" data-name="Fill 210" d="M.156,4.151c-.255,0-.31-1.428.724-2.731S3.3-.167,3.361.083c.1.256-.9.85-1.731,1.932C.772,3.077.428,4.187.156,4.151" transform="translate(227.219 827.188)" fill="#1a2e35"/>
    <path id="Fill_212" data-name="Fill 212" d="M5.753,1.731c-.17.217-1.307-.444-2.84-.7C1.384.739.09.966.006.7-.1.473,1.278-.244,3.08.085S5.935,1.551,5.753,1.731" transform="translate(215.883 811.624)" fill="#1a2e35"/>
    <path id="Fill_214" data-name="Fill 214" d="M28.181,6.216l-1.37,4.992L0,4.544,1.042,0Z" transform="translate(197.633 791.327)"/>
    <path id="Fill_216" data-name="Fill 216" d="M7.589,6.11c-.023.112-1.117.026-2.736-.668A12.663,12.663,0,0,1,2.2,3.875,13.106,13.106,0,0,1,.825,2.663a3.5,3.5,0,0,1-.674-.842A1.2,1.2,0,0,1,.369.365,1.5,1.5,0,0,1,1.683.034a3.681,3.681,0,0,1,.993.387,10.108,10.108,0,0,1,1.563.992A9.979,9.979,0,0,1,6.37,3.678C7.358,5.16,7.554,6.262,7.449,6.294c-.141.059-.56-.927-1.619-2.206A11.26,11.26,0,0,0,3.716,2.124a10.512,10.512,0,0,0-1.457-.863C1.717.971,1.224.849,1.014,1.073.937,1.157.922,1.2,1,1.393a2.832,2.832,0,0,0,.5.617A14.644,14.644,0,0,0,2.747,3.185,15.67,15.67,0,0,0,5.152,4.834,19.487,19.487,0,0,1,7.589,6.11" transform="translate(215.501 801.566)" fill="#1a2e35"/>
    <path id="Fill_218" data-name="Fill 218" d="M.231,8.228C.127,8.247-.176,7.161.14,5.4A9.1,9.1,0,0,1,2.319.986,2.319,2.319,0,0,1,4.394.017a1.308,1.308,0,0,1,.962,1.037A3.808,3.808,0,0,1,5.4,2.128a6.308,6.308,0,0,1-.439,1.851A6.47,6.47,0,0,1,3.118,6.535C1.713,7.7.523,7.755.523,7.66c-.057-.155.995-.451,2.138-1.62A6.494,6.494,0,0,0,4.139,3.665a5.8,5.8,0,0,0,.326-1.6c.053-.6-.053-1.126-.285-1.117-.27-.07-.837.259-1.17.67A9.4,9.4,0,0,0,1.977,2.946,10.163,10.163,0,0,0,.8,5.56C.339,7.151.386,8.221.231,8.228" transform="translate(222.42 799.75)" fill="#1a2e35"/>
    <path id="Fill_220" data-name="Fill 220" d="M27.746,0l3.425,28.846s30.03,4.114,31.181,9.384L7.173,48.978,0,4.253Z" transform="translate(280.153 790.304)" fill="#da2c2c"/>
    <path id="Fill_222" data-name="Fill 222" d="M1.305.191A2.3,2.3,0,0,0,.14,3.031a2.2,2.2,0,0,0,2.8,1.183A2.433,2.433,0,0,0,4.156,1.2,2.287,2.287,0,0,0,1.109.293" transform="translate(292.471 819.226)" fill="#fff"/>
    <path id="Fill_224" data-name="Fill 224" d="M.723,13.026,0,8.518,53.638,0a3.888,3.888,0,0,1,2.617,2.626Z" transform="translate(286.604 826.256)" fill="#fff"/>
    <path id="Fill_226" data-name="Fill 226" d="M4.6.151c.033.273-1.3.608-2.5,1.691C.874,2.895.369,4.178.1,4.11-.156,4.1,0,2.407,1.471,1.122S4.624-.106,4.6.151" transform="translate(307.576 818.574)" fill="#1a2e35"/>
    <path id="Fill_232" data-name="Fill 232" d="M5.73.629c-.076.264-1.378.084-2.895.427C1.312,1.369.2,2.073.022,1.86-.165,1.688.842.5,2.636.121S5.829.4,5.73.629" transform="translate(304.941 811.609)" fill="#1a2e35"/>
    <path id="Fill_234" data-name="Fill 234" d="M27.465,0l.617,5.139L.75,9.15,0,4.549Z" transform="translate(281.104 796.019)"/>
    <path id="Fill_236" data-name="Fill 236" d="M8.965,3.432c.02.112-1.026.447-2.785.42a12.646,12.646,0,0,1-3.048-.443,13.061,13.061,0,0,1-1.729-.6,3.485,3.485,0,0,1-.943-.525A1.2,1.2,0,0,1,.113.855,1.505,1.505,0,0,1,1.2.05,3.622,3.622,0,0,1,2.27.03,10.043,10.043,0,0,1,4.091.356,9.9,9.9,0,0,1,6.917,1.644c1.474.995,2.072,1.942,1.988,2.009-.109.109-.868-.645-2.333-1.427a11.229,11.229,0,0,0-2.7-1.015A10.535,10.535,0,0,0,2.2.967C1.589.9,1.087.978.977,1.264c-.038.108-.039.15.11.3a2.835,2.835,0,0,0,.692.383,14.893,14.893,0,0,0,1.6.612,15.575,15.575,0,0,0,2.847.615,19.414,19.414,0,0,1,2.738.256" transform="translate(300.908 803)" fill="#1a2e35"/>
    <path id="Fill_238" data-name="Fill 238" d="M1.335,9.2c-.09.057-.779-.833-1.152-2.58A9.247,9.247,0,0,1,.088,3.507,9.349,9.349,0,0,1,.534,1.7,2.335,2.335,0,0,1,2.09.019a1.315,1.315,0,0,1,1.282.6,3.813,3.813,0,0,1,.444.978A6.3,6.3,0,0,1,4.11,3.472a6.488,6.488,0,0,1-.741,3.066c-.862,1.611-1.943,2.114-1.98,2.025A22.969,22.969,0,0,0,2.757,6.252,6.518,6.518,0,0,0,3.23,3.494a5.815,5.815,0,0,0-.3-1.6C2.749,1.312,2.454.869,2.242.964c-.276.038-.677.557-.83,1.064a9.274,9.274,0,0,0-.454,1.62A10.136,10.136,0,0,0,.851,6.515c.177,1.648.625,2.621.484,2.685" transform="translate(308.246 797.677)" fill="#1a2e35"/>
    <path id="Fill_240" data-name="Fill 240" d="M0,9.132C0,10.161,12.622,109.1,12.622,109.1l36.654-6.983L34.52,0Z" transform="translate(266.241 695.765)" fill="#19201f"/>
    <path id="Fill_242" data-name="Fill 242" d="M25.835,0C25.493.97,0,100.847,0,100.847l34.866,8.062L64.744,1.446Z" transform="translate(195.722 694.32)" fill="#19201f"/>
  </g>
  <g id="Group_17" data-name="Group 17" transform="translate(-189.821 -435.079)">
    <path id="Fill_142" data-name="Fill 142" d="M0,0A5.035,5.035,0,0,0,.484.855c.326.552.867,1.327,1.473,2.381a73.21,73.21,0,0,1,4.574,9.2,96.742,96.742,0,0,1,4.6,14.529A159.219,159.219,0,0,1,14.195,45.4c.742,6.6,1.192,12.917,1.4,18.666s.177,10.936.148,15.293c-.019,4.3-.034,7.8-.046,10.322.016,1.162.027,2.095.037,2.807a4.981,4.981,0,0,0,.063.978,5.113,5.113,0,0,0,.082-.977c.023-.711.056-1.644.1-2.8.067-2.518.158-6.022.27-10.319.092-4.357.171-9.553,0-15.322s-.6-12.1-1.349-18.724a152.082,152.082,0,0,0-3.132-18.511A92.5,92.5,0,0,0,6.992,12.243a65.086,65.086,0,0,0-4.8-9.153C1.547,2.054.967,1.3.6.773A5.087,5.087,0,0,0,0,0" transform="translate(294.921 459.521)" fill="#1a2e35"/>
    <path id="Fill_250" data-name="Fill 250" d="M0,0A1.393,1.393,0,0,0,.3.213c.238.149.533.333.9.56L4.679,2.893c1.51.924,3.358,2.054,5.467,3.418,1.046.687,2.181,1.42,3.286,2.29a3.315,3.315,0,0,1,.667.649c.05.293.084.717.126,1.078.087.751.185,1.522.3,2.309a92.415,92.415,0,0,0,2.086,10.192,50.557,50.557,0,0,0,4.224,11.185c2.059,3.812,5.72,6.561,9.1,9.53a22.887,22.887,0,0,1,4.572,5.063A9.886,9.886,0,0,1,36,55.226a35.55,35.55,0,0,1-1.969,6.8,24.263,24.263,0,0,0-1.366,6.9,32.963,32.963,0,0,0,2.3,13.005,62.427,62.427,0,0,0,5.324,10.693c1.943,3.193,3.861,6.089,5.6,8.738,3.5,5.288,6.278,9.593,8.08,12.643.906,1.521,1.583,2.719,2.036,3.535.211.376.381.681.519.925a1.357,1.357,0,0,0,.2.305,1.371,1.371,0,0,0-.133-.338c-.121-.253-.272-.568-.457-.959-.413-.839-1.052-2.061-1.923-3.607-1.734-3.1-4.459-7.455-7.9-12.778-1.714-2.667-3.607-5.578-5.517-8.768a62.442,62.442,0,0,1-5.217-10.615,32.491,32.491,0,0,1-2.223-12.744,23.629,23.629,0,0,1,1.339-6.709A35.792,35.792,0,0,0,36.7,55.312a10.587,10.587,0,0,0-1.593-7.076,23.456,23.456,0,0,0-4.713-5.215c-3.429-2.994-7-5.671-8.991-9.331a50.563,50.563,0,0,1-4.224-11.016,94.514,94.514,0,0,1-2.157-10.113c-.125-.78-.228-1.544-.325-2.291-.052-.387-.071-.711-.149-1.135a2.638,2.638,0,0,0-.836-.889c-1.15-.882-2.29-1.594-3.354-2.27C8.223,4.639,6.352,3.545,4.82,2.656L1.268.65.332.15A1.345,1.345,0,0,0,0,0" transform="translate(240.807 444.592)" fill="#1a2e35"/>
    <path id="Fill_252" data-name="Fill 252" d="M0,11.944a10.84,10.84,0,0,0,3.459-.382,25.754,25.754,0,0,0,7.794-3.154,25.845,25.845,0,0,0,6.375-5.5A10.953,10.953,0,0,0,19.553,0c-.179-.168-3.085,4.441-8.667,7.8C5.351,11.234-.066,11.708,0,11.944" transform="translate(242.474 523.21)" fill="#1a2e35"/>
    <path id="Fill_254" data-name="Fill 254" d="M0,.18A8.8,8.8,0,0,0,2.647.855a38.109,38.109,0,0,0,6.568.508,38.273,38.273,0,0,0,6.56-.611A8.808,8.808,0,0,0,18.413.036C18.371-.178,14.3.63,9.21.655,4.126.709.038-.035,0,.18" transform="translate(240.265 537.363)" fill="#1a2e35"/>
    <g id="Group_16" data-name="Group 16">
      <path id="Fill_138" data-name="Fill 138" d="M7.561,2.528l5.931,3.344,19.07,32.093-.075,16.8s4.482,11.758,4.762,21.186,0,43.975,0,43.975L61.334,280.024l-20.583,6.668L0,100.269V0Z" transform="translate(273.472 440.257)" fill="#e0934a"/>
      <path id="Fill_140" data-name="Fill 140" d="M16.885,243.106l16.287-5.277L9.862,64.152s3.9-25.456,0-36.606S0,0,0,0L6.8,31.094c-.856,23.283.561,51.089,3.06,81.043H3.626Z" transform="translate(297.337 483.844)"/>
      <path id="Fill_198" data-name="Fill 198" d="M0,0,30.752,4.365l1.37,9.756S47.4,40.919,48.757,48.764s8.162,27.282,6.8,41.947,3.06,70.191,3.06,70.191H50.8L20.531,86.959Z" transform="translate(248.581 435.079)" fill="#f1f1f1"/>
      <path id="Fill_244" data-name="Fill 244" d="M50.575,2.453,43.4,0,30.87,17.174,27.5,72.34l8.658,28.418s-24.4,54.073-24.8,67.494S0,306.642,0,306.642l112.907,9.226L92.048,111.416s-2.756-50.128-5.9-57.627S50.575,2.453,50.575,2.453" transform="translate(203.835 435.781)" fill="#e0934a"/>
      <path id="Fill_246" data-name="Fill 246" d="M0,37.8c-.01.023.143.1.443.225a7.107,7.107,0,0,0,1.377.368,9.629,9.629,0,0,0,5.157-.754A13.711,13.711,0,0,0,12.8,32.555a37.071,37.071,0,0,0,4-8.587,54.846,54.846,0,0,0,2.9-16.886,49.337,49.337,0,0,0-.224-5.2A9.3,9.3,0,0,0,19.185,0a10.426,10.426,0,0,0,.022,1.9c.031,1.222.082,2.989,0,5.166a59.509,59.509,0,0,1-3.07,16.67,38.3,38.3,0,0,1-3.874,8.451,13.493,13.493,0,0,1-5.488,4.992,9.859,9.859,0,0,1-4.921.938C.657,38,.024,37.737,0,37.8" transform="translate(244.716 578.1)" fill="#1a2e35"/>
      <path id="Fill_248" data-name="Fill 248" d="M0,158.819s.188.035.559.078c.4.04.942.094,1.647.166,1.481.134,3.619.328,6.372.579l23.714,2.043c20.2,1.68,48.416,4.03,80.588,6.7l.414.035-.042-.414c-.9-8.88-1.841-18.088-2.8-27.512-4-38.8-7.62-73.918-10.244-99.37-1.341-12.689-2.428-22.966-3.184-30.1l-.9-8.181q-.163-1.368-.251-2.125C95.811.243,95.762,0,95.762,0s0,.248.038.729c.042.508.1,1.218.182,2.134.179,1.9.436,4.658.769,8.193.7,7.142,1.712,17.429,2.961,30.129,2.571,25.454,6.117,60.581,10.036,99.384.964,9.422,1.905,18.629,2.813,27.509l.374-.38-80.608-6.465L8.6,159.4l-6.38-.462-1.654-.1c-.371-.02-.563-.014-.563-.014" transform="translate(203.836 583.604)" fill="#1a2e35"/>
      <path id="Fill_260" data-name="Fill 260" d="M.069,68.748C.392,60.3,16.447,26.9,16.447,26.9s7.443-16.6,9.2-19.957c3.815-7.3,14.469-8.062,18.308-5.851L40.977,42.3,32.16,72.324l17.181,32.507L27.947,125.96C-.581,122.384-.256,77.2.069,68.748" transform="translate(197.897 453.386)" fill="#005635"/>
    </g>
    <path id="Fill_262" data-name="Fill 262" d="M0,4.525a10.747,10.747,0,0,0,3.9-.571c2.375-.59,5.464-1.977,9.007-2.82A15.178,15.178,0,0,1,17.964.758a10.176,10.176,0,0,1,3.9,1.269A10.521,10.521,0,0,1,24.676,4.62a2.3,2.3,0,0,0-.45-.974,7.2,7.2,0,0,0-2.1-2.046A10.044,10.044,0,0,0,18.046.109a14.943,14.943,0,0,0-5.292.331C9.093,1.315,6.061,2.774,3.76,3.473,1.475,4.231-.012,4.414,0,4.525" transform="translate(204.948 522.192)" fill="#1a2e35"/>
    <path id="Fill_264" data-name="Fill 264" d="M0,.066A17.1,17.1,0,0,0,3.138.629a20.851,20.851,0,0,1,7.179,2.213,9.673,9.673,0,0,1,4.5,5.687,11.455,11.455,0,0,1,.186,3.1c.038.012.179-.268.3-.82a6,6,0,0,0,0-2.394,9.583,9.583,0,0,0-4.637-6.191A18.387,18.387,0,0,0,3.2.131,12.267,12.267,0,0,0,0,.066" transform="translate(214.949 513.86)" fill="#1a2e35"/>
    <path id="Fill_266" data-name="Fill 266" d="M0,30.525a7.6,7.6,0,0,0,1.56-.611A38.072,38.072,0,0,0,5.614,27.8a50.317,50.317,0,0,0,5.6-3.836,56.665,56.665,0,0,0,6.1-5.661,56.815,56.815,0,0,0,5.126-6.559,50.7,50.7,0,0,0,3.354-5.912,38.258,38.258,0,0,0,1.767-4.223A7.648,7.648,0,0,0,28.034,0c-.124-.049-.93,2.2-2.693,5.607a57.712,57.712,0,0,1-3.448,5.77,61.542,61.542,0,0,1-5.1,6.446,62.168,62.168,0,0,1-5.985,5.63,57.946,57.946,0,0,1-5.452,3.919C2.114,29.415-.056,30.4,0,30.525" transform="translate(223.158 549.168)" fill="#1a2e35"/>
    <path id="Fill_268" data-name="Fill 268" d="M.012,30.663A28.925,28.925,0,0,0,1.705,26.3c.946-2.73,2.178-6.529,3.408-10.766S7.33,7.423,7.969,4.6A27.6,27.6,0,0,0,8.829,0,34.063,34.063,0,0,0,7.485,4.481C6.721,7.264,5.66,11.106,4.434,15.334c-1.223,4.124-2.328,7.852-3.2,10.81A32.319,32.319,0,0,0,.012,30.663" transform="translate(230.045 495.047)" fill="#1a2e35"/>
    <path id="Fill_270" data-name="Fill 270" d="M17.186,32.508c.173-.091-3.533-7.444-8.277-16.419S.178-.09.006,0s3.533,7.442,8.277,16.42,8.73,16.178,8.9,16.086" transform="translate(230.051 525.709)" fill="#1a2e35"/>
    <path id="Fill_272" data-name="Fill 272" d="M5.368,58.59c.194-.019-.844-13.148-2.32-29.326S.219-.018.023,0s.844,13.146,2.32,29.327S5.172,58.607,5.368,58.59" transform="translate(253.295 667.802)" fill="#1a2e35"/>
  </g>
  <path id="Fill_274" data-name="Fill 274" d="M.023,25.517c.192.038,1.51-5.642,2.945-12.688S5.413.04,5.22,0,3.71,5.641,2.275,12.688-.168,25.478.023,25.517" transform="translate(56.138 271.133)" fill="#1a2e35"/>
  <path id="Fill_276" data-name="Fill 276" d="M0,2.124c.008.2,11.933-.106,26.636-.677S53.254.255,53.246.059,41.314.167,26.607.736-.008,1.928,0,2.124" transform="translate(66.851 260.555)" fill="#fafafa"/>
  <path id="Fill_278" data-name="Fill 278" d="M0,1.338c.005.2,10.983.076,24.518-.267S49.025.29,49.019.095,38.039.017,24.5.36s-24.5.781-24.5.977" transform="translate(17.537 267.083)" fill="#fafafa"/>
  <path id="Fill_280" data-name="Fill 280" d="M0,2.54c.01.2,12-.2,26.776-.89S53.53.245,53.52.05s-11.994.2-26.777.89S-.008,2.344,0,2.54" transform="translate(65.718 245.829)" fill="#fafafa"/>
  <path id="Fill_282" data-name="Fill 282" d="M0,1.583c.005.2,10.542.019,23.529-.4S47.045.276,47.038.08,36.5.062,23.507.476-.007,1.387,0,1.583" transform="translate(18.669 253.098)" fill="#fafafa"/>
</svg>
